<?xml version="1.0" standalone="no"?>
<!DOCTYPE svg PUBLIC "-//W3C//DTD SVG 1.1//EN" "http://www.w3.org/Graphics/SVG/1.1/DTD/svg11.dtd" >
<svg xmlns="http://www.w3.org/2000/svg">
<metadata></metadata>
<defs>
<font id="quigleywigglyregular" horiz-adv-x="500" >
<font-face units-per-em="1000" ascent="800" descent="-200" />
<missing-glyph horiz-adv-x="200" />
<glyph horiz-adv-x="1000" />
<glyph horiz-adv-x="1000" />
<glyph unicode="&#xd;" horiz-adv-x="1000" />
<glyph unicode=" "  horiz-adv-x="200" />
<glyph unicode="&#x09;" horiz-adv-x="200" />
<glyph unicode="&#xa0;" horiz-adv-x="200" />
<glyph unicode="!" horiz-adv-x="121" d="M98 61q0 -19 -13 -32t-32 -13t-32 13t-13 32t13 32.5t32 13.5t32 -13.5t13 -32.5v0zM115 644q-5 -60 -10 -119.5t-9 -118.5q-5 -59 -10 -118.5t-10 -119.5h-40q-3 60 -6.5 119.5t-6.5 118.5t-6.5 118.5t-6.5 119.5h105v0z" />
<glyph unicode="&#x22;" horiz-adv-x="184" d="M178 671l-69 -120l-31 18l69 120l31 -18v0zM108 681l-69 -120l-31 18l69 120l31 -18v0z" />
<glyph unicode="#" />
<glyph unicode="$" horiz-adv-x="316" d="M301 301q-4 -39 -35 -61.5t-68 -31.5q-15 -4 -29 -6t-26 -3q-3 -19 -5.5 -38.5t-5.5 -38.5t-5.5 -38.5t-5.5 -38.5q-1 -6 -4 -9t-7 -4h-1.5h-1.5h-1.5h-0.5q-5 1 -9 4.5t-3 9.5v1.5v1.5q5 38 10.5 75.5t11.5 74.5q-27 1 -51 7.5t-42 17.5q-4 2 -5.5 5.5t-1.5 7.5 q0 5 4 9.5t10 4.5q2 0 4 -0.5t4 -2.5q16 -10 37 -15t45 -6l14 101q-23 23 -47 46.5t-48 46.5q-7 8 -11 21t-4 28q0 29 17 53t50 24q19 -1 37.5 -1h37.5l4 26t3 26q2 12 4 25t3 26q1 7 5.5 10.5t9.5 2.5h2h1q4 -2 7.5 -5t2.5 -9v-1.5v-1.5l-14 -100h38t38 -1q8 0 11.5 -4.5 t3.5 -9.5q-1 -5 -4.5 -9.5t-11.5 -4.5h-20t-19 1h-20h-20l-6 -43q8 -8 16 -15.5t16 -15.5q7 -8 15 -15.5t16 -15.5q30 -29 42.5 -55t12.5 -49v-2v-1v-2v-2v0zM218 244l-60 59l-11 -76q18 2 36 6t35 11v0zM160 517l-22 1l20 -19l2 18v0z" />
<glyph unicode="%" />
<glyph unicode="&#x26;" horiz-adv-x="675" d="M645 484q-9 -66 -34.5 -107.5t-60.5 -67.5l-4 -32t-5 -32q-7 -35 -22.5 -70t-46.5 -66q-46 -46 -101.5 -68.5t-114.5 -22.5q-19 0 -38 2t-37 7q-19 4 -38 10.5t-38 15.5q-32 15 -53.5 39.5t-21.5 59.5v3.5t1 3.5v3v3q12 101 84.5 150.5t157.5 80.5q3 1 6.5 2.5t6.5 2.5 q-3 1 -5.5 2.5t-5.5 2.5q-43 22 -79 60.5t-37 90.5q0 59 37.5 83t86.5 24h10t11 -1q32 -3 63 -14t53 -28q2 8 3.5 16t3.5 17q2 8 3.5 16t3.5 16q1 7 5 10t9 2h1.5h0.5q4 -1 7.5 -4.5t3.5 -9.5v-1.5v-1.5q-2 -10 -4 -20.5t-4 -20.5q-2 -11 -4 -21l-4 -20q15 -18 22.5 -36.5 t7.5 -38.5q0 -19 -6.5 -37.5t-18.5 -36.5q-4 -7 -8.5 -15t-8.5 -16l-52 9q2 10 4 19.5t4 19.5q2 9 4 18.5t4 19.5v2t1 2v2v2q-1 27 -29 43t-62 23q-14 3 -27.5 4.5t-25.5 1.5q-7 0 -12.5 -0.5t-10.5 -1.5q-22 -3 -32.5 -10.5t-10.5 -21.5q0 -5 1.5 -11t3.5 -13 q15 -43 53 -69.5t81 -42.5q12 -4 24 -7.5t23 -6.5l7 -59q-2 -1 -4.5 -1.5t-5.5 -1.5q-13 -5 -27 -9.5t-28 -9.5q-79 -28 -147 -72t-83 -137q17 -10 35.5 -16.5t38.5 -7.5q28 -2 61 1t66 11q78 20 145.5 66.5t81.5 120.5q-16 -9 -35 -16.5t-39 -15.5q-8 -3 -15.5 -6t-15.5 -5 q-48 -19 -91 -42.5t-62 -64.5q0 -1 -0.5 -1.5l-0.5 -0.5q-2 -7 -5 -12t-10 -5h-1.5h-0.5q-1 0 -1.5 0.5t-1.5 0.5q-7 2 -9 5.5t-2 8.5q0 3 0.5 6t1.5 6v0.5t1 1.5q0 3 1 5.5t1 4.5q15 84 76 125t134 72q1 1 2.5 1.5t2.5 0.5q54 24 102.5 52.5t70.5 83.5q1 6 5 9t9 2 q5 0 9.5 -4t4.5 -12v-0.5v-0.5v-0.5v-0.5v0z" />
<glyph unicode="'" horiz-adv-x="103" d="M108 681l-69 -120l-31 18l69 120l31 -18v0z" />
<glyph unicode="(" horiz-adv-x="285" d="M262 -138l-40 -56q-105 93 -157 215t-52 250q1 127 53 248t156 214l40 -57q-91 -81 -137.5 -188t-45.5 -220q0 -112 46 -218t137 -187v-1z" />
<glyph unicode=")" horiz-adv-x="285" d="M22 -138q90 81 136 184.5t47 212.5v5.5v5.5q0 112 -45.5 218.5t-137.5 187.5l40 57q103 -91 155 -210.5t54 -243.5v-5.5v-5.5q-1 -127 -53 -248t-156 -213l-40 55v0z" />
<glyph unicode="*" horiz-adv-x="157" d="M152 643l-19 -33l-30 17v-34h-38v35l-29 -18l-20 33l30 17l-30 17l19 33l30 -17v35h38v-35l30 17l19 -33l-30 -17l30 -17v0z" />
<glyph unicode="+" />
<glyph unicode="," horiz-adv-x="111" d="M97 77q5 -8 7 -16.5t2 -16.5q0 -22 -12.5 -43t-27.5 -36q-10 -9 -20.5 -18t-23.5 -16l-14 23q1 1 6.5 5t12.5 9l1.5 1.5t1.5 0.5q6 5 11.5 9.5t4.5 5.5q5 5 8.5 11.5t4.5 14.5q1 2 1 3.5v3.5q0 8 -3 15.5t-8 14.5l-28 -20l-16 24l70 48q1 -1 2.5 -2t2.5 -2q5 -4 9.5 -9 t7.5 -10v0z" />
<glyph unicode="-" horiz-adv-x="135" d="M114 262h-105v36h105v-36v0z" />
<glyph unicode="." horiz-adv-x="121" d="M98 61q0 -19 -13 -32t-32 -13t-32 13t-13 32t13 32.5t32 13.5t32 -13.5t13 -32.5v0z" />
<glyph unicode="/" horiz-adv-x="149" d="M160 690l-120 -770h-36l120 770h36v0z" />
<glyph unicode="0" horiz-adv-x="416" d="M396 308q-1 -23 -6 -50.5t-14 -55.5q-23 -70 -70.5 -128t-121.5 -53q-75 5 -123 88.5t-41 200.5q1 23 6 49.5t14 53.5q21 69 67 126.5t117 57.5q70 0 108.5 -55t53.5 -121q7 -30 9 -59.5t1 -53.5v0zM288 308q-1 13 -4.5 45.5t-10.5 69.5q-10 45 -26.5 83t-43.5 38 t-40.5 -37t-19.5 -81q-4 -39 -4.5 -73t-0.5 -43v-0.5v-0.5q1 -12 4.5 -45t11.5 -70q10 -46 27 -84t43 -37q31 2 50 67t14 168v0z" />
<glyph unicode="1" horiz-adv-x="249" d="M198 604q-7 -138 -13.5 -276t-13.5 -276l-106 -48q5 121 10.5 241.5t10.5 241.5q-6 -15 -12 -30.5t-11 -30.5q-6 -16 -12 -31l-12 -30q-2 -4 -5.5 -6.5t-7.5 -2.5h-1.5h-0.5q-5 1 -9 5t-4 10v3.5t1 2.5l76 186l110 41v0z" />
<glyph unicode="2" horiz-adv-x="372" d="M354 256q-5 -29 -10 -57.5t-10 -57.5t-10.5 -57.5t-10.5 -57.5h-293q10 15 19.5 30.5t19.5 31.5q5 7 9.5 14t8.5 14q35 54 69 109.5t63 113.5q11 22 17.5 46t6.5 49q0 16 -3 31.5t-10 30.5q-10 22 -26.5 34.5t-37.5 11.5q-8 0 -17 -1.5t-18 -6.5q-34 -15 -44 -43.5 t-8 -63.5q8 -7 17.5 -10.5t19.5 -3.5q11 1 21 6t17 15q2 3 3.5 4.5t3.5 2.5t4 1.5t3 0.5q6 0 10 -4t4 -10q0 -1 -0.5 -1.5t-0.5 -1.5t-0.5 -2.5t-1.5 -3.5q-3 -7 -6.5 -15t-8.5 -16q-12 -23 -29 -42t-40 -18q-5 0 -10.5 1t-10.5 3q-26 11 -37 32.5t-10 46.5q0 5 0.5 9.5 t0.5 8.5q2 16 6.5 31.5t10.5 28.5q23 50 66.5 83.5t95.5 33.5q14 0 29 -3t30 -9q42 -17 60 -45.5t17 -63.5q0 -22 -5.5 -45t-16.5 -48q-23 -57 -58.5 -108.5t-73.5 -100.5l-14 -18l-14 -18l157 11q2 13 4.5 25.5t5.5 25.5q2 13 4.5 25.5t4.5 25.5q1 6 5 9t9 3h1.5h0.5 q4 -1 7.5 -4.5t3.5 -9.5v-1.5v-1.5v0z" />
<glyph unicode="3" horiz-adv-x="360" d="M316 324q14 -17 20.5 -37t6.5 -41q0 -8 -1 -16l-2 -16q-7 -36 -24.5 -69.5t-36.5 -58.5q-1 -1 -1.5 -2t-1.5 -2q-25 -33 -62.5 -54t-80.5 -21q-58 0 -86.5 40t-28.5 90q0 6 0.5 12.5t1.5 13.5q1 10 3.5 19.5t6.5 18.5q2 5 5.5 7.5t7.5 1.5q5 0 9.5 -3.5t4.5 -9.5v-2.5 t-1 -3.5v-1.5v-1.5q0 -4 2.5 -8.5t5.5 -9.5q2 -2 3.5 -4t3.5 -4q4 -5 8 -9l6 -6q16 -15 39.5 -25.5t48.5 -14.5q7 -1 13.5 -1.5t13.5 -0.5q11 0 22 1.5t21 5.5q21 8 29.5 22.5t8.5 32.5q0 6 -1 13t-3 14q-6 19 -17 37t-23 30q-19 19 -42.5 30.5t-48.5 20.5q8 10 16.5 20.5 t17.5 21.5q24 30 43.5 63.5t19.5 68.5q0 10 -2 19.5t-7 19.5q-10 20 -29.5 29t-42.5 9h-5.5t-5.5 -1q-25 -2 -47.5 -14.5t-31.5 -34.5q-2 -5 -3 -10.5t-1 -11.5q0 -7 1.5 -14t4.5 -15q4 -10 11 -14.5t14 -4.5h2.5t2.5 1q9 1 17.5 7t13.5 13l3.5 3.5t3.5 2.5q1 1 3 1.5t3 0.5 q6 -1 10 -5t4 -11v-2.5t-1 -3.5t-1.5 -3.5t-0.5 -3.5l-2 -8l-2 -8q-7 -25 -18 -45.5t-43 -26.5q-4 -1 -7 -1h-6q-33 0 -48 25t-16 55q-1 5 -0.5 9.5t0.5 8.5q1 9 2.5 18t4.5 19q3 9 7 18t9 18q21 38 61 64.5t101 26.5q8 0 15.5 -0.5t15.5 -1.5q49 -6 69.5 -34t20.5 -64 q0 -8 -1 -16t-3 -17q-4 -22 -15 -44t-26 -40q-6 -7 -13 -14l-14 -14q-4 -4 -7.5 -7t-7.5 -7q6 -1 11.5 -1.5t11.5 -2.5q16 -3 31.5 -10t25.5 -19v0z" />
<glyph unicode="4" horiz-adv-x="405" d="M387 220l-35 -82l-67 -11l-1 -74l-108 -64l4 127l-162 45q24 57 48.5 113.5t48.5 112.5t48.5 112.5t48.5 113.5l86 -57q-1 -42 -2.5 -84.5t-2.5 -84.5q-1 -43 -2.5 -85t-2.5 -84l99 2v0zM191 494l-105 -248l97 -26l8 274v0z" />
<glyph unicode="5" horiz-adv-x="352" d="M322 290q8 -16 11 -31.5t3 -32.5v-4.5v-5.5q-4 -55 -39.5 -105.5t-84.5 -74.5q-18 -9 -35 -13.5t-33 -4.5q-40 1 -72.5 27t-51.5 73q0 1 -0.5 2l-1.5 3q-1 1 -1.5 2.5t-0.5 2.5l16 12t17 12q8 6 16 12.5t16 12.5q3 -4 6.5 -7.5t6.5 -7.5q17 -20 35 -36.5t45 -20.5 q4 -1 8 -1h8h6t5 1q26 2 48.5 16.5t26.5 41.5q0 2 0.5 4.5t0.5 5.5v4.5v4.5v9.5t-1 8.5q-7 42 -45.5 55t-82.5 14q-12 1 -24.5 1h-23.5h-21.5h-19.5q2 40 4.5 80t5.5 81q2 40 4.5 80.5t4.5 80.5h192q4 15 7.5 30.5t7.5 31.5q1 5 4.5 8t7.5 4h1.5h1.5q5 -1 9 -4t4 -10v-0.5 v-1.5q-1 0 -1 -0.5v-1.5q-10 -46 -21.5 -92.5t-22.5 -93.5h-169l-6 -89h24h25h24h24q25 0 43.5 -2.5t34.5 -11.5q13 -7 24 -19.5t22 -32.5l4 -8t4 -9v0z" />
<glyph unicode="6" horiz-adv-x="374" d="M340 528l-61 -50q-4 6 -7.5 12.5t-8.5 13.5q-12 19 -28.5 35.5t-38.5 16.5h-4t-4 -1q-3 0 -5 -0.5t-4 -1.5q-38 -13 -55 -69.5t-20 -121.5q-1 -15 -1 -30t1 -29q2 3 4 5.5t4 4.5q23 26 56 48.5t68 26.5q3 1 6 1h6q14 0 27 -4t25 -13q31 -22 44.5 -53t13.5 -65 q0 -9 -1 -18t-3 -18q-11 -61 -51.5 -115t-92.5 -72q-10 -4 -20 -5.5t-20 -1.5q-37 0 -67 21t-50 54q-7 12 -12 24t-9 23q-13 40 -14.5 80t1.5 84q2 24 5.5 50.5t10.5 53.5q15 67 50.5 124.5t102.5 71.5q10 2 19 3t18 1q41 0 71 -22t44 -64v0zM277 248q-12 24 -36 38.5 t-51 15.5h-2.5h-2.5q-19 0 -36 -6.5t-31 -21.5q-1 -2 -2.5 -4.5t-2.5 -4.5q0 -1 -0.5 -1.5l-0.5 -0.5l-2 -4l-2 -4q2 -19 5.5 -35t7.5 -27q2 -5 4 -9.5t5 -9.5q14 -27 41.5 -49.5t57.5 -22.5q5 0 10.5 1.5t10.5 2.5q25 8 35 28t10 43v5.5v5.5q-2 16 -7 31.5t-11 28.5v0z" />
<glyph unicode="7" horiz-adv-x="311" d="M297 592q-2 -20 -4.5 -40t-4.5 -40l-0.5 -1l-0.5 -1q0 -1 -0.5 -2t-1.5 -2q-47 -72 -71 -148t-23 -158q0 -26 2.5 -52.5t7.5 -54.5q9 2 17.5 4.5t17.5 5.5q8 2 16.5 4.5t17.5 4.5h1.5t1.5 1h0.5h1.5q6 -1 9.5 -5t3.5 -9q0 -4 -2.5 -8t-8.5 -6l-110 -30l-110 -30 q29 122 70.5 238t107.5 223h-92.5h-93.5q-2 -11 -3.5 -22.5t-3.5 -23.5q-1 -7 -5 -9.5t-9 -2.5t-9.5 3.5t-4.5 10.5v0.5v0.5v0.5v0.5q3 22 6.5 44.5t6.5 44.5t6 44.5t6 44.5q1 7 5.5 10t9.5 3q1 0 2 -0.5l1 -0.5q4 -1 7.5 -4t2.5 -9v-1.5v-1.5l-4 -26h234v0z" />
<glyph unicode="8" horiz-adv-x="358" d="M341 495q2 -40 -9.5 -65.5t-32.5 -47.5q-8 -8 -17 -16.5t-19 -17.5q34 -26 51 -57t17 -69q0 -14 -3 -30.5t-8 -33.5q-2 -5 -3.5 -10t-3.5 -10q-13 -31 -34.5 -59t-51.5 -42q-14 -7 -28.5 -10t-28.5 -3q-59 0 -106.5 46t-47.5 106q0 7 1 14l2 14q2 7 4.5 14t5.5 14 q1 2 2.5 4.5t3.5 5.5q8 12 18 24t21 23q4 4 8.5 8t8.5 8q-31 26 -39.5 61.5t-8.5 72.5q1 54 30.5 98.5t79.5 64.5q8 3 16 5.5t16 4.5l16 2t16 1q49 -1 85.5 -31t38.5 -89v0zM265 146q1 2 1.5 4.5t1.5 5.5v4.5v4.5q0 26 -25 47t-54 37q-20 11 -38.5 19.5t-29.5 15.5 q-19 -12 -28 -33.5t-8 -44.5v-3.5v-3.5q1 -18 8 -35.5t19 -29.5q13 -12 31.5 -20t37.5 -10q3 -1 6.5 -1h6.5q23 0 42.5 10t28.5 33v0zM234 368q13 16 22 37.5t11 44.5q1 4 1 7.5v7.5q0 26 -12 48t-41 32q-10 4 -20 5.5t-19 1.5q-31 0 -50.5 -18t-19.5 -49q0 -7 1.5 -16 t4.5 -18q10 -29 34 -42.5t50 -23.5q10 -4 19.5 -8t18.5 -9v0z" />
<glyph unicode="9" horiz-adv-x="375" d="M357 329q0 -24 -2.5 -52t-8.5 -56q-12 -65 -45 -121.5t-99 -71.5q-3 -1 -6 -1.5t-6 -0.5q-6 -1 -12 -1.5t-12 -0.5q-41 0 -72 22.5t-47 63.5l59 50l9 -13.5t10 -15.5q13 -18 29.5 -33.5t37.5 -15.5q5 0 9.5 1t9.5 3q36 14 50 68.5t14 118.5q0 16 -0.5 31.5t-2.5 30.5 q-2 -2 -4 -4.5t-4 -5.5q-22 -27 -56 -50t-71 -25h-2.5h-3.5q-13 0 -26.5 4t-25.5 12q-33 23 -47.5 57t-14.5 71q0 8 0.5 15.5t1.5 15.5q9 59 46.5 111t89.5 71q11 4 20.5 5.5t19.5 1.5q37 0 68 -21.5t51 -53.5q3 -4 5 -8.5t5 -8.5q24 -46 29 -93t4 -100v0zM266 383 q-3 19 -7 35t-9 27q-2 5 -4.5 9.5t-5.5 9.5q-14 25 -39 46t-53 25q-2 1 -5 1h-6q-13 0 -24.5 -5t-22.5 -16q-8 -8 -11.5 -19.5t-3.5 -25.5q0 -5 0.5 -10t1.5 -10q2 -17 8 -32.5t12 -26.5q12 -23 36 -37.5t50 -17.5h5.5h4.5q18 0 34.5 6.5t29.5 21.5q2 2 3 5t3 6v0.5v1.5 q1 1 1.5 3t1.5 3v0z" />
<glyph unicode=":" horiz-adv-x="121" d="M98 161q0 -19 -13 -32t-32 -13t-32 13t-13 32t13 32.5t32 13.5t32 -13.5t13 -32.5v0zM98 311q0 -19 -13 -32t-32 -13t-32 13t-13 32t13 32.5t32 13.5t32 -13.5t13 -32.5v0z" />
<glyph unicode=";" horiz-adv-x="121" d="M97 177q5 -8 7 -16.5t2 -16.5q0 -22 -12.5 -43.5t-27.5 -36.5q-10 -9 -20.5 -17.5t-23.5 -16.5l-14 24q1 0 6.5 4t12.5 9l1.5 1.5t1.5 0.5q6 5 11.5 9.5t4.5 5.5q5 5 8.5 12t4.5 15q1 2 1 3.5v3.5q0 8 -3 15.5t-8 14.5l-28 -20l-16 24l70 48q1 -1 2.5 -2t2.5 -2 q5 -4 9.5 -9t7.5 -10v0zM98 311q0 -19 -13 -32t-32 -13t-32 13t-13 32t13 32.5t32 13.5t32 -13.5t13 -32.5v0z" />
<glyph unicode="&#x3c;" />
<glyph unicode="=" />
<glyph unicode="&#x3e;" />
<glyph unicode="?" horiz-adv-x="333" d="M178 61q0 -19 -13 -32t-32 -13t-32.5 13t-13.5 32t13.5 32.5t32.5 13.5t32 -13.5t13 -32.5v0zM284 363q-10 -13 -22.5 -24t-25.5 -22l-1 -1l-1 -1q-19 -15 -36 -31.5t-27 -39.5q-3 -8 -5.5 -15.5t-4.5 -15.5q-4 -15 -5.5 -30t-2.5 -32h-39q2 42 10.5 76.5t24.5 67.5 q7 15 16 30.5t20 31.5q2 4 5 8t5 8q9 15 17 33t12 36q2 7 3 14.5t1 14.5q0 14 -4 26t-12 22q-16 19 -34 27.5t-37 8.5q-34 -1 -62 -25.5t-34 -62.5q6 3 12 4.5t11 1.5q20 0 34.5 -15t14.5 -35q0 -9 -3.5 -17.5t-11.5 -16.5q-7 -7 -16 -10t-19 -3q-15 0 -28 8t-17 23 q-4 12 -5.5 23.5t-1.5 21.5q1 62 47.5 101t108.5 38h10t10 -1q5 0 10 -1l10 -2q53 -12 80 -48t27 -80q0 -25 -8.5 -49t-25.5 -47v0z" />
<glyph unicode="@" horiz-adv-x="692" d="M642 291q-5 -11 -13.5 -27.5t-20.5 -34.5q-6 -9 -12.5 -17.5t-14.5 -16.5q-15 -16 -33.5 -23.5t-41.5 -8.5q-4 0 -18 1.5t-30 11.5q-2 1 -4.5 2.5t-4.5 3.5q-8 6 -15 14t-12 18q-6 -6 -12 -11.5t-11 -9.5q-15 -11 -32 -17.5t-45 -11.5q-2 0 -3.5 -0.5t-3.5 -0.5h-2h-2 q-1 -1 -2 -1h-3q-10 0 -24.5 3.5t-30.5 11.5q-12 6 -23.5 15.5t-20.5 23.5q-13 21 -19.5 45t-8.5 49q0 18 5 40.5t15 46.5q7 16 17 32.5t23 31.5q26 29 56 43.5t66 15.5h73.5h83.5q-3 -15 -5.5 -31t-5.5 -31q-3 -16 -5.5 -32.5t-5.5 -33.5q-4 -31 -9 -62.5t-13 -65.5 q0 -3 0.5 -8t2.5 -10q2 -8 8.5 -15t18.5 -8q10 0 20 4.5t20 14.5q26 31 40.5 69.5t15.5 81.5v6v6q-2 40 -17.5 78.5t-49.5 69.5q-29 31 -70 49t-91 18q-58 0 -107.5 -20.5t-91.5 -62.5q-40 -40 -60.5 -89.5t-21.5 -108.5q0 -57 20.5 -106.5t61.5 -91.5q41 -41 91 -61.5 t108 -21.5q51 0 98.5 18t84.5 51l40 -45q-47 -40 -104 -60t-120 -22q-64 0 -125.5 24t-114.5 75q-44 44 -72 106.5t-28 133.5t25 131t75 110t110 74.5t131 25.5q62 0 113 -22t93 -66q41 -43 61.5 -93.5t20.5 -107.5q0 -19 -3.5 -44.5t-14.5 -55.5v0zM447 460h-86 q-22 0 -42 -10t-37 -31q-16 -19 -26 -41t-15 -47q0 -3 -0.5 -6.5t-0.5 -7.5q-1 -15 0.5 -32.5t15.5 -35.5q2 -2 3.5 -4t3.5 -4q9 -10 20 -14.5t32 -4.5q5 0 16 3.5t23 10.5q18 11 31 25.5t25 35.5q7 14 11 29t8 32q0 4 1 8.5t2 8.5q2 6 3 12.5t2 13.5t2.5 15t2.5 16 q1 3 1.5 6.5t1.5 7.5q0 3 0.5 6.5t1.5 7.5v0z" />
<glyph unicode="A" horiz-adv-x="662" d="M658 176q-2 -11 -5.5 -26.5t-8.5 -31.5q-10 -30 -27.5 -54.5t-45.5 -24.5q-25 0 -44.5 21t-32.5 47q-5 10 -9.5 20t-7.5 18l-30 -96q-31 -9 -65.5 -14t-69.5 -5h-9.5h-8.5q-92 4 -174.5 44.5t-118.5 126.5q-1 2 -1 4v4q5 32 10.5 64t11.5 64l12 64l12 64q0 2 1 3.5t2 2.5 q50 69 135 111.5t178 57.5q26 5 51.5 7t50.5 2q26 0 51.5 -2.5t48.5 -7.5q2 0 3.5 -0.5t3.5 -0.5q2 -1 3.5 -1.5t3.5 -0.5q-5 -26 -10.5 -52t-10.5 -52l-31 -9l19 -29q-6 -26 -10.5 -55.5t-5.5 -58.5v-10v-10v-5.5v-4.5q1 -54 15 -105.5t47 -90.5q1 -1 2 -1.5t2 -0.5h2h2 h1.5h1.5q7 1 14 7t11 13q1 3 2 5t1 4q1 6 4 8.5t7 3.5h1.5h1.5h1.5h0.5q5 -1 9 -4.5t3 -9.5v-1.5v-1.5v0zM485 534l-2 2q-36 2 -80.5 -1t-91.5 -11q-94 -19 -174.5 -68t-88.5 -141q-6 -69 51 -108.5t126 -56.5q35 -9 67.5 -13t57.5 -4q28 0 53 2.5t44 8.5l15 48 q-9 34 -14 71.5t-5 75.5q0 52 10 102t32 93v0z" />
<glyph unicode="B" horiz-adv-x="811" d="M803 457q-3 -64 -50 -103.5t-102 -60.5q-9 -3 -18.5 -6t-18.5 -6q5 -1 10.5 -2.5t11.5 -2.5q33 -10 61.5 -30t27.5 -58v-7.5t-1 -8.5q-14 -79 -79 -112t-139 -34h-2h-2q-34 0 -66.5 5.5t-60.5 15.5v-100h-38q1 130 -68 215t-177 147q-38 22 -62.5 54t-24.5 74q0 8 1.5 17 t3.5 19q15 60 81.5 90t143.5 42q55 9 106.5 11t83.5 2q29 0 75.5 -1t96.5 -9q79 -11 144.5 -44t61.5 -107v0zM773 453q0 27 -59 40.5t-129 19.5q-58 4 -109.5 5t-70.5 0q-79 -2 -147.5 -10.5t-120.5 -22.5q-8 -2 -20 -6t-25 -9q-21 -8 -38.5 -19t-17.5 -23q0 -2 1 -4.5 t2 -4.5q4 -5 11.5 -9.5t19.5 -8.5q90 -31 161 -84t110 -142v324h34v-373q27 -6 59.5 -10t66.5 -4h4.5h4.5q49 2 95.5 11.5t80.5 30.5v5.5t1 5.5q0 3 0.5 5.5t0.5 5.5q-67 27 -137 42t-141 22l-1 78q8 1 16.5 2.5t17.5 2.5q59 10 117.5 24t113.5 36q6 2 19.5 8t28.5 15 q11 6 21.5 13t17.5 14q6 5 9 10t3 10v0z" />
<glyph unicode="C" horiz-adv-x="575" d="M569 155l-10 -67q-48 -26 -107 -41.5t-121 -16.5h-6h-6q-91 0 -172 36t-121 118q-10 20 -15 42t-5 44q0 8 1 16l2 16q13 85 54 155t111 120q35 25 76 42t84 17h4h5q2 0 4 -0.5t4 -0.5q79 -8 118 -70t39 -135v-1.5v-1.5q0 -13 -1 -26.5t-4 -27.5q-6 -27 -15.5 -53.5 t-20.5 -52.5q-2 2 -4 3.5t-3 3.5q-2 1 -4 3t-4 3q-22 20 -31 42t-9 44q0 21 5.5 43t11.5 43q3 10 6 19.5t5 19.5l-1.5 1.5l-1.5 1.5q-13 11 -30 21t-36 17q-11 4 -21.5 6.5t-20.5 2.5q-41 2 -78 -14.5t-70 -39.5q-8 -5 -15.5 -11t-15.5 -12q-46 -37 -83 -89.5t-32 -112.5 q2 -18 5.5 -34.5t10.5 -30.5q18 -36 57.5 -54t88.5 -26q11 -1 21.5 -2.5t21.5 -1.5q10 -1 21 -1.5t21 -0.5t20.5 0.5t21.5 1.5q62 3 124 15t121 27v0z" />
<glyph unicode="D" horiz-adv-x="702" d="M689 321q1 -22 -4.5 -45.5t-15.5 -47.5q-19 -46 -52 -89t-69 -71q-10 -9 -20 -15.5t-20 -11.5t-22 -7.5t-26 -2.5q-17 0 -34.5 3.5t-36.5 8.5q-19 6 -39 14t-37 17q-19 9 -35 17.5t-28 14.5l-15 -75q-4 3 -8 5.5t-8 4.5q-57 37 -87 79t-55 108l73 77q24 -18 48 -35.5 t48 -34.5l14 70q-60 12 -114 38t-105 58q-19 12 -27.5 29t-8.5 36q0 4 0.5 8.5t1.5 8.5q4 25 19.5 49t34.5 39q50 40 108 61t118 23q11 1 21.5 1t20.5 -1q2 14 5 28.5t6 27.5q2 7 6 10t9 3q5 -1 8.5 -4.5t3.5 -9.5v-2v-2l-10 -54q128 -16 226.5 -108t105.5 -223v0zM224 121 q-26 15 -50 30t-47 29q15 -32 37 -57.5t51 -46.5l9 45v0zM604 278q-23 110 -93.5 172t-174.5 93l-28 -141q33 -4 66 -5.5t66 -3.5q-21 -43 -54 -68t-81 -25h-4h-4q-3 0 -5 0.5t-4 0.5l-16 -83q47 -32 98 -59t105 -47q11 -4 20.5 -6t18.5 -2q43 0 67 38t27 84v6.5v6.5 q0 11 -1 20.5t-3 18.5v0zM308 551q-5 1 -11 2.5t-13 2.5q-18 3 -42 6t-49 4h-5.5h-5.5q-40 0 -74.5 -10t-46.5 -38q0 -1 -0.5 -2.5t-0.5 -2.5q-1 -1 -1 -2.5v-2.5q0 -23 36 -42t79 -33q33 -11 63 -18t43 -9l28 145v0z" />
<glyph unicode="E" horiz-adv-x="634" d="M630 200q-4 -8 -8 -16.5t-8 -16.5q-2 -4 -4 -8.5t-4 -8.5q-6 -12 -12.5 -24.5t-12.5 -24.5q-5 -11 -26.5 -21t-45.5 -19q-20 -6 -38.5 -11t-27.5 -7q-25 -5 -62 -9t-78 -4q-14 0 -28.5 0.5t-28.5 1.5q-90 8 -164.5 43t-74.5 118v5.5v4.5t0.5 4.5t0.5 5.5q9 72 65.5 109 t122.5 52q22 5 44 8t42 5q-46 15 -85 40.5t-50 82.5q-1 5 -1.5 10.5t-0.5 10.5q0 49 38 85t84 47q2 0 3.5 0.5t2.5 0.5q4 1 7.5 1.5t7.5 0.5q3 1 6.5 1h7.5t8.5 -0.5t9.5 -0.5q37 -5 73 -23.5t64 -41.5q0 1 0.5 2.5t0.5 2.5v2.5v2.5q0 4 -0.5 8t-1.5 8v1.5v1.5 q-1 3 -1.5 6.5t-0.5 6.5v2v2q0 6 4.5 9.5t9.5 3.5h1.5t1.5 -1q4 -1 7 -4t4 -9q1 -9 2 -16.5t2 -14.5v-2.5v-2.5q0 -7 -1.5 -14.5t-5.5 -16.5q25 -27 36.5 -56.5t11.5 -64.5v-11t-1 -12t-2.5 -13t-3.5 -15q-6 -17 -17.5 -31.5t-27.5 -14.5q-4 0 -8.5 1.5t-9.5 3.5 q-22 11 -29.5 32t-7.5 46q0 17 3 34t6 32q0 2 0.5 4.5t1.5 4.5q-26 21 -59.5 36.5t-67.5 22.5q-16 3 -32 4.5t-31 0.5q-28 -2 -48 -13t-20 -39q0 -4 0.5 -7.5t1.5 -8.5q9 -47 47 -70t83 -37q7 -2 14 -4.5t14 -4.5q10 -3 19.5 -6t18.5 -7l16 -92q-15 2 -29.5 3t-28.5 3 q-14 1 -28.5 1.5t-29.5 0.5q-19 0 -39.5 -1.5t-40.5 -5.5q-13 -2 -29.5 -6.5t-33.5 -10.5q-34 -12 -61.5 -32t-27.5 -51v-2t1 -2v-2v-2q3 -17 17.5 -26.5t30.5 -14.5q8 -2 15.5 -4t13.5 -3q43 -10 85.5 -14.5t84.5 -4.5q89 0 175 20.5t168 59.5v0zM477 391q2 5 3.5 9t1.5 9 q1 4 1.5 8.5t0.5 8.5q0 19 -8 36.5t-22 33.5q0 -2 -0.5 -4.5t-1.5 -4.5q-1 -9 -2 -20t-1 -23q0 -20 5 -37t19 -17h0.5t1.5 1h1.5h0.5v0z" />
<glyph unicode="F" horiz-adv-x="722" d="M720 645q-2 -5 -4.5 -9.5t-5.5 -9.5q-16 -31 -68 -42t-121 -11q-18 -31 -24.5 -62.5t-6.5 -63.5q0 -25 3 -50.5t7 -51.5l114 -11l-55 -62l-52 5q0 -18 -2 -38t-7 -40q-14 -66 -54 -121t-109 -54h-8t-9 1q-70 8 -99 59.5t-39 111.5q-1 8 -2 15.5t-2 14.5l77 64 q-1 -37 4.5 -70.5t23.5 -65.5q3 -7 7 -13t9 -13l6 -8t7 -8q13 -15 30.5 -27t36.5 -12q3 0 6.5 0.5t6.5 1.5t6.5 3t6.5 4q7 5 9.5 16t2.5 26q0 7 -0.5 14.5t-1.5 15.5q-1 9 -2 17t-3 16q-1 5 -1.5 10t-1.5 9q-4 20 -6 40.5t-4 41.5l-218 20l68 62q37 -4 73.5 -7.5t72.5 -6.5 q1 68 21.5 112.5t49.5 84.5q3 6 7 11l8 10q-67 3 -133 11t-131 18q-4 0 -7.5 0.5t-6.5 1.5q-19 2 -37.5 4.5t-36.5 5.5q-13 -18 -21 -41t-11 -46q-2 -9 -2.5 -18t-0.5 -18q0 -7 0.5 -14.5t1.5 -15.5q1 -4 2 -9.5t2 -10.5q4 -14 11.5 -25.5t20.5 -11.5q4 0 8.5 1.5t9.5 5.5 q12 19 20.5 40.5t13.5 44.5q3 12 5 24l4 24l28 -3q-2 -15 -6.5 -36.5t-11.5 -43.5q-11 -34 -28.5 -64t-44.5 -38q-7 -2 -14 -3t-14 -1q-43 0 -69 36.5t-26 80.5q0 83 62 136.5t136 69.5q2 0 3.5 0.5t2.5 0.5q15 3 30.5 4t31.5 1q11 0 21 -0.5t20 -1.5q73 -5 146.5 -12 t146.5 -15q29 -2 58.5 -5t58.5 -6v0z" />
<glyph unicode="G" horiz-adv-x="752" d="M748 619q1 -24 -9 -41t-24 -32q-2 -3 -5 -6t-5 -7q-3 -3 -5.5 -6t-5.5 -6q-1 -2 -3.5 -3.5t-4.5 -1.5q-1 -1 -2 -1h-2q-5 0 -9.5 4t-4.5 10v2.5t1 2.5q0 1 1 2.5t2 2.5q3 4 6.5 8t7.5 8q4 3 7.5 7t6.5 8q1 1 2 2.5t2 3.5q0 1 0.5 2.5t0.5 2.5q0 4 -2.5 6t-7.5 3 q-57 4 -110.5 0t-106.5 -15q-29 -6 -57.5 -14t-57.5 -18q-21 -7 -64.5 -22.5t-91.5 -38.5q-64 -29 -117 -68.5t-53 -84.5v-5.5t1 -4.5q0 -2 0.5 -4.5t1.5 -5.5q8 -24 47 -33t87 -9h10.5h10.5q28 1 54 3.5t48 5.5q17 2 30 4t20 3q20 4 49 12.5t61 21.5q21 9 41.5 20t38.5 23 q1 75 10.5 133.5t35.5 64.5q1 0 2.5 0.5t2.5 0.5h2.5h2.5q13 0 22 -8t13 -22q3 -10 4.5 -20t1.5 -21q0 -9 -1 -18.5t-3 -19.5q-8 -36 -26 -70.5t-39 -60.5q1 -21 2 -41l2 -40q0 -19 1 -37.5t2 -34.5l117 5q-1 -4 -3.5 -9.5t-4.5 -10.5q-8 -19 -12.5 -32t-8.5 -22 q-6 -14 -16.5 -17.5t-39.5 -4.5q-6 0 -13.5 -0.5t-15.5 -0.5q-1 -13 -4 -31t-8 -36q-10 -34 -28.5 -62t-48.5 -28h-2h-3q-1 1 -2 1h-3q-27 6 -55 12.5t-56 14.5q-69 20 -135.5 48t-121.5 70l39 86l397 16q0 9 -1 18.5t-1 19.5q-1 20 -2 41.5t-2 43.5q-54 -53 -124.5 -79.5 t-144.5 -27.5h-9.5h-9.5q-19 1 -40 3t-42 7q-56 12 -104 42.5t-56 89.5q-1 7 -1.5 13.5t-0.5 12.5q0 107 107 179t235 111q76 24 147.5 35.5t120.5 12.5q11 0 24.5 -0.5t27.5 -2.5q30 -4 55 -18t25 -47v0zM546 73q-24 0 -49.5 1.5t-51.5 3.5q-9 1 -18 1.5t-18 1.5 q-43 2 -84 2t-78 -9q10 -7 24.5 -15t32.5 -16q19 -9 41 -17.5t44 -15.5q24 -7 46.5 -11t42.5 -4q16 0 29 3t22 10q7 6 10.5 16t4.5 21q1 5 1.5 11t0.5 11v3.5v2.5v0zM599 527q-7 -10 -11 -29.5t-6 -40.5q-1 -19 -1.5 -36.5t-0.5 -28.5q2 4 3.5 8t3.5 9q5 11 8.5 24.5 t6.5 26.5q2 9 3 18t1 17q0 9 -1.5 17t-5.5 15v0z" />
<glyph unicode="H" horiz-adv-x="729" d="M721 258l-28 -86h-26l-9 -129l-83 -29l2 158h-263q-1 -6 -1.5 -11.5t-0.5 -11.5q-5 -45 -14.5 -89.5t-32.5 -84.5q-17 -32 -40 -50.5t-49 -18.5q-60 0 -96 63t-55 140q-12 52 -17 100t-5 76l76 47q3 -20 6 -40.5t7 -41.5q11 -53 26.5 -105.5t36.5 -100.5q2 -5 7 -15.5 t12 -22.5t16 -23.5t18 -15.5q2 0 3.5 -0.5t3.5 -0.5t3.5 0.5t2.5 1.5q6 3 11 8.5t9 11.5l2 4l2 4q21 41 29 85.5t12 90.5h-97l28 86h70l2 354l70 40l-37 -394h256q0 45 0.5 90.5t1.5 90.5q0 45 0.5 90.5t0.5 90.5l123 78l-8 -110t-7 -110l-8 -110l-8 -110h48v0z" />
<glyph unicode="I" horiz-adv-x="632" d="M628 302q-19 -38 -42.5 -67.5t-72.5 -34.5q8 -22 15 -45t15 -45q7 -23 14.5 -45.5t14.5 -45.5q1 -2 1 -3.5v-3.5q0 -6 -4.5 -9t-9.5 -3h-1.5h-1.5q-3 0 -6 2.5t-4 7.5q-14 44 -28.5 87.5t-28.5 87.5q-23 -73 -89 -108.5t-142 -35.5h-2h-2q-76 1 -143 36t-93 102 q-4 10 -5.5 20.5t-1.5 21.5q0 36 21.5 66t62.5 28l82 -2l82 -2l82 -2l82 -2q-43 52 -77 112.5t-34 127.5q1 19 4 38t10 38q13 37 36.5 53.5t53.5 15.5q13 0 27 -3t29 -8l-2 -75q-7 -1 -13.5 -1.5t-13.5 -2.5q7 -75 18.5 -149t28.5 -147l138 -4v0zM442 201q-24 2 -48 3.5 t-48 3.5q-20 1 -40 2.5t-40 3.5q-45 3 -89 5.5t-88 3.5q-17 1 -31.5 -2.5t-14.5 -19.5q0 -2 1 -5.5t2 -7.5q9 -20 50.5 -37t96.5 -23q13 -1 26.5 -2t26.5 -1q9 0 17.5 0.5t17.5 0.5q47 4 90.5 21t70.5 54v0zM461 306q-16 71 -27 142.5t-19 143.5q-20 -11 -34 -31.5 t-19 -42.5q-1 -5 -2 -11t-1 -11q-1 -47 21.5 -83t49.5 -69q7 -9 14.5 -18.5t14.5 -19.5h2v0z" />
<glyph unicode="J" horiz-adv-x="484" d="M478 237q-6 -1 -12.5 -2.5t-12.5 -2.5q-9 -2 -18 -3.5t-19 -3.5q-10 -3 -20.5 -5t-20.5 -5q-1 -5 -1.5 -10.5t-2.5 -10.5l10.5 -10.5t10.5 -11.5q10 -11 20.5 -21.5t20.5 -22.5q1 -1 2 -2.5t1 -2.5q1 -2 1 -3v-3q0 -5 -4.5 -9t-10.5 -4q-2 0 -5 1t-6 4q-11 14 -23 26.5 t-24 25.5l-4 -22l-4 -22q-17 -76 -55.5 -144t-117.5 -97q-13 -5 -26.5 -7t-26.5 -2q-51 0 -88.5 33t-37.5 91q0 103 73 183.5t166 115.5q-8 9 -17.5 19.5t-18.5 22.5q-26 31 -48 68t-21 75q0 8 1 15.5t3 14.5q12 39 45 64t70 44q10 6 20.5 11t20.5 10q9 5 17.5 9.5t15.5 9.5 q1 11 6.5 28t14.5 35q15 30 37 54.5t47 24.5q6 0 12 -1.5t12 -6.5q8 -5 11.5 -12t3.5 -15q0 -11 -6 -23t-16 -25q-8 -10 -18 -20.5t-21 -19.5q-17 -16 -33 -28.5t-23 -18.5q-1 -38 1.5 -76.5t7.5 -76.5v-6t1 -6q4 -36 7 -71.5t3 -70.5q15 0 28.5 -0.5t27.5 -2.5l14 -2l14 -2 l16 -74v0zM340 186l-13 14q-48 -17 -92.5 -40t-88.5 -49q-9 -5 -21.5 -13t-24.5 -17q-18 -14 -34.5 -29.5t-25.5 -31.5q-1 -4 -2.5 -7.5t-2.5 -6.5t-1.5 -6t-1.5 -7v-3.5v-3.5q0 -11 6 -21.5t22 -15.5q8 -3 16.5 -4t16.5 -1q34 0 65 16t56 36q2 1 4.5 2.5t4.5 3.5 q42 36 75.5 82.5t41.5 101.5v0zM350 316q0 36 -3 71.5t-7 71.5v4t-1 4q-3 34 -6 67.5t-4 67.5q-3 -3 -6.5 -5.5t-6.5 -5.5q-42 -36 -77 -76.5t-35 -82.5q0 -9 2.5 -18t6.5 -18q10 -19 23.5 -36.5t27.5 -34.5q1 -1 2.5 -3t3.5 -4q3 -4 6 -7.5t6 -7.5q17 5 34 8.5t34 4.5v0z M444 764q-2 2 -4.5 2.5t-4.5 0.5q-3 0 -6.5 -1.5t-6.5 -3.5q-9 -6 -17.5 -17.5t-16.5 -24.5q-8 -14 -14 -26.5t-8 -17.5q9 6 17.5 12t16.5 13q2 2 8.5 8t14.5 14q3 3 5 5.5t5 4.5q6 7 10 13.5t4 11.5q0 2 -0.5 3.5t-2.5 2.5v0z" />
<glyph unicode="K" horiz-adv-x="747" d="M749 17q-10 -13 -19.5 -25t-19.5 -25q-10 -12 -19.5 -24.5t-18.5 -25.5q-18 20 -36.5 40t-36.5 40q-58 62 -118 122.5t-127 109.5q-11 -57 -29 -101.5t-68 -80.5q-16 -11 -31 -16.5t-29 -5.5q-49 0 -85 50.5t-62 111.5q-15 37 -27 71.5t-21 57.5q9 2 18 3.5t18 3.5 q17 4 35 7.5t35 6.5q21 -65 49 -125.5t61 -119.5q4 -6 7.5 -12t6.5 -12q1 -1 2.5 -1t3.5 2q1 0 2 1l2 2q2 1 2.5 2t0.5 2q10 52 14.5 103t6.5 102q-8 4 -16.5 7t-16.5 5q1 6 1.5 10.5t1.5 7.5q1 8 4 9t12 0h6.5h8.5q1 24 1.5 48.5t0.5 48.5t0.5 48t1.5 48 q-5 -12 -10.5 -24.5t-10.5 -25.5t-10.5 -25.5t-11.5 -24.5q-2 -5 -5.5 -7t-7.5 -2q-5 0 -9.5 4t-4.5 10q0 1 0.5 1.5t0.5 1.5t0.5 1.5t0.5 1.5l111 262l96 27q-6 -48 -11 -96t-9 -96q-4 -43 -8.5 -85.5t-9.5 -85.5q70 37 126.5 99.5t106.5 130.5q19 26 37.5 52t36.5 51 l44 -10q-63 -111 -136.5 -209.5t-197.5 -148.5q54 -21 118 -74t129 -116q9 -8 18 -16.5t17 -17.5q3 -3 6.5 -6t6.5 -6q8 -8 16 -15.5t17 -15.5q8 -8 16 -15.5t16 -15.5v0z" />
<glyph unicode="L" horiz-adv-x="803" d="M806 87q-4 -7 -8.5 -13.5t-9.5 -13.5q-21 -31 -52.5 -46t-66.5 -15q-19 0 -37.5 4t-35.5 12q-66 31 -130.5 59t-128.5 55q-22 -46 -57.5 -78t-86.5 -34h-9.5h-8.5q-53 2 -99.5 30t-62.5 81q-3 11 -4.5 21.5t-1.5 20.5q0 59 44 99.5t108 35.5q16 -2 31.5 -6.5t30.5 -10.5 q7 -2 13.5 -4.5t13.5 -4.5q24 -7 48 -16l48 -18q5 23 7 45t2 43q-40 24 -57 67.5t-25 91.5q-2 10 -4 20.5t-3 20.5q-2 12 -4.5 24t-4.5 23v1.5v1.5q-1 1 -1 1.5v0.5q1 7 5 10t9 3t9 -3t5 -9q0 -2 0.5 -4t1.5 -5q8 -34 22 -67t43 -57q0 23 2.5 49t7.5 52q13 64 46.5 120 t97.5 71q8 2 16 3t15 1q44 -1 67.5 -33.5t31.5 -78.5q2 -14 3.5 -29.5t1.5 -32.5q0 -14 -1 -28t-3 -28q-10 -76 -52.5 -140.5t-122.5 -68.5q-23 -1 -42.5 1.5t-35.5 8.5q-1 -21 -3.5 -42.5t-6.5 -43.5q37 -16 73 -32.5t72 -33.5q25 -12 49 -23.5t48 -23.5q1 -1 2.5 -1.5 t3.5 -1.5q24 -12 51.5 -22.5t56.5 -13.5q6 -1 12 -1.5t12 -0.5h6t6 1q2 0 5 0.5t6 0.5q4 0 8 0.5t8 1.5t8 1.5t8 1.5v0zM311 141q-57 23 -114 46.5t-113 46.5q-1 1 -2 1t-2 1q-2 0 -4 0.5t-4 0.5q-12 -1 -17.5 -11t-5.5 -22q1 -53 45 -83t95 -33h5h4q34 0 64 13t49 40v0z M597 526v3.5t1 3.5v3v3q0 44 -26.5 78t-73.5 34q-58 1 -84 -42.5t-33 -94.5q-3 -21 -3.5 -41.5t-0.5 -37.5q15 -7 32 -11.5t35 -5.5q3 -1 7 -1h7q50 0 92.5 27t46.5 82v0z" />
<glyph unicode="M" horiz-adv-x="810" d="M797 69l-79 -55q-1 1 -2.5 2t-2.5 2q-15 11 -27 24t-13 34q-4 77 -7 155l-6 156l-142 -323q-7 -7 -17.5 -12t-20.5 -10q-4 -1 -7.5 -2.5t-6.5 -2.5q-2 -1 -4.5 -2t-4.5 -2q-17 44 -28 88.5t-10 91.5q1 48 2 95.5t2 94.5t2 94.5t2 95.5v1.5v0.5q0 10 -3.5 17.5t-9.5 6.5 q-2 0 -5 -2t-7 -7q-24 -32 -38 -72t-22 -81q-3 -18 -6 -35.5t-6 -34.5q-1 -6 -2.5 -13t-2.5 -13q-7 -33 -14 -74.5t-18 -85.5q-13 -56 -32.5 -109t-49.5 -86q-19 -19 -43.5 -29t-52.5 -8q-56 5 -80.5 56t-31.5 111q-3 40 -3 77.5t2 61.5l104 45q-1 -22 -1.5 -44.5t0.5 -44.5 q1 -41 6.5 -80.5t18.5 -77.5q2 -5 4.5 -11t5.5 -13q6 -12 15 -22t20 -10q5 0 10 3t10 9q31 39 52 115t38 159l6 32t6 31q1 7 2.5 13.5t2.5 13.5q3 17 6 33.5t6 33.5q9 44 23.5 87t40.5 79q19 26 43.5 47t55.5 32q5 2 10.5 3t9.5 1q21 0 29 -18.5t10 -40.5q1 -10 1 -20v-18 v-0.5v-1.5q0 -83 -1 -166l-2 -166q-1 -28 -1.5 -55.5t-0.5 -55.5q29 65 57.5 130.5t57.5 130.5q3 7 14 15.5t26 17.5q3 2 7 4.5t8 4.5q14 8 26.5 15.5t20.5 12.5q2 -5 5 -10.5t6 -10.5q0 -2 1 -3.5t2 -3.5q4 -8 7 -16t3 -14q1 -28 1 -56.5v-57.5q0 -51 0.5 -102t3.5 -102 q0 -6 2.5 -13t5.5 -13q0 -2 1 -4l2 -4q2 -5 4 -9.5t4 -9.5v0z" />
<glyph unicode="N" horiz-adv-x="645" d="M640 568l-37 -103q-9 6 -16 10.5t-13 4.5q-3 0 -5.5 -1t-4.5 -3t-4.5 -5t-5.5 -8q-3 -6 -5.5 -12.5t-4.5 -13.5q0 -3 -0.5 -6.5t-0.5 -6.5q-1 -41 -2 -81.5t-2 -81.5q-1 -40 -2 -80.5t-2 -81.5l17 -46l-70 -54l-206 458q1 -6 1.5 -11.5t0.5 -10.5q7 -56 12 -112t5 -113 q0 -64 -10.5 -128t-37.5 -125q-15 -35 -34 -51t-41 -16q-11 0 -23 5t-24 15q-8 6 -16 14.5t-16 19.5q-24 32 -43 69.5t-32 76.5l-8 24t-7 24l67 69q3 -8 6 -16.5t6 -16.5q23 -60 54 -116t83 -94q28 59 38.5 122.5t10.5 128.5q0 36 -2.5 73t-6.5 74q-2 18 -4 36.5t-4 37.5 q-5 40 -9.5 80t-6.5 79l72 70q2 -2 4.5 -4t4.5 -4q9 -8 16.5 -17t12.5 -22q21 -56 41.5 -112t40.5 -111q20 -56 40.5 -112t41.5 -112q2 71 3.5 142.5t3.5 142.5v1.5v1.5q2 48 18.5 88t54.5 39q11 0 23.5 -4.5t27.5 -13.5v0z" />
<glyph unicode="O" horiz-adv-x="731" d="M718 428q2 -13 3 -25.5t1 -24.5q0 -128 -94 -226t-219 -119q-14 -2 -29 -3.5t-30 -1.5q-13 0 -26 1t-26 3q-113 15 -205.5 91t-85.5 199q8 115 90 162t179 52q19 1 38 0.5t37 -1.5q11 -1 23 -3t24 -5q22 -6 43.5 -14.5t39.5 -19.5q3 -1 4.5 -3.5t2.5 -4.5v-2v-2 q0 -6 -4 -10.5t-10 -3.5h-2h-2t-2 0.5t-2 1.5q-19 11 -41.5 20t-45.5 14q-7 1 -14.5 2t-15.5 2q-52 4 -103.5 -3t-96.5 -38q-31 -22 -45.5 -50t-14.5 -57q0 -4 0.5 -9t0.5 -9q5 -36 27 -70.5t53 -61.5q52 -44 116.5 -65t132.5 -23h10.5h11.5q69 1 128 28.5t68 106.5 q2 10 2 19.5v18.5q0 65 -29 119t-85 93q-46 32 -95 44t-100 12q-35 0 -71 -4.5t-73 -11.5l-13 23q41 45 99.5 66.5t122.5 20.5h10t10 -1q105 -5 195 -64t108 -163v0z" />
<glyph unicode="P" horiz-adv-x="853" d="M763 269q-59 -42 -128.5 -55.5t-140.5 -15.5q-15 -1 -30 -1.5t-30 -0.5q-11 0 -22 -0.5t-22 -0.5v-62.5v-62.5v-62v-62q0 -8 -4.5 -12t-10.5 -3h-1.5h-0.5q-4 1 -7.5 4.5t-3.5 10.5v16t1 13v23t-2 17q-3 8 -9.5 17.5t-18.5 25.5q-2 3 -4 5.5t-4 4.5t-4 4.5t-4 4.5 q-2 -7 -5 -20.5t-8 -29.5q-5 -20 -13 -36.5t-18 -16.5h-0.5h-0.5q-1 1 -1.5 1h-0.5q-4 1 -6.5 5.5t-2.5 9.5q0 10 4.5 22.5t10.5 26.5q0 2 1 4l2 4q6 15 11.5 29t5.5 22q0 2 -0.5 3t-1.5 2q-27 28 -56 54l-58 52l-2 2l-2 2q-35 31 -69.5 62.5t-66.5 66.5q-19 21 -28 42 t-9 40q0 34 24.5 61t67.5 42q48 16 98.5 27t101.5 17q20 2 39 3.5t38 2.5q3 32 5.5 63t3.5 62q1 8 5.5 11.5t9.5 2.5q5 0 9.5 -3.5t3.5 -11.5q-1 -31 -3.5 -61.5t-4.5 -60.5q30 1 60.5 1t60.5 -2q61 -3 121.5 -13t117.5 -28q50 -15 71.5 -45t20.5 -66q0 -9 -1.5 -18.5 t-3.5 -18.5q-9 -34 -31.5 -66t-53.5 -54v0zM362 120v160q-4 -27 -9.5 -53.5t-11.5 -52.5q4 -8 7.5 -17.5t7.5 -18.5q1 -4 3 -8.5t3 -9.5v0zM363 482q-15 0 -62 -2t-101 -8q-59 -6 -110 -16t-57 -26v-0.5v-0.5v-0.5v-0.5q0 -2 1.5 -4t3.5 -4q1 0 1.5 -0.5l0.5 -0.5 q22 -16 45 -30t47 -27q2 -1 4.5 -2.5t4.5 -2.5q51 -29 99 -62t80 -83q10 45 17.5 90t14.5 90q3 22 6 45t5 45v0zM802 408q-75 30 -155.5 47t-162.5 23q-23 2 -46.5 3t-46.5 1q-5 -46 -11 -91.5t-14 -91.5q21 1 42 1.5t42 1.5q12 0 23.5 0.5t22.5 0.5q78 2 153.5 15t140.5 59 q1 1 2.5 2t2.5 2q3 2 5.5 3.5t4.5 3.5q3 3 5 5.5t2 5.5q0 2 -2.5 4.5t-7.5 4.5v0z" />
<glyph unicode="Q" horiz-adv-x="735" d="M723 91q-13 -19 -27.5 -32.5t-39.5 -18.5q-1 0 -3 -0.5t-3 -0.5q-3 0 -6 -0.5t-6 -0.5q-22 0 -38.5 11t-32.5 26l-4.5 4.5l-4.5 4.5q-3 3 -6 5.5t-6 5.5q-44 -28 -94 -43.5t-103 -15.5q-16 0 -32 1.5t-32 3.5q-109 19 -198 94t-81 196q8 109 92 160.5t184 53.5h16h15 q44 -2 86.5 -11.5t79.5 -32.5q3 -1 4.5 -3.5t2.5 -4.5v-2v-2q0 -6 -4 -10.5t-10 -3.5h-2h-2t-2 0.5t-2 1.5q-19 11 -41.5 20t-45.5 14q-7 1 -14.5 2t-15.5 2q-7 1 -14.5 1h-15.5q-44 1 -87.5 -7.5t-81.5 -34.5q-32 -22 -46.5 -50t-13.5 -57q0 -4 0.5 -8.5t0.5 -8.5 q5 -36 26 -71t53 -61q43 -36 100 -58.5t117 -28.5q12 -1 23.5 -1.5t22.5 -0.5q19 0 36.5 1.5t34.5 4.5l-85 76q17 14 35.5 23t37.5 9q11 0 23 -4t24 -13q8 -6 15.5 -11.5t15.5 -10.5q8 -6 15.5 -11.5t15.5 -11.5q21 22 30 53.5t8 65.5q0 27 -5 53t-13 47q-25 65 -86 107.5 t-129 55.5l-12 2l-12 2q-12 2 -24 2.5t-25 -0.5q-32 0 -68.5 -3.5t-78.5 -11.5l-13 23q41 45 100 66.5t123 21.5h8.5h8.5q105 -6 196 -65t109 -164l2 -12t1 -12q1 -7 1 -13v-12q0 -62 -24.5 -120.5t-68.5 -105.5l96 -70v0z" />
<glyph unicode="R" horiz-adv-x="798" d="M795 -91l-89 -41q-51 56 -95 115.5t-86 120.5q-4 6 -8.5 12t-8.5 12q-12 18 -24.5 36t-25.5 36l-20 -172q-28 29 -56.5 55t-61.5 48q-20 -28 -40.5 -55.5t-40.5 -55.5q-3 -4 -6 -5.5t-6 -1.5q-6 0 -10.5 4t-3.5 10q0 2 1 4.5t2 4.5l80 110q-16 10 -33.5 19t-35.5 19 q-9 4 -17 8l-16 8q-68 34 -125.5 78t-63.5 123q-9 127 80 184t198 75q41 7 80.5 10t73.5 3q27 1 63.5 -1t74.5 -8q71 -11 131 -45t60 -106q1 -108 -72.5 -160t-162.5 -78q-2 0 -4 -0.5t-4 -1.5l272 -364v0zM434 234q-2 2 -3.5 4t-3.5 4q-1 1 -1.5 2l-1.5 3q-3 3 -5.5 6 t-5.5 6l-45 -61q15 -12 29 -25t27 -28l10 89v0zM721 441q4 6 5.5 12t1.5 12q-1 46 -102.5 68t-227.5 21h-10.5h-11.5q-100 -2 -189.5 -17.5t-127.5 -43.5q-12 -9 -17.5 -22t-5.5 -27q0 -18 8 -35t21 -29q17 -15 36.5 -26t40.5 -21l16 -8l16 -8q7 -4 14.5 -8t14.5 -8 q4 -2 7.5 -4t7.5 -4q33 -18 65.5 -36.5t62.5 -41.5l46 63q-8 5 -17 10l-18 10q-5 3 -11 6l-12 6l51 64q16 -2 32.5 -3.5t32.5 -3.5q2 22 4.5 43.5t5.5 43.5q2 21 4.5 42.5t5.5 43.5l28 -3l-20 -171q21 -1 48 0t54 5q43 6 82.5 22t58.5 48v0z" />
<glyph unicode="S" horiz-adv-x="798" d="M791 642q-27 -22 -54.5 -43.5t-55.5 -43.5t-55.5 -43.5t-54.5 -43.5q-1 -1 -2.5 -2t-2.5 -1h-2.5h-2.5q-6 0 -10 4.5t-4 9.5q0 3 1.5 6t4.5 5l46 36t45 35q-22 14 -49.5 19.5t-56.5 5.5q-15 0 -30.5 -1.5t-30.5 -3.5q-37 -5 -72 -15t-65 -21l-22 -8t-20 -8 q-2 -1 -14.5 -6.5t-26.5 -13.5q-7 -3 -13 -6.5t-11 -7.5q-8 -6 -13 -11t-5 -10q0 -1 0.5 -1.5l0.5 -0.5q0 -1 0.5 -1.5l0.5 -0.5q11 -12 61 -22.5t116 -20.5q14 -2 27.5 -4t27.5 -4q27 -4 68 -9t84 -13q60 -12 112.5 -33t69.5 -59q4 -9 5.5 -18t1.5 -18q0 -13 -3 -26t-9 -26 q-14 -33 -41 -65t-56 -58q-19 -15 -37 -27.5t-33 -19.5q-34 -16 -70 -23t-73 -7q-12 0 -24 0.5t-24 2.5q-90 10 -175 52t-149 96q-8 7 -15.5 14t-14.5 14q-21 21 -36.5 41.5t-25.5 39.5q0 1 -0.5 1.5t-0.5 1.5q-1 2 -1 3.5v2.5q0 6 4 10t9 3q2 0 3.5 -0.5t3.5 -0.5 q1 -1 3 -2t3 -3q61 -70 138.5 -113t170.5 -57q6 -1 15.5 -2.5t21.5 -2.5q27 -4 63 -6.5t74 -2.5h5.5h5.5q76 2 138.5 21t63.5 72q1 35 -27.5 53t-63.5 28q-16 4 -31.5 7.5t-28.5 6.5q-28 7 -57 12l-58 10q-36 6 -72 13t-71 17l-20 6t-21 8q-28 10 -52.5 27t-34.5 43 q-1 4 -2.5 7.5t-1.5 7.5q-1 3 -1.5 6.5t-0.5 7.5q0 36 29.5 69.5t64.5 58.5q20 13 38 23t32 16q4 2 8.5 3.5t9.5 3.5q27 10 60 18.5t68 12.5q11 2 22.5 2.5t22.5 0.5q49 0 89 -17.5t56 -61.5q23 19 46.5 37t45.5 36q1 1 2.5 2t2.5 1q1 1 2.5 1h2.5q6 -1 10.5 -5t3.5 -10 q0 -3 -1.5 -6t-4.5 -5v0z" />
<glyph unicode="T" horiz-adv-x="710" d="M706 609l-34 -86q-37 4 -73.5 8t-74.5 8l-8 -124t-7 -124l-8 -124l-8 -124q-1 -7 -5.5 -10.5t-9.5 -3.5h-1.5h-0.5q-5 1 -9 5t-3 11q2 30 4 60.5t4 60.5t4 60.5t4 60.5q-3 -15 -7 -29.5t-8 -29.5q-16 -60 -38.5 -117.5t-56.5 -107.5q-7 -8 -14 -12t-15 -4q-6 0 -12 2.5 t-12 5.5q-12 7 -24 20.5t-23 27.5q-13 18 -22.5 34t-11.5 21q-13 29 -21.5 58.5t-14.5 60.5l85 79q1 -2 1.5 -4.5t0.5 -4.5q13 -56 32 -107.5t67 -89.5q31 65 50.5 136.5t32.5 144.5q8 43 14.5 86t12.5 85l-54 6l-54 6q-28 3 -55 5.5t-54 5.5q-2 -6 -3.5 -12.5t-3.5 -12.5 q-4 -16 -8.5 -33t-9.5 -34q-9 -35 -21.5 -69t-30.5 -62q-13 -21 -30.5 -30t-35.5 -9q-3 0 -6.5 0.5t-6.5 0.5q-20 4 -39 17.5t-33 34.5q-15 22 -26.5 53t-16.5 63q-2 12 -3 24.5t-1 24.5q0 11 1 21t3 19q15 72 70.5 96.5t118.5 24.5h2h2h10h10q16 -1 31 -2.5t29 -3.5 q8 29 16 56.5t16 55.5q2 5 6 7.5t8 2.5q5 0 9.5 -3.5t4.5 -9.5v-1.5v-0.5q0 -1 -0.5 -1.5t-0.5 -1.5q-8 -28 -15.5 -55t-15.5 -53q41 -6 82.5 -13t82.5 -14q58 -9 116 -18.5t116 -17.5v0zM250 567q-43 5 -85.5 8.5t-86.5 6.5q-23 2 -32 -10t-9 -31q0 -10 2.5 -22t5.5 -24 q4 -10 8 -20.5t8 -19.5q6 -14 11.5 -24.5t8.5 -15.5t7 -10.5t8 -11.5q9 -11 20 -21.5t22 -16.5q5 -2 10 -3.5t10 -1.5q9 0 17.5 7.5t14.5 23.5q12 31 22 62l20 62q4 15 9 31t9 31v0z" />
<glyph unicode="U" horiz-adv-x="692" d="M687 161q-5 -5 -9.5 -11t-8.5 -11t-8 -10.5t-8 -10.5q-27 -35 -56.5 -64t-69.5 -29q-15 0 -31.5 5t-34.5 17q-35 23 -54.5 57.5t-27.5 73.5l-8 -14t-8 -15q-27 -45 -68 -82.5t-93 -37.5q-12 0 -24 2.5t-25 7.5q-54 22 -80 79t-30 121q-1 7 -1 14.5v14.5q0 37 6 70.5 t16 59.5l13.5 27t20.5 38q-18 11 -34 27t-31 33q-5 6 -9.5 11t-8.5 10l-5.5 5.5t-4.5 5.5q26 14 51.5 27.5t50.5 26.5q9 -18 18.5 -35t21.5 -34q6 8 14.5 19.5t18.5 23.5q16 18 36 34.5t41 22.5q4 1 8.5 1.5t8.5 0.5h5.5t5.5 -1t5.5 -1.5t5.5 -2.5q14 -7 19 -17.5t5 -23.5 v-6t-1 -5q-1 -9 -4 -17.5t-7 -15.5q-22 -44 -61.5 -76.5t-93.5 -29.5q-5 -25 -8.5 -53t-3.5 -57q0 -39 7 -77t23 -71q12 -24 30 -41t45 -22q5 -1 10 -1.5t9 -0.5q35 0 59 27t39 59q3 6 5.5 11.5t4.5 10.5q-4 62 5.5 123t21.5 122v2v2q3 16 6 31.5t6 30.5l127 72 q-4 -23 -8.5 -47t-9.5 -47q-6 -30 -12 -60.5t-10 -60.5q-4 -28 -6.5 -55t-2.5 -54q0 -16 1 -32t3 -32v-1.5v-1.5q6 -40 24.5 -74t54.5 -33q9 0 19 2.5t21 7.5q12 5 19 12t14 15q4 6 8.5 12.5t10.5 13.5q3 3 6 4.5t6 1.5q6 -1 10 -5t4 -10q0 -2 -1 -4.5t-3 -4.5v0zM258 586 q-3 1 -6 1.5t-6 0.5q-16 0 -30 -13.5t-25 -29.5q-5 -9 -9.5 -18l-7.5 -15q11 -8 20.5 -11.5t17.5 -3.5q18 1 31 14.5t19 30.5q3 6 4 12.5t1 11.5q0 8 -2 13.5t-7 6.5v0z" />
<glyph unicode="V" horiz-adv-x="626" d="M635 587l-6 -96l-104 -33q16 -22 29 -42.5t22 -40.5q12 -27 18.5 -54.5t6.5 -57.5q0 -21 -3 -44t-10 -49q-14 -58 -58 -99.5t-103 -52.5q-8 -1 -16.5 -2t-17.5 -1q-5 0 -10.5 0.5t-11.5 0.5q-37 4 -72 21t-60 42q-46 46 -62.5 101t-16.5 115q0 27 2.5 55t6.5 56 q3 19 6 37.5t6 36.5q5 30 10 59.5t8 57.5v2v3q1 5 1 13t-1 17q0 12 -3 22.5t-10 14.5q-54 -16 -74 -61t-25 -95q-2 -17 -2.5 -34t-0.5 -33l-74 -11q-1 11 -2 22.5t-2 23.5v11.5v11.5v2.5v3.5q1 55 19.5 106t71.5 79q11 5 23.5 8t25.5 3q7 0 15 -1t15 -3q34 -7 64.5 -26.5 t42.5 -46.5q14 -34 20 -70.5t6 -74.5q0 -30 -3 -61t-8 -63q-3 -18 -6 -36.5t-6 -36.5q-6 -39 -12 -77t-9 -75v-10.5t1 -11.5q1 -12 6 -22.5t16 -14.5q8 -3 16 -4.5t17 -1.5q6 0 11.5 0.5t11.5 1.5q20 4 39.5 12.5t31.5 19.5q44 39 74 96t35 118q1 5 1 10.5v10.5q0 29 -7 57 t-23 53l-49 -16l-60 78l249 76v0z" />
<glyph unicode="W" horiz-adv-x="888" d="M882 454l-103 -48q14 -28 22 -58.5t10 -60.5q1 -7 1 -13v-12q0 -55 -19 -107.5t-57 -94.5q-25 -27 -54.5 -43t-60.5 -19q-5 -1 -10.5 -1h-11.5q-48 0 -90 27t-65 80q-31 -34 -70.5 -57t-89.5 -30q-2 0 -4.5 -0.5t-4.5 -0.5q-5 0 -9.5 -0.5t-8.5 -0.5q-77 1 -114 56 t-37 124q0 32 7.5 63.5t23.5 58.5q8 13 31 42t50 64q4 6 8.5 12t8.5 11q27 36 46.5 68.5t19.5 51.5q0 4 -1 7t-3 5q-1 2 -4 2.5t-6 0.5h-3t-3 -1q-2 0 -4 -0.5t-3 -0.5q-2 -1 -4 -1.5t-3 -0.5q-81 -30 -123 -94t-71 -140l-71 60q23 86 69 159.5t143 90.5q6 1 11.5 1.5 t10.5 0.5q22 0 41 -8.5t34 -27.5q17 -19 24 -43t6 -50q0 -24 -5 -49.5t-14 -51.5q-11 -32 -25.5 -63t-30.5 -60q-17 -31 -32.5 -58t-26.5 -46q-2 -4 -9 -16t-16 -26l-2 -4l-2 -4q-8 -14 -14.5 -27.5t-6.5 -19.5v-1.5t1 -1.5q13 -13 27.5 -19t30.5 -6q12 0 25 3t26 9 q27 11 53.5 30.5t48.5 41.5q15 14 27 28.5t20 25.5q-1 9 -2.5 29t-1.5 46q0 20 1 42.5t4 45.5q6 64 26.5 117t63.5 52h3.5h2.5q12 -1 22.5 -15.5t14.5 -43.5q3 -19 4.5 -37.5t1.5 -37.5q0 -74 -23.5 -145.5t-68.5 -134.5q11 -30 29.5 -43.5t48.5 -13.5q7 0 14.5 1t15.5 2 q94 14 142 84.5t47 157.5q0 20 -2.5 40t-7.5 40q-3 9 -15 13.5t-26 7.5q-14 4 -26.5 9t-14.5 15q-3 17 -6 33.5t-6 33.5l212 20l13 -75v0zM489 484h-0.5h-0.5h-0.5h-0.5h-1.5t-1.5 -1q-5 -2 -10 -8.5t-9 -14.5q-4 -6 -6 -12l-3 -9q-7 -24 -11 -50.5t-6 -53.5 q-1 -22 -0.5 -43.5t1.5 -42.5q5 9 13 25.5t16 37.5q5 12 9.5 24.5t8.5 25.5q8 25 13.5 48t5.5 41q0 14 -4 23t-13 10v0z" />
<glyph unicode="X" horiz-adv-x="689" d="M671 160q3 -73 -50 -115t-119 -42h-7.5t-6.5 1q-4 0 -7.5 0.5t-7.5 0.5q-99 16 -160.5 84.5t-86.5 162.5q-25 -32 -50 -63.5t-50 -63.5t-50 -63.5t-50 -62.5q-3 -3 -6 -4.5t-6 -1.5q-5 0 -9.5 3.5t-3.5 9.5q0 2 1 4.5t2 4.5l213 272q-7 36 -9 73t-3 74q0 8 -0.5 16.5 t-0.5 17.5q0 28 -1 56.5t-3 56.5q-1 6 -2 15.5t-4 18.5q-3 13 -8.5 25t-14.5 16q-41 -13 -55 -46.5t-14 -72.5v-10.5t1 -11.5q1 -16 3 -31.5t4 -29.5q1 -5 2 -10.5t2 -10.5l-73 -11q-8 26 -15 56t-9 61v7v8q0 38 14 72.5t50 55.5q11 6 23 8.5t25 2.5q9 0 18.5 -1t18.5 -4 q35 -8 66 -27.5t45 -42.5q25 -40 38 -86t20 -95l190 242l109 -108l-71 -86l-89 84l-134 -172q3 -32 4 -65l2 -66q0 -6 0.5 -12t0.5 -11q1 -30 2.5 -59.5t5.5 -58.5q1 -4 1.5 -8.5t2.5 -9.5q4 -14 12 -26.5t21 -17.5q11 -4 21 -6t20 -2q55 1 92.5 49t41.5 105v7.5v6.5 q0 25 -8 48t-25 42q-1 2 -2 3t-2 3q0 1 -0.5 2.5t-0.5 2.5q1 6 5.5 10t10.5 4l6 -2t5 -3q9 -7 17.5 -14t16.5 -14q33 -28 56 -60t25 -85v0z" />
<glyph unicode="Y" horiz-adv-x="609" d="M609 60l-36 -90q-19 -2 -39 -3.5t-40 -2.5q-1 -13 -4 -31t-8 -36q-9 -35 -27 -63t-48 -28h-5t-6 1q-27 6 -55.5 12.5t-56.5 14.5q-69 19 -135.5 47.5t-120.5 71.5l39 84l397 17q-1 23 -1.5 45t-1.5 44q-25 -22 -56.5 -32.5t-64.5 -10.5h-5.5h-4.5q-33 2 -64.5 14.5 t-55.5 35.5q-40 38 -55.5 83.5t-14.5 94.5q0 23 2.5 46t5.5 47q2 15 5 30t5 30q4 23 8 46.5t7 45.5v1.5v1.5q1 4 1 10.5v13.5q-1 9 -3 17t-7 12q-49 -14 -66 -53.5t-20 -83.5q-1 -11 -1.5 -22t-0.5 -22l-68 -9q-1 14 -2.5 28.5t-1.5 29.5q0 48 17 91.5t65 66.5q9 5 20 7 t23 2q6 0 12.5 -0.5t12.5 -1.5q31 -5 58 -21.5t38 -40.5q13 -28 18 -57.5t5 -60.5q0 -26 -3 -52.5t-8 -53.5q-2 -13 -4 -25.5t-4 -25.5q-6 -33 -11.5 -65t-7.5 -62q-2 -28 10.5 -39.5t33.5 -10.5q7 0 14.5 1t14.5 2q59 11 91.5 56t49.5 97q5 14 7 41.5t3 60.5q0 5 0.5 9.5 t0.5 9.5q0 7 0.5 13.5t0.5 13.5q3 61 13 111.5t39 50.5h1.5h1.5q1 -1 1.5 -1h1.5q18 -4 25.5 -21.5t7.5 -43.5q0 -20 -4 -43.5t-10 -47.5q-5 -19 -10.5 -38t-11.5 -36q-10 -27 -18.5 -47.5t-13.5 -29.5q1 -31 2 -62.5t2 -62.5q1 -32 2.5 -63t2.5 -63l116 5v0zM466 -38 q-25 1 -51 2.5t-53 3.5q-7 0 -14.5 0.5t-14.5 1.5q-44 3 -86 2.5t-80 -9.5q10 -7 24.5 -14.5t32.5 -16.5q19 -8 40.5 -16.5t43.5 -15.5q23 -7 46 -11.5t43 -4.5q17 0 30 3t22 11q8 6 11 16.5t5 21.5q0 5 0.5 10.5t0.5 10.5v2.5v3.5v-1zM513 554h-1.5h-0.5q-12 0 -17.5 -27 t-7.5 -59q-2 -26 -2 -49v-33v-3.5v-1.5l4 10.5t9 23.5q4 12 7.5 22t4.5 11q1 3 2.5 8t3.5 12t3.5 15t2.5 16q2 7 2.5 14.5t0.5 13.5q0 11 -2.5 18.5t-8.5 8.5v0z" />
<glyph unicode="Z" horiz-adv-x="794" d="M797 -21q-27 -40 -60.5 -64.5t-74.5 -24.5q-17 0 -35.5 4.5t-38.5 13.5q-77 36 -151.5 67.5t-148.5 62.5q-6 -6 -12 -13l-12 -14q-33 -33 -75.5 -61.5t-87.5 -25.5q-49 4 -71.5 41t-24.5 81v2.5v3.5q0 19 3.5 37t10.5 33q19 41 49.5 57t66.5 15q17 0 35 -3t36 -7 q20 -6 40 -13t39 -14q13 -5 25.5 -10.5t23.5 -9.5l88 107h-92l44 47h88l155 187q-37 -3 -74.5 -4t-74.5 0q-38 1 -75 4.5t-75 9.5q-3 -9 -12 -43t-23 -73q-15 -41 -36 -76t-47 -41q-3 -1 -6 -1.5t-5 -0.5q-3 -1 -6 -1h-6q-49 1 -79.5 46.5t-42.5 100.5q-5 19 -7 37.5 t-2 35.5q0 11 1.5 21t2.5 18q12 58 60.5 90t104.5 36h7.5h6.5q11 0 22.5 -1.5t21.5 -3.5q17 -4 26 -5.5l15 -2.5q2 0 3.5 -0.5t2.5 -0.5t2 -0.5t2 -0.5q0 1 0.5 2.5t0.5 2.5q2 9 5 22t11 41q0 1 0.5 1.5l0.5 0.5q1 3 3 5.5t6 2.5h4t4 -1q5 -1 7 -6t2 -12q0 -6 -1.5 -13 t-3.5 -14q-1 -3 -2 -6.5t-2 -6.5q-2 -8 -4.5 -14.5t-3.5 -10.5q23 -5 46.5 -9.5t47.5 -8.5q70 -12 140.5 -20t141.5 -13l-228 -274h82l-44 -47h-78l-98 -118q62 -26 122.5 -55t120.5 -58q23 -11 43.5 -18.5t39.5 -12.5q14 -3 28.5 -5t29.5 -2q12 0 25 1.5t27 3.5v-1zM261 50 q-45 19 -90 37.5t-91 37.5q-4 2 -7 2.5t-6 0.5q-13 0 -20 -12t-6 -29q0 -7 1 -14t3 -14q6 -21 21.5 -40t41.5 -24q3 -1 6.5 -1.5t7.5 -0.5q4 -1 7.5 -1h6.5h4.5h4.5q27 2 53 11.5t45 26.5q5 5 9.5 10t8.5 10v0zM290 493q-37 8 -77.5 17.5t-85.5 21.5q-4 2 -8 2h-8 q-17 0 -24.5 -12t-7.5 -32q0 -16 4.5 -35.5t12.5 -39.5q12 -32 31 -61.5t39 -45.5q8 -6 16 -9t15 -3t13 3t12 10q18 29 35.5 79t32.5 105v0z" />
<glyph unicode="[" />
<glyph unicode="\" horiz-adv-x="149" d="M164 -130h-36l-120 770h36l120 -770v0z" />
<glyph unicode="]" />
<glyph unicode="^" />
<glyph unicode="_" horiz-adv-x="455" d="M463 -38h-465v36h465v-36v0z" />
<glyph unicode="`" horiz-adv-x="276" d="M242 720l-10 -24q-41 12 -82.5 24t-83.5 24q-13 4 -19 13.5t-6 19.5q0 14 9.5 25.5t24.5 11.5q5 0 9.5 -1.5t9.5 -4.5q18 -11 36.5 -22t37.5 -22t37.5 -22t36.5 -22v0z" />
<glyph unicode="a" horiz-adv-x="369" d="M397 190q-29 -32 -58.5 -64.5t-58.5 -65.5q-13 -15 -28 -24.5t-35 -9.5q-27 0 -46.5 17t-30.5 40q-1 -2 -2 -4.5t-3 -4.5q-10 -18 -27 -33.5t-38 -14.5h-0.5h-1.5h-1.5h-0.5q-28 3 -45.5 36.5t-17.5 82.5q0 8 0.5 15.5t1.5 14.5q1 12 4.5 28.5t9.5 33.5q12 31 31.5 57.5 t49.5 26.5h3.5h2.5q5 0 8.5 -1.5t7.5 -3.5q2 -1 4 -2.5t4 -2.5v11h128v-245l0.5 0.5l0.5 0.5v0.5v0.5q15 16 29.5 32.5t29.5 32.5q14 16 28.5 32.5t29.5 32.5q2 3 5 4.5t6 0.5q6 0 10 -4t4 -10v-2.5t-1 -2.5q0 -1 -1 -2.5t-2 -2.5v0zM131 139v126l-2 4t-2 5q-3 5 -7.5 10 t-10.5 5q-16 0 -23 -19.5t-7 -45.5v-6t1 -6q2 -30 12 -55.5t27 -24.5h2t2 1q2 1 4.5 2.5t3.5 3.5v0z" />
<glyph unicode="b" horiz-adv-x="294" d="M259 285q7 -13 10 -28.5t3 -32.5q0 -11 -1.5 -22.5t-3.5 -22.5q-13 -57 -52 -105t-90 -47h-2h-2h-2h-2v-1q-61 6 -86.5 71.5t-25.5 162.5q0 22 1.5 45.5t3.5 47.5q6 66 20.5 124t33.5 101l8.5 17t10.5 19q14 24 35.5 44t47.5 20h5t6 -1q18 -4 28 -29.5t10 -64.5 q0 -16 -2 -34.5t-6 -38.5q-2 -12 -7.5 -32.5t-14.5 -41.5q-13 -33 -33 -60.5t-46 -27.5q0 -10 0.5 -20.5t1.5 -20.5t1.5 -20.5t1.5 -20.5q17 21 40 38.5t51 17.5q19 0 33.5 -10t23.5 -27v0zM208 117q9 12 13 27t4 31v4v5q-1 13 -5.5 25t-11.5 22q-5 7 -10.5 11.5t-11.5 6.5 q-4 2 -7.5 2.5t-7.5 0.5q-17 0 -31.5 -13.5t-20.5 -33.5q2 -12 3.5 -23.5t3.5 -23.5q3 -12 5 -23.5t5 -23.5q8 -8 16.5 -12t17.5 -4q11 1 20.5 6.5t17.5 15.5v0zM180 516q5 23 7 43t2 36q-1 18 -3 31t-7 19q-2 -1 -3.5 -1h-3.5q-31 -2 -49 -78t-17 -190q16 0 29.5 22.5 t24.5 49.5q8 22 13 41t7 27v0z" />
<glyph unicode="c" horiz-adv-x="289" d="M314 204q-20 -27 -42 -53.5t-46 -50.5l-10.5 -10.5t-12.5 -11.5q-21 -19 -46.5 -35t-51.5 -17h-4h-4q-46 4 -71.5 53.5t-21.5 119.5q1 14 4 29t8 31q14 42 43.5 77t73.5 35q21 0 36.5 -9.5t29.5 -24.5l-28 -85q-2 2 -3.5 4t-3.5 5q-13 16 -28 30.5t-35 21.5 q-7 -15 -11.5 -31.5t-4.5 -33.5q0 -25 9 -49t27 -42q13 -13 28.5 -19.5t31.5 -6.5q15 0 29.5 6t27.5 18l7.5 7.5l7.5 7.5q13 14 22.5 28t16.5 23l3.5 3.5t3.5 1.5q1 1 3 1h3q5 0 9 -4t4 -10q0 -2 -1 -4.5t-3 -4.5v0z" />
<glyph unicode="d" horiz-adv-x="362" d="M400 209q0 -15 -4 -31.5t-12 -34.5q-17 -40 -48.5 -74.5t-66.5 -41.5q-3 0 -6.5 -0.5t-6.5 -0.5q-33 0 -51 24t-24 53q0 2 -0.5 4t-0.5 4q-13 -29 -38.5 -53.5t-52.5 -30.5q-4 0 -7.5 -0.5t-6.5 -0.5q-16 0 -31 10t-27 32q-10 17 -13.5 37t-3.5 42v13.5t1 12.5 q3 33 15.5 64.5t29.5 53.5q14 19 34.5 33t43.5 14h5.5t5.5 -1q3 0 5.5 -1t5.5 -2q-4 29 -8 57.5t-9 56.5q-2 14 -3 28t-1 27q0 66 22 108t49 58q5 3 11 5t11 3q3 1 6 1h5q33 0 52.5 -29t29.5 -63q4 -18 6.5 -36t2.5 -31t-1.5 -27.5t-4.5 -29.5q-7 -29 -21 -55.5t-39 -39.5 q5 -29 9.5 -58t9.5 -57q5 -29 9.5 -58t9.5 -58q2 -14 9 -21t16 -7q7 1 13.5 5t11.5 12q8 12 14.5 26t11.5 29q2 7 3 14.5t1 14.5q0 8 4.5 11.5t10.5 3.5h1.5h0.5q4 -1 7.5 -4.5t3.5 -10.5v0zM169 185l-15 100q-7 12 -15.5 18.5t-16.5 6.5q-7 0 -14 -6t-13 -17 q-7 -13 -10.5 -30t-3.5 -34q0 -20 4.5 -39t13.5 -34q8 -13 15 -18.5t14 -5.5q12 0 22 14t15 31q2 3 2.5 7t1.5 7v0zM253 637q-1 2 -3.5 3t-4.5 1q-12 0 -17 -16t-5 -41q0 -15 1.5 -32t3.5 -34l4 -28t4 -27q4 -24 8 -42.5t5 -23.5q22 17 32.5 50.5t10.5 70.5v2.5v3.5 q-1 34 -10.5 65t-28.5 48v0z" />
<glyph unicode="e" horiz-adv-x="281" d="M333 236q-1 -6 -2 -12.5t-2 -12.5q-18 -69 -77.5 -127t-132.5 -58h-3t-4 1h-3h-4q-46 4 -75 45.5t-28 102.5v6.5v6.5t0.5 6.5t0.5 6.5q3 34 16 63.5t31 51.5q2 2 4 4.5t4 4.5q17 19 39 34t47 15h6t6 -1q26 -6 39 -26.5t16 -43.5q0 -4 0.5 -8.5t0.5 -8.5q0 -9 -1 -18.5 t-3 -19.5q-7 -32 -25.5 -61t-46.5 -45q9 -6 18.5 -10t19.5 -6q5 -1 9.5 -1.5t9.5 -0.5q20 1 39 9t35 24q16 15 26 36t12 46q1 7 5.5 10.5t9.5 3.5q1 0 2 -0.5l1 -0.5q4 -1 7.5 -4t2.5 -9v-1.5v-1.5v0zM150 274q0 3 -0.5 8t-1.5 10q-3 9 -8 16.5t-14 7.5q-19 0 -28 -13.5 t-12 -30.5l-2 -10t-1 -9v-2.5v-3.5q-1 -1 -1 -2.5v-3.5q1 -19 7 -37t16 -33q17 16 28.5 38t14.5 45q1 5 1.5 10t0.5 10v0z" />
<glyph unicode="f" horiz-adv-x="285" d="M301 575v-4v-5q-1 -8 -5 -16t-13 -11q-1 0 -2 -0.5t-2 -0.5h-2h-2q-15 1 -28 16t-17 34q0 3 -0.5 6.5t-0.5 6.5q0 7 2.5 13.5t6.5 10.5h-2.5h-3.5q-22 0 -31.5 -19t-11.5 -43q-1 -13 -1 -25.5t1 -21.5v-1.5v-0.5q2 -48 3.5 -96t2.5 -96h14.5h20.5h20.5h14.5q7 0 10.5 -4 t4.5 -9v-0.5v-1.5q0 -5 -3.5 -9.5t-11.5 -4.5h-14h-20h-20.5h-14.5q1 -31 2 -62.5t2 -63.5q1 -31 2 -62.5t2 -63.5q2 -44 -7.5 -81.5t-25.5 -65.5q-10 -20 -23 -35t-26 -25t-25.5 -15.5t-23.5 -5.5q-39 0 -52.5 38t-13.5 84v1.5v1.5q0 22 2 42.5t5 36.5q1 6 1.5 10.5 t1.5 8.5q11 50 31.5 92t48.5 63l-1 102h-14.5h-15.5q-7 0 -10.5 4t-4.5 9v0.5v1.5q0 5 4 9.5t11 4.5h29v12v12q-1 60 3 118t33 113q19 35 45 55.5t57 20.5t47.5 -22.5t19.5 -50.5q1 -1 1 -2.5v-2.5v0zM102 -54q0 27 -0.5 52.5t-1.5 51.5t-1.5 52.5t-0.5 52.5 q-18 -21 -31.5 -54t-21.5 -71q-4 -16 -7 -35.5t-4 -39.5v-9v-8q0 -22 3.5 -42.5t13.5 -36.5q4 -6 7.5 -8.5t6.5 -1.5q5 0 9 4t8 10q9 13 14.5 34.5t5.5 49.5v-1z" />
<glyph unicode="g" horiz-adv-x="343" d="M394 251q-31 -33 -62.5 -65.5t-63.5 -64.5v-61.5v-60.5q0 -40 -9.5 -71t-24.5 -53q-14 -19 -36.5 -36t-46.5 -22q-4 0 -7.5 -0.5t-7.5 -0.5q-15 0 -28.5 7.5t-24.5 24.5q-7 13 -11 28t-3 32q0 6 0.5 12.5t1.5 13.5q4 28 13.5 54t21.5 45q-4 -1 -9.5 -2t-10.5 -1h-2.5 h-3.5q-34 4 -55 42t-20 93v13.5t1 13.5q1 12 4.5 25.5t8.5 26.5q15 41 46 74.5t73 33.5q4 0 8.5 -0.5t8.5 -1.5v2h112v-48t1 -47v-48v-48q26 28 52.5 55t53.5 54q2 1 3 2t3 2q1 0 2.5 0.5t2.5 0.5q6 0 10 -4.5t4 -9.5q0 -1 -0.5 -2.5t-0.5 -2.5q-1 -1 -2 -2.5t-2 -2.5v0z M158 -63v31v29t-0.5 29t-0.5 30q-25 -31 -42.5 -69.5t-17.5 -78.5q0 -3 1 -11t3 -17q2 -11 7.5 -20t13.5 -9q15 0 22.5 14.5t10.5 31.5q2 12 2.5 23.5t0.5 17.5v-1zM156 182q0 24 -6.5 47.5t-21.5 43.5l-2.5 4t-7.5 8q-5 5 -11.5 8.5t-13.5 3.5q-6 0 -11 -3.5t-10 -12.5 t-7.5 -20.5t-2.5 -23.5q0 -5 0.5 -10t1.5 -11q3 -19 10 -37.5t16 -30.5q10 -13 18.5 -18t15.5 -5q14 0 22.5 16.5t9.5 40.5v0z" />
<glyph unicode="h" horiz-adv-x="374" d="M409 221q-12 -18 -23.5 -36.5t-22.5 -36.5q-11 -19 -22.5 -37.5t-23.5 -36.5q-12 -19 -28 -32t-33 -18q-5 -2 -11 -3t-11 -1q-22 0 -39 17.5t-21 54.5q-2 26 -4.5 52.5t-5.5 52.5l-48 -98l1 -73h-113v106v106t-0.5 106t-0.5 106q0 47 9.5 83.5t24.5 62.5l2 4t3 4 q13 21 35 39.5t45 23.5q3 0 6.5 0.5t7.5 0.5q15 0 28.5 -8t23.5 -28q7 -13 10 -27t4 -29q1 -3 1 -6.5v-7.5q0 -12 -1 -23t-3 -22q-7 -50 -29 -98t-55 -86l1 -171q7 15 14.5 29.5t14.5 29.5t14.5 29.5t14.5 29.5q8 17 22 29t33 12h4.5t4.5 -1q14 -2 25.5 -12t12.5 -24 q2 -24 4.5 -48.5t4.5 -48.5t4.5 -48.5t4.5 -48.5q11 18 22.5 36.5t23.5 36.5q11 18 22.5 36.5t22.5 36.5q3 5 6.5 7t7.5 1q5 0 9 -4.5t4 -10.5q0 -1 -0.5 -3.5t-2.5 -4.5v0zM174 560q0 3 -1 13.5t-3 22.5q-3 13 -7.5 24.5t-12.5 11.5q-14 0 -21.5 -17.5t-11.5 -38.5 q-2 -16 -3 -31t-1 -21q0 -18 0.5 -36.5t0.5 -36.5v-36.5v-36.5q24 34 39.5 75t19.5 83q0 6 0.5 12t0.5 12v0z" />
<glyph unicode="i" horiz-adv-x="181" d="M217 209q-28 -46 -57 -91.5t-58 -91.5h-77q-1 36 -2 71.5t-1 71.5q-1 35 -2 70.5t-2 71.5q29 14 57.5 28t56.5 27v-59.5v-59.5t0.5 -59.5t0.5 -59.5l30 48l30 48q2 4 5.5 5.5t7.5 1.5q6 0 10 -4t4 -10q0 -1 -0.5 -3.5t-2.5 -4.5v0zM159 482q0 -33 -23 -56.5t-56 -23.5 t-56.5 23.5t-23.5 56.5t23.5 56.5t56.5 23.5t56 -23.5t23 -56.5v0z" />
<glyph unicode="j" horiz-adv-x="291" d="M341 197l-140 -134v-52v-53q1 -29 -9 -52t-27 -40q-13 -14 -33.5 -25t-42.5 -15q-5 -1 -9.5 -1.5t-9.5 -0.5q-16 0 -30 6t-25 20q-7 10 -10 21t-3 22q0 3 0.5 6.5t0.5 7.5q1 4 1.5 7.5t1.5 6.5q8 34 32.5 58.5t52.5 42.5q-1 74 -1.5 148t-1.5 147q29 10 56.5 19.5 t55.5 19.5q1 -64 1 -127.5v-126.5q15 14 30 28.5t30 29.5q15 14 30 28.5t30 28.5q2 1 3 2t3 2q1 0 2.5 0.5t2.5 0.5q6 -1 10 -5.5t4 -9.5q0 -1 -0.5 -2.5t-0.5 -2.5q-1 -1 -2 -2.5t-2 -2.5v0zM92 -86q-1 20 -1 38.5v36.5q-23 -17 -42 -41t-19 -55q0 -3 0.5 -6t1.5 -6 q2 -9 7.5 -16.5t15.5 -7.5q17 0 25 12.5t11 28.5q0 4 0.5 8.5t0.5 8.5v-1zM224 482q0 -33 -23 -56.5t-56 -23.5t-56.5 23.5t-23.5 56.5t23.5 56.5t56.5 23.5t56 -23.5t23 -56.5v0z" />
<glyph unicode="k" horiz-adv-x="386" d="M416 179q-5 -7 -9.5 -14.5t-9.5 -14.5q-1 -2 -2.5 -4.5t-3.5 -4.5q-12 -20 -24.5 -39t-26.5 -37q-19 -24 -42.5 -39.5t-48.5 -15.5q-17 1 -33.5 9t-31.5 27q-5 7 -10.5 14t-11.5 14q-11 14 -21.5 28t-22.5 28l1 -104h-112q0 53 -0.5 106t-0.5 106v106v106q0 47 9.5 83.5 t23.5 62.5q15 26 31.5 42.5t34.5 23.5q7 3 14.5 4.5t14.5 1.5q29 0 50 -27.5t21 -80.5q0 -10 -0.5 -20t-2.5 -19q-6 -52 -29 -101t-56 -87l1 -95q3 8 8.5 18t12.5 20q14 21 33.5 40t40.5 24q2 0 5 0.5t6 0.5q7 0 13.5 -1.5t12.5 -6.5q13 -9 18 -22.5t5 -30.5q0 -8 -1.5 -17 t-3.5 -18q-5 -20 -13.5 -39t-18.5 -33q-2 -4 -4.5 -7.5t-5.5 -6.5l102 -61l16 24t16 25q8 12 16.5 24t16.5 24q2 3 4 4.5t4 1.5q1 1 2 1h2q6 0 10 -4t4 -10q0 -2 -0.5 -4.5t-2.5 -4.5v0zM172 243q-17 0 -25.5 -13.5t-11.5 -30.5q-2 -9 -2.5 -17.5t0.5 -14.5h1.5h1.5h0.5h1.5 q18 0 31 12t19 27q1 5 2 9.5t1 8.5q0 8 -4.5 13.5t-14.5 5.5v0zM165 619q-2 5 -4.5 7.5t-5.5 4.5q-1 0 -2.5 0.5t-2.5 0.5q-6 0 -11.5 -6.5t-10.5 -17.5q-7 -16 -10 -37.5t-3 -46.5q0 -18 0.5 -36.5t0.5 -36.5v-36.5v-36.5q2 3 4.5 7t4.5 8q14 23 27 53.5t20 61.5 q3 13 4.5 26t1.5 26q0 17 -3 31.5t-10 27.5v0z" />
<glyph unicode="l" horiz-adv-x="225" d="M246 164l-26.5 -26.5t-26.5 -27.5q-14 -13 -27 -26.5t-27 -27.5q-13 -13 -29.5 -21.5t-34.5 -8.5q-6 0 -12 1.5t-12 3.5q-22 9 -32.5 29t-12.5 42q-1 3 -1 6v6v168t-1 168q0 47 9.5 83.5t24.5 62.5q2 4 4.5 7.5t5.5 7.5q15 22 37.5 40t48.5 18h2h2q1 -1 2 -1h2 q28 -4 41.5 -26t17.5 -47q2 -9 2.5 -18t0.5 -17q0 -9 -0.5 -17.5t-1.5 -17.5q-6 -52 -29 -102.5t-58 -89.5q1 -52 1.5 -104.5t0.5 -104.5q0 -12 4.5 -19.5t11.5 -6.5q4 0 8 2.5t9 6.5q9 10 18.5 19.5l19.5 19.5q10 9 19.5 18.5t18.5 19.5q1 1 2.5 2t2.5 2q1 0 2.5 0.5 t2.5 0.5q6 0 10 -4.5t4 -10.5v-2.5t-1 -2.5q0 -1 -1 -2.5t-2 -2.5v0zM172 521q2 10 3 21t1 22v3.5v3.5q-1 16 -5 31.5t-14 25.5l-2 2t-2 1q-1 1 -2 1h-2q-5 0 -9.5 -4.5t-7.5 -9.5q-2 -3 -3.5 -5.5t-2.5 -4.5q-6 -16 -9 -37.5t-3 -46.5v-36.5t1 -36.5v-36.5v-36.5 q23 32 37.5 68.5t19.5 74.5v0z" />
<glyph unicode="m" horiz-adv-x="576" d="M633 218q-3 -13 -20 -39.5t-40 -55.5q-14 -17 -29.5 -33.5t-31.5 -30.5q-2 -2 -4.5 -4t-4.5 -4t-5 -4t-5 -4q-11 -8 -24 -15t-27 -11q-4 -1 -8.5 -1.5t-8.5 -0.5q-8 0 -15.5 2.5t-15.5 8.5q-10 9 -16.5 25t-8.5 41q-3 26 -5.5 52.5t-4.5 52.5l-51 -104l3 -67h-115l-9 172 l-91 -172h-88q-2 73 -3.5 146t-3.5 146l118 -7l3 -176q10 18 19.5 36.5t19.5 36.5q9 18 18.5 36.5t19.5 36.5q9 17 23.5 28.5t33.5 11.5h4.5t4.5 -1q14 -3 24.5 -13t11.5 -24q0 -16 0.5 -32.5t1.5 -32.5q1 -17 1.5 -33t1.5 -33q16 32 31.5 64.5t31.5 63.5q8 18 24 29.5 t33 11.5q8 0 16 -3t15 -9q5 -4 8 -9t5 -11q0 -1 0.5 -2.5t0.5 -2.5q5 -52 9.5 -103.5t9.5 -103.5q15 13 30 28t28 31q23 28 39 52.5t18 35.5q1 5 4 7.5t6 3.5h1.5h1.5q6 0 10.5 -4t4.5 -10v-1.5v-1.5v0z" />
<glyph unicode="n" horiz-adv-x="420" d="M431 220q-14 -18 -27.5 -36.5t-27.5 -36.5q-14 -19 -27.5 -37.5t-27.5 -36.5q-13 -18 -31 -30.5t-37 -18.5q-7 -2 -13.5 -3t-13.5 -1q-24 0 -42 17t-20 55q-1 12 -1.5 24t-1.5 24q-1 11 -1.5 23t-1.5 24l-65 -137l-92 -23q1 34 1.5 67.5t1.5 67.5q0 34 0.5 67.5t1.5 67.5 l105 40l6 -169q7 14 13.5 28t13.5 28t13.5 28t12.5 28q8 15 17.5 24t19.5 13q5 2 10.5 3t10.5 1q21 -1 38 -14.5t18 -36.5q3 -46 6 -91.5t6 -91.5q20 24 38.5 49t36.5 51q2 3 4.5 6t4.5 6q7 10 14 19.5t14 18.5q3 4 6 5.5t6 0.5q6 0 10.5 -4t3.5 -10q0 -2 -0.5 -4.5 t-2.5 -4.5v0z" />
<glyph unicode="o" horiz-adv-x="335" d="M383 233q-2 -3 -3.5 -5.5t-3.5 -4.5q-22 -30 -56.5 -55t-72.5 -25h-2.5t-2.5 1h-3h-3q-7 -19 -16.5 -36t-22.5 -33q-17 -20 -38.5 -33t-43.5 -15q-3 -1 -5.5 -1h-5.5q-21 0 -41 11t-35 35q-13 20 -18.5 42t-5.5 46q0 5 0.5 10.5t0.5 10.5q4 36 18 69.5t36 57.5 q20 23 44 35.5t50 12.5q47 0 70 -35t27 -76v-5.5v-5.5v-15t-1 -16q0 -8 -1.5 -15.5t-3.5 -15.5h2.5h2.5q27 0 52.5 17.5t42.5 38.5q5 5 8.5 10t6.5 10q2 4 5.5 5.5t7.5 1.5q6 0 10 -4t4 -10q0 -1 -0.5 -3.5t-2.5 -4.5v0zM202 146q5 4 7 10t2 13q0 6 -1 12t-3 13l-6 14l-6 14 q-4 6 -7 11t-5 8q-3 4 -8 10t-12 12q-6 6 -13 11.5t-14 9.5q-6 3 -12 5t-11 2q-4 -1 -7.5 -2t-6.5 -3q-5 -4 -7.5 -10t-1.5 -14q0 -5 1 -10.5t2 -11.5q3 -8 6 -16.5t7 -15.5q3 -6 6 -10.5l5 -7.5q3 -4 8.5 -10t11.5 -12q7 -6 14.5 -11.5t15.5 -9.5q5 -3 10.5 -4.5t10.5 -1.5 q4 1 7.5 2t6.5 3v0z" />
<glyph unicode="p" horiz-adv-x="362" d="M388 204q-22 -16 -44 -31.5t-43 -30.5q-22 -16 -44 -31.5t-44 -31.5q-1 -1 -2 -1.5l-1 -0.5q-15 -11 -32.5 -20t-36.5 -13q-7 -1 -13.5 -1.5t-12.5 -0.5q-1 -29 -2 -57.5t-2 -57.5q-2 -29 -3 -58l-2 -58l-103 -22q2 133 4.5 264.5t4.5 263.5l114 46l-3 -80l134 72 q21 -26 31.5 -57t10.5 -63q0 -16 -3 -33.5t-9 -34.5q11 8 21.5 15.5t21.5 14.5q10 8 21 15.5t21 14.5q1 1 1.5 1t1.5 1q2 0 3.5 0.5t2.5 0.5q6 0 10 -4.5t4 -9.5q0 -3 -1.5 -6t-5.5 -6v0zM175 100q22 2 31.5 22t9.5 45v7.5t-1 6.5q-3 31 -18 56.5t-40 25.5q-23 0 -30.5 -19 t-7.5 -42q-1 -7 -0.5 -14t0.5 -14v-11v-9q1 -4 2.5 -8t4.5 -8q7 -15 19.5 -27t29.5 -11v0z" />
<glyph unicode="q" horiz-adv-x="365" d="M400 214q-15 -8 -30.5 -16t-31.5 -16q-15 -9 -30.5 -17t-31.5 -16q-2 -78 -5 -155.5t-6 -156.5l-76 -29l-15 268q-11 -11 -24 -19t-26 -12q-6 -2 -12.5 -3t-12.5 -1q-25 0 -48 16t-37 47q-7 17 -10.5 34.5t-3.5 36.5q0 5 0.5 10t0.5 10q4 35 18 68t37 56q17 17 36 25.5 t38 8.5q20 0 39.5 -10t33.5 -32l81 42l-7 -172q28 15 55.5 29.5t54.5 28.5q2 1 4.5 1.5t3.5 0.5q6 0 10 -4.5t3 -9.5q0 -4 -1.5 -7.5t-6.5 -5.5v0zM171 144l-7 130q-7 10 -16.5 17.5t-21.5 6.5q-19 -1 -31 -25.5t-10 -59.5q1 -7 3 -17t6 -21q7 -19 19.5 -34.5t30.5 -14.5 q8 1 15 5.5t12 12.5v0z" />
<glyph unicode="r" horiz-adv-x="329" d="M342 230q-14 -18 -27.5 -36.5t-27.5 -36.5q-14 -19 -27.5 -37.5t-27.5 -36.5q-15 -20 -40 -37t-53 -17h-5t-6 1q-26 5 -38.5 26t-14.5 46q-2 34 -4.5 67.5t-5.5 66.5l-63 -34q0 20 -0.5 40t-0.5 40q0 19 -0.5 39t-0.5 40q0 8 4.5 11.5t10.5 3.5q5 0 9.5 -3.5t4.5 -11.5 v-28v-28l160 19q4 -49 7.5 -97t7.5 -96q1 -7 4.5 -10.5t7.5 -2.5q4 0 7.5 3t6.5 7l0.5 0.5l1.5 1.5l1.5 1.5l0.5 0.5q11 14 21.5 28.5t21.5 29.5q10 14 21 28.5t21 28.5q3 4 6 5.5t6 0.5q6 0 10.5 -4t3.5 -10q0 -2 -0.5 -4.5t-2.5 -4.5v0z" />
<glyph unicode="s" horiz-adv-x="247" d="M274 187l-60 -62t-59 -62q-15 -16 -33.5 -25.5t-37.5 -11.5q-3 -1 -5.5 -1h-5.5q-22 0 -41 11t-32 36l30 81q17 -24 35 -45.5t44 -36.5l4 14t3 14q1 6 1.5 13t0.5 14q-1 34 -16 62.5t-48 42.5q-2 -3 -4 -5.5t-5 -5.5l-0.5 -0.5t-0.5 -1.5q-8 -11 -15.5 -21t-12.5 -16 l-24 15q6 6 12.5 15.5t14.5 19.5l0.5 0.5t0.5 1.5q2 1 3 3t2 3q-4 1 -7.5 1.5t-8.5 1.5l59 130q12 -4 23 -8t21 -11q36 -23 51.5 -61.5t15.5 -80.5v-6.5v-6.5q-2 -25 -8.5 -49.5t-16.5 -45.5q12 13 24.5 26t25.5 26q12 12 24.5 25t24.5 26q3 3 6 4t6 1q6 0 10 -4.5t4 -9.5 q-1 -3 -2 -5.5t-3 -4.5v0z" />
<glyph unicode="t" horiz-adv-x="302" d="M343 212l-12 -14t-12 -13q-5 -7 -10.5 -13.5t-11.5 -12.5q-18 -22 -37 -43.5t-39 -40.5q-3 -3 -6.5 -6t-6.5 -6q-17 -14 -37 -26t-42 -12q-4 0 -7.5 0.5t-7.5 1.5q-10 2 -19 9t-16 19q-6 11 -9.5 27.5t-2.5 38.5q0 21 0.5 41.5t1.5 40.5t1.5 40.5t0.5 40.5h-27.5h-28.5 q-7 0 -11 4.5t-4 10.5v1.5v0.5q1 4 4.5 7.5t10.5 3.5h28.5h28.5q1 50 2.5 100t2.5 99l100 53l-3 -252h38.5h37.5q8 0 12 -4.5t4 -10.5v-1.5t-1 -0.5q-1 -4 -4.5 -7.5t-10.5 -3.5h-18.5h-19.5h-19.5h-18.5q-1 -47 -1.5 -94.5t-1.5 -94.5q0 -6 2.5 -8.5t6.5 -2.5q2 0 4 1t5 2 q2 1 4.5 2.5t4.5 3.5l2 2l2 2q15 17 30 33.5t30 33.5t29.5 33.5t29.5 33.5q3 3 6 4.5t6 0.5q6 0 10 -4t4 -10v-2.5t-1 -2.5q0 -1 -1 -2.5t-2 -2.5v0z" />
<glyph unicode="u" horiz-adv-x="417" d="M437 220q-14 -18 -27.5 -36.5t-27.5 -36.5t-27.5 -36.5t-27.5 -36.5q-13 -18 -31 -30.5t-37 -18.5q-7 -2 -13.5 -3t-13.5 -1q-24 0 -42 17t-20 55q0 9 -0.5 17.5t-1.5 17.5t-1.5 17.5t-0.5 17.5q-4 -10 -11 -25.5t-17 -32.5q-14 -26 -33.5 -47.5t-42.5 -21.5q-4 0 -8 1.5 t-9 2.5q-16 6 -24 20.5t-11 30.5q-1 6 -1.5 12t-0.5 12q-1 46 -2.5 91.5t-3.5 91.5l115 39l7 -197q20 40 33.5 81.5t25.5 83.5l107 25q3 -61 6 -121.5t6 -120.5q22 27 43 55t41 56q7 10 14 19.5t14 18.5q3 4 6 5.5t6 0.5q6 0 10.5 -4t3.5 -10q0 -2 -0.5 -4.5t-2.5 -4.5v0z " />
<glyph unicode="v" horiz-adv-x="276" d="M279 212q6 -1 8.5 -5t2.5 -9v-1.5v-0.5q-1 -5 -4.5 -9t-9.5 -3h-0.5h-1.5q-20 4 -40 8.5t-40 11.5q-9 -39 -27 -75t-40 -70q-7 -11 -15.5 -17.5t-17.5 -8.5q-2 -1 -5 -1.5t-6 -0.5q-15 0 -29 11.5t-22 30.5q-16 38 -21 77.5t-8 80.5v2.5v3.5q-1 12 -1.5 23.5t-1.5 23.5 l96 38l41 -191q10 20 18 41t13 43q-19 10 -24.5 28.5t-7.5 38.5q0 5 0.5 13.5t1.5 17.5q3 14 9 25t18 11q18 0 25.5 -19t9.5 -42q1 -6 1 -12.5v-12.5q0 -10 -0.5 -18t-1.5 -13q20 -7 40 -11.5t40 -8.5v0z" />
<glyph unicode="w" horiz-adv-x="463" d="M474 212q7 -1 10 -5.5t3 -9.5q0 -1 -0.5 -2l-0.5 -1q-1 -4 -4.5 -7.5t-9.5 -2.5h-1.5h-1.5q-20 4 -40 8.5t-40 11.5q-6 -27 -16 -51.5t-21 -49.5q-5 -9 -9 -18.5t-8 -19.5l-95 -25l-53 172l-37 -149q-24 -10 -47.5 -20.5t-46.5 -21.5q-14 64 -28.5 128.5t-28.5 128.5 l104 50l36 -191l39 156l93 50l60 -217q1 3 2 5.5t3 4.5q7 18 14.5 37.5t11.5 41.5q-18 10 -23.5 28.5t-7.5 38.5q-1 27 7 46.5t21 20.5q19 1 26.5 -19t9.5 -43q1 -6 1 -12v-12q0 -10 -0.5 -18t-1.5 -13q20 -7 40 -11.5t40 -8.5v0z" />
<glyph unicode="x" horiz-adv-x="290" d="M323 200q-24 -32 -48 -63.5t-48 -63.5q-14 -19 -30 -28t-33 -9h-5.5t-5.5 1q-16 3 -31.5 14t-28.5 28q-4 -4 -9 -9.5t-11 -11.5q-5 -5 -11.5 -10.5t-12.5 -9.5q-5 -3 -9.5 -4.5t-9.5 -1.5q-7 0 -12.5 5t-10.5 16q-3 8 -4.5 17t-1.5 19q0 9 1.5 18t4.5 16q5 10 11 16t14 6 q13 0 19.5 -10.5t9.5 -22.5q1 -7 2 -12.5t1 -10.5q2 2 3.5 4t3.5 4l3 3t3 4q-17 32 -25 68t-10 73q-1 11 -1.5 22t-0.5 22l84 58q11 -37 22 -74.5t27 -73.5q6 14 10 28.5t8 29.5q-5 6 -9 19.5t-6 28.5v5.5v5.5q0 14 4 26t12 17q3 2 6 2.5t7 0.5h0.5h1.5h1.5h0.5 q11 -3 15.5 -14.5t4.5 -27.5v-8.5t-1 -8.5q-1 -9 -2.5 -18.5t-3.5 -17.5t-3.5 -14.5t-2.5 -10.5q-5 -22 -12 -41.5t-15 -31.5q8 -14 17 -27.5t19 -25.5q9 13 18.5 25.5t19.5 25.5q9 12 18.5 24.5t18.5 25.5q3 4 6 5.5t6 0.5q6 0 10.5 -4t3.5 -10q0 -2 -0.5 -4.5t-2.5 -4.5v0 z" />
<glyph unicode="y" horiz-adv-x="378" d="M422 201q-33 -28 -66 -57t-67 -58v-21v-22q0 -20 -4.5 -45t-13.5 -52q-19 -55 -56.5 -101t-91.5 -43q-29 0 -45 22t-17 50v9.5v9.5q5 51 39.5 97t77.5 69l4 150q-5 -13 -12.5 -34.5t-18.5 -44.5q-17 -35 -39.5 -64.5t-50.5 -29.5q-4 0 -8 1.5t-9 2.5q-7 2 -13.5 8 t-11.5 15t-8 22t-4 30q-1 23 -1.5 45.5t-1.5 45.5t-1.5 45.5t-1.5 45.5l116 51l7 -207q19 39 32.5 80.5t25.5 83.5l109 31l-1 -212q29 25 57.5 49.5t56.5 49.5q2 1 3 2t3 1q1 1 2.5 1h2.5q5 0 9 -4t4 -10q0 -3 -1.5 -6t-4.5 -6v0zM177 26q-26 -18 -45 -42t-31 -49 q0 -3 -1 -5l-2 -4q0 -2 -1 -3.5t-1 -3.5q-2 -7 -4 -16.5t-3 -18.5v-3.5v-3.5q0 -14 5 -26.5t18 -17.5q3 -1 6 -1.5t6 -0.5q17 1 28.5 15.5t17.5 32.5q2 7 3 13.5t1 12.5q0 15 0.5 30.5t1.5 30.5q0 15 0.5 30t0.5 30v0z" />
<glyph unicode="z" horiz-adv-x="279" d="M272 103v-1.5v-0.5v-1.5v-1.5q0 -6 -0.5 -12t-2.5 -11q-5 -22 -25.5 -32.5t-44.5 -12.5q-4 -1 -8 -1h-8q-7 0 -14.5 1t-13.5 2l-32 6t-31 6l-32 6l-32 6q14 30 27.5 60.5t26.5 61.5q14 31 27.5 61.5t26.5 60.5q-5 5 -14 9t-18 5q-3 1 -5.5 1h-5.5q-8 0 -14.5 -2.5 t-10.5 -7.5q-1 -2 -2 -4.5t-1 -6.5q1 -4 2.5 -9.5t4.5 -13.5l2 -4t1 -4q1 -3 1 -5v-4q0 -5 -1 -10.5t-3 -10.5q-5 -16 -16.5 -28.5t-25.5 -12.5h-2h-1q-1 0 -2 0.5t-2 0.5q-9 2 -14.5 10t-6.5 17q-1 4 -1 7.5v7.5q0 5 0.5 10.5t1.5 11.5q6 33 29.5 61.5t57.5 27.5q6 0 12 -1 t13 -3q36 -13 72 -26.5t73 -26.5q-23 -58 -46.5 -115.5t-46.5 -115.5q5 -1 9.5 -1h8.5q11 0 21 2t19 6q-3 5 -4.5 10.5t-3.5 11.5q0 4 -0.5 7.5t-0.5 7.5q-1 21 6.5 36t19.5 16q12 0 18.5 -9.5t9.5 -21.5q1 -6 1.5 -11t0.5 -9v0z" />
<glyph unicode="{" />
<glyph unicode="|" />
<glyph unicode="}" />
<glyph unicode="~" />
<glyph unicode="&#xa1;" horiz-adv-x="121" d="M7 -24q5 60 10 119.5t10 118.5q4 59 9 118.5t10 119.5h40q3 -60 6.5 -119.5t6.5 -118.5t6.5 -118.5t6.5 -118.5l-105 -1v0zM24 559q0 19 13 32t32 13t32 -13t13 -32t-13 -32.5t-32 -13.5t-32 13.5t-13 32.5v0z" />
<glyph unicode="&#xa2;" horiz-adv-x="347" d="M328 332q-12 -15 -27 -34t-32 -38q-21 -24 -45 -46.5t-48 -38.5q-16 -10 -32.5 -15.5t-31.5 -5.5q-3 -19 -5.5 -37.5t-4.5 -36.5q-3 -19 -5.5 -37.5t-5.5 -37.5q-1 -5 -4 -8t-7 -4h-1.5h-1.5h-1.5h-0.5q-5 1 -9 4t-3 9v1.5v1.5q5 38 10.5 76t11.5 76q-35 16 -52 55.5 t-17 85.5v11.5t1 11.5q5 61 35 113t81 60q5 28 8.5 55.5t7.5 55.5q1 6 4 9t7 4h1.5h1.5h1.5h0.5q5 -1 9 -4.5t3 -9.5v-1.5v-1.5q-4 -27 -7.5 -54t-7.5 -54q16 -3 28 -12t22 -20l-28 -85q-2 2 -4 4.5t-4 5.5q-6 7 -12.5 14t-13.5 14l-19 -130q14 -14 30 -21.5t33 -6.5 q15 0 29.5 5.5t27.5 17.5l7.5 7.5l7.5 7.5q13 14 22.5 28t16.5 23q3 4 6 5.5t6 0.5q6 0 10.5 -4t3.5 -10q0 -2 -0.5 -4.5t-2.5 -4.5v0zM124 436q-1 1 -2.5 1.5t-2.5 1.5t-2.5 1.5t-2.5 0.5q-6 -11 -10 -23.5t-5 -24.5q-1 -5 -1 -9v-8t0.5 -8.5t0.5 -8.5q1 -9 3.5 -17.5 t5.5 -16.5l16 111v0z" />
<glyph unicode="&#xa3;" horiz-adv-x="532" d="M506 127q-11 -51 -42.5 -78.5t-73.5 -27.5q-13 1 -27 3.5t-28 8.5q-5 2 -9.5 4t-9.5 5q-11 6 -23.5 15.5t-25.5 19.5q-23 -22 -54 -38t-64 -19q-4 -1 -8 -1h-8q-22 0 -43 7.5t-38 23.5q-14 14 -21 29.5t-7 31.5q0 5 0.5 10t2.5 11q3 15 11.5 30t20.5 28q17 18 35 26t37 8 q31 0 63.5 -15.5t66.5 -36.5q-3 24 -15 48.5t-28 49.5h-107l-32 46h108q-9 13 -17.5 26t-16.5 26q-15 26 -24.5 52t-9.5 52v3v3v2.5v2.5q6 74 55 123.5t119 49.5q11 0 22.5 -1.5t23.5 -4.5q56 -15 83 -47.5t31 -70.5q1 -4 1 -8.5v-9.5v-2.5v-3.5q-2 -49 -34 -90.5t-76 -40.5 q-10 0 -21.5 3t-22.5 9q-5 3 -10.5 6.5t-11.5 8.5q-9 8 -15.5 16.5t-10.5 17.5q-2 4 -3 8.5t-2 8.5q0 2 -0.5 3.5t-0.5 3.5v3v3q0 27 20 46t48 19h2h3q1 -1 2 -1h2l6 -26q-13 -10 -20 -22.5t-7 -26.5q0 -19 13.5 -34t39.5 -15q11 0 19 7.5t14 16.5l1.5 1.5t0.5 1.5 q6 11 9 21.5t3 21.5q0 27 -15.5 52t-38.5 39q-10 7 -24 10t-28 3h-6.5t-6.5 -1q-22 -2 -42 -11.5t-30 -25.5q-4 -7 -7 -17t-3 -21q0 -5 1 -11l2 -12q8 -30 21 -58.5t27 -55.5q2 -3 3.5 -6t2.5 -6q5 -10 10 -20.5t10 -20.5h110l32 -46h-122q7 -19 12 -41t5 -45 q0 -10 -1.5 -20.5t-4.5 -20.5q6 -4 14 -8.5t17 -9.5l22 -10t23 -9q10 -3 20 -5t19 -2q13 0 23.5 4t17.5 14q1 2 2.5 3.5t2.5 3.5t1.5 4t1.5 4q4 7 8.5 13t11.5 6q2 0 3.5 -0.5t2.5 -1.5q5 -3 7 -6t2 -7q0 -2 -0.5 -4.5t-1.5 -4.5v0zM240 100q-17 15 -35 28.5t-36 23.5 q-15 8 -29.5 13t-28.5 5q-12 0 -23 -4t-22 -14q-5 -5 -8.5 -13t-4.5 -17v-5.5v-5.5v-7t1 -5q5 -18 19 -30t30 -17q8 -2 16.5 -3.5t16.5 -1.5q30 0 57.5 15t46.5 38v0z" />
<glyph unicode="&#xa4;" horiz-adv-x="497" d="M474 561l-56 -139l-65 19l17 78q-18 11 -35 16.5t-34 5.5q-25 0 -48 -14t-44 -43q-16 -24 -27 -55t-14 -66h237l-14 -29h-224v-5.5t1 -5.5v-6v-6h213l-14 -28h-195q5 -25 14.5 -48t22.5 -41q21 -30 45 -44t49 -14q19 0 39 8t40 22v53h29v-107h-29v21q-14 -9 -29.5 -14.5 t-30.5 -8.5q-10 -2 -20 -3t-20 -1q-72 0 -132 49t-78 128h-49l14 28h30v6v6q-1 3 -1 5.5v5.5h-43l14 29h30q8 83 67.5 146t147.5 63q25 0 48.5 -6t45.5 -18l19 86l79 -73v0z" />
<glyph unicode="&#xa5;" horiz-adv-x="447" d="M415 410q6 -1 9 -5t3 -9v-1.5v-0.5q-1 -4 -4.5 -7.5t-9.5 -3.5h-1.5h-1.5q-7 1 -14 2.5t-14 2.5q-21 5 -41.5 10t-40.5 12q-4 -19 -10.5 -38.5t-14.5 -38.5h47v-29h-60q-1 -3 -2.5 -6t-3.5 -5q-1 -3 -2.5 -6t-3.5 -6h72v-28h-88l-2 -4v-223h-113v168q-10 9 -17.5 21 t-12.5 25q-1 3 -2.5 6.5t-2.5 6.5h-64v28h55q-1 6 -2.5 12t-2.5 11h-50v29h44l-4 36t-3 36q0 9 -0.5 18t-1.5 18q-1 17 -2 33.5t-3 32.5l120 48l55 -261q17 30 29 62t19 66q-2 1 -3.5 2t-2.5 1q-9 5 -14.5 11t-10.5 18q-4 11 -7 24.5t-4 29.5q0 6 0.5 16.5t2.5 22.5 q3 17 10 31t21 14t22.5 -14t13.5 -30q3 -10 4 -19.5t2 -15.5q1 -19 0.5 -37.5t-2.5 -36.5q20 -8 40.5 -13.5t41.5 -9.5q7 -2 14 -3.5t14 -2.5v0z" />
<glyph unicode="&#xa6;" />
<glyph unicode="&#xa7;" />
<glyph unicode="&#xa8;" horiz-adv-x="276" d="M131 643q0 -13 -10.5 -23.5t-24.5 -10.5q-13 0 -23.5 10.5t-10.5 23.5q0 14 10.5 24.5t23.5 10.5q14 0 24.5 -10.5t10.5 -24.5v0zM217 643q0 -13 -10.5 -23.5t-24.5 -10.5q-13 0 -23 10.5t-10 23.5q0 14 10 24.5t23 10.5q14 0 24.5 -10.5t10.5 -24.5v0z" />
<glyph unicode="&#xa9;" />
<glyph unicode="&#xaa;" horiz-adv-x="371" d="M350 532l-97 -109q-11 -15 -25.5 -22t-29.5 -7q-19 0 -36 11.5t-28 32.5q-1 -1 -1.5 -2.5t-1.5 -2.5q-9 -15 -23.5 -27t-31.5 -12h-1.5h-0.5h-1.5h-1.5q-25 3 -39.5 32.5t-14.5 71.5v11t1 12q3 25 10 47t17 38q10 15 25 27.5t32 12.5q5 -1 10.5 -2.5t10.5 -4.5v6h112 v-199q12 13 23.5 26t23.5 27q12 13 23.5 26t23.5 26q1 2 2.5 2.5t3.5 1.5q1 1 2.5 1h2.5q6 0 10 -4t4 -10v-2.5t-1 -2.5q0 -1 -1 -2.5t-2 -2.5v0zM124 491l-1 105q0 1 -1 3l-2 4q-2 4 -5 7t-7 3q-9 0 -14 -10.5t-7 -22.5q-2 -9 -2 -16.5v-12.5q0 -3 2 -12t5 -19 q4 -13 10 -23t13 -10q2 0 4.5 1t4.5 3v0z" />
<glyph unicode="&#xab;" horiz-adv-x="272" d="M161 514q-19 -32 -38.5 -65t-39.5 -66q17 -31 33.5 -63.5t33.5 -64.5q0 -1 0.5 -1.5t0.5 -1.5q1 -1 1.5 -2.5t0.5 -3.5t-2 -4.5t-7 -5.5q-3 -1 -5 -1.5t-4 -0.5h-0.5h-0.5h-0.5h-0.5h-0.5h-1.5q0 -1 -0.5 -1h-1.5q-2 0 -4 1.5t-4 3.5q0 1 -0.5 1.5l-0.5 0.5l-56 72 l-56 72l131 147q2 4 4.5 5.5t5.5 1.5q1 0 2.5 -0.5t3.5 -1.5q1 -1 1.5 -1t1.5 -1q5 -3 6.5 -5.5t1.5 -4.5q-1 -2 -2 -4.5t-3 -5.5v0zM261 514q-19 -32 -38.5 -65t-39.5 -66q17 -31 33.5 -63.5t33.5 -64.5q0 -1 0.5 -1.5t0.5 -1.5q1 -1 1.5 -2.5t0.5 -3.5t-2 -4.5t-7 -5.5 q-3 -1 -5 -1.5t-4 -0.5h-0.5h-0.5h-0.5h-0.5h-0.5h-1.5q0 -1 -0.5 -1h-1.5q-2 0 -4 1.5t-4 3.5q0 1 -0.5 1.5l-0.5 0.5l-56 72l-56 72l131 147q2 4 4.5 5.5t5.5 1.5q1 0 2.5 -0.5t3.5 -1.5q1 -1 1.5 -1t1.5 -1q5 -3 6.5 -5.5t1.5 -4.5q-1 -2 -2 -4.5t-3 -5.5v0z" />
<glyph unicode="&#xac;" />
<glyph unicode="&#xad;" />
<glyph unicode="&#xae;" />
<glyph unicode="&#xaf;" horiz-adv-x="200" />
<glyph unicode="&#xb0;" />
<glyph unicode="&#xb1;" />
<glyph unicode="&#xb2;" />
<glyph unicode="&#xb3;" />
<glyph unicode="&#xb4;" horiz-adv-x="276" d="M212 744q-42 -12 -83.5 -24t-82.5 -24l-10 24q18 11 36.5 22t37.5 22t37.5 22t36.5 22q5 3 10.5 4.5t9.5 1.5q15 0 24 -12t9 -26q0 -10 -5.5 -19t-19.5 -13v0z" />
<glyph unicode="&#xb5;" />
<glyph unicode="&#xb6;" />
<glyph unicode="&#xb7;" horiz-adv-x="200" />
<glyph unicode="&#xb8;" horiz-adv-x="276" d="M246 -84q-13 -24 -37.5 -35t-51.5 -13q-9 -1 -18 -1.5t-17 -0.5t-17 1l-18 2q-14 3 -28.5 8t-27.5 13q-2 1 -4 2.5t-3 2.5l-1.5 3t-0.5 3t1 4.5t2 4.5q2 4 4.5 6t5.5 2q2 0 4.5 -1t4.5 -2q13 -7 32 -12.5t40 -6.5q3 -1 6 -1h6q20 0 37 6t26 23q3 5 5 11.5t2 13.5t-3 13 t-10 11q-8 5 -17 7t-18 2q-7 0 -14.5 -0.5t-14.5 -1.5q8 22 17 45l18 46q2 4 4 7t7 3q2 0 3.5 -0.5t3.5 -1.5q6 -2 8 -5t2 -6v-2t-1 -1q0 -1 -0.5 -2t-0.5 -2l-19 -51q37 -1 64 -18t27 -46q-1 -7 -2.5 -14.5t-5.5 -14.5v-1z" />
<glyph unicode="&#xb9;" />
<glyph unicode="&#xba;" horiz-adv-x="341" d="M314 541q6 -1 9 -5t3 -9q0 -6 -3.5 -10.5t-10.5 -4.5h-0.5t-1.5 1h-1.5h-0.5q-21 5 -42 10.5t-41 10.5q-1 -11 -4 -23t-8 -25q-14 -38 -42 -69.5t-68 -31.5h-6t-6 1q-33 5 -50.5 31t-22.5 56q-1 6 -1.5 13t-0.5 13q0 12 2 24.5t5 24.5q12 44 43 80.5t76 36.5 q40 0 60.5 -30t23.5 -66v-3.5v-2.5q11 -3 22 -5.5t22 -5.5t22 -5.5t22 -5.5v0zM181 489q4 3 5.5 7.5t1.5 10.5q0 5 -1 9.5t-2 9.5q-2 6 -4.5 11.5t-4.5 10.5q-3 6 -5.5 10.5t-4.5 7.5t-6.5 7.5l-9.5 9.5t-10.5 9t-10.5 7t-10 4.5t-10 1.5q-3 0 -6 -0.5t-5 -2.5 q-4 -3 -5.5 -7.5t-1.5 -9.5q0 -4 1 -9l2 -10q2 -6 4.5 -12.5t5.5 -11.5t5.5 -9.5t4.5 -6.5q2 -3 6.5 -8t10.5 -10q4 -4 9.5 -8t10.5 -7t10.5 -5t9.5 -2q3 0 5.5 1t4.5 2v0z" />
<glyph unicode="&#xbb;" horiz-adv-x="269" d="M11 514q-2 3 -3.5 5.5t-1.5 4.5t2 4.5t6 5.5q3 2 5.5 3t4.5 1t4.5 -1.5t4.5 -5.5l131 -147q-28 -36 -55.5 -72t-56.5 -72l-0.5 -0.5l-1.5 -1.5v0v0l-3.5 -3.5t-4.5 -1.5q-1 1 -1.5 1h-1.5h-0.5h-0.5h-0.5h-0.5q-2 0 -4.5 0.5t-4.5 1.5q-5 3 -7 6t-2 5q0 1 0.5 2t0.5 2 l0.5 0.5l0.5 0.5q0 1 0.5 1.5t0.5 1.5q17 32 34 64.5t33 63.5q-19 33 -38.5 66t-39.5 65v0zM111 514q-2 3 -3.5 5.5t-1.5 4.5t2 4.5t6 5.5q3 2 5.5 3t4.5 1t4.5 -1.5t4.5 -5.5l131 -147q-28 -36 -55.5 -72t-56.5 -72l-0.5 -0.5l-1.5 -1.5v0v0l-3.5 -3.5t-4.5 -1.5 q-1 1 -1.5 1h-1.5h-0.5h-0.5h-0.5h-0.5q-2 0 -4.5 0.5t-4.5 1.5q-5 3 -7 6t-2 5q0 1 0.5 2t0.5 2l0.5 0.5l0.5 0.5q0 1 0.5 1.5t0.5 1.5q17 32 34 64.5t33 63.5q-19 33 -38.5 66t-39.5 65v0z" />
<glyph unicode="&#xbc;" />
<glyph unicode="&#xbd;" />
<glyph unicode="&#xbe;" />
<glyph unicode="&#xbf;" horiz-adv-x="333" d="M48 215q10 13 22.5 24t25.5 22l1 1l1 1q19 15 36 31.5t27 39.5q3 8 5.5 15.5t4.5 15.5q4 15 6 30.5t2 31.5h39q-2 -42 -10.5 -76.5t-24.5 -67.5q-7 -15 -16 -30.5t-20 -31.5q-2 -4 -5 -8t-5 -8q-9 -15 -17 -33t-12 -36q-2 -7 -3 -14.5t-1 -14.5q0 -13 4 -25t12 -23 q16 -19 34 -27.5t37 -8.5q34 1 62 25.5t34 62.5q-6 -3 -12 -4.5t-11 -1.5q-20 0 -34.5 15.5t-14.5 34.5q0 9 4 18t11 16t16 10t19 3q15 0 28 -8t17 -23q4 -12 5.5 -23t1.5 -22q-1 -62 -47.5 -100.5t-108.5 -37.5h-10t-10 1q-5 0 -10 1l-10 2q-52 11 -79.5 47t-27.5 80 q0 25 9 49.5t25 46.5v0zM154 517q0 19 13 32t32 13t32.5 -13t13.5 -32t-13.5 -32.5t-32.5 -13.5t-32 13.5t-13 32.5v0z" />
<glyph unicode="&#xc0;" horiz-adv-x="662" d="M658 176q-2 -11 -5.5 -26.5t-8.5 -31.5q-10 -30 -27.5 -54.5t-45.5 -24.5q-25 0 -44.5 21t-32.5 47q-5 10 -9.5 20t-7.5 18l-30 -96q-31 -9 -65.5 -14t-69.5 -5h-9.5h-8.5q-92 4 -174.5 44.5t-118.5 126.5q-1 2 -1 4v4q5 32 10.5 64t11.5 64l12 64l12 64q0 2 1 3.5t2 2.5 q50 69 135 111.5t178 57.5q26 5 51.5 7t50.5 2q26 0 51.5 -2.5t48.5 -7.5q2 0 3.5 -0.5t3.5 -0.5q2 -1 3.5 -1.5t3.5 -0.5q-5 -26 -10.5 -52t-10.5 -52l-31 -9l19 -29q-6 -26 -10.5 -55.5t-5.5 -58.5v-10v-10v-5.5v-4.5q1 -54 15 -105.5t47 -90.5q1 -1 2 -1.5t2 -0.5h2h2 h1.5h1.5q7 1 14 7t11 13q1 3 2 5t1 4q1 6 4 8.5t7 3.5h1.5h1.5h1.5h0.5q5 -1 9 -4.5t3 -9.5v-1.5v-1.5v0zM485 534l-2 2q-36 2 -80.5 -1t-91.5 -11q-94 -19 -174.5 -68t-88.5 -141q-6 -69 51 -108.5t126 -56.5q35 -9 67.5 -13t57.5 -4q28 0 53 2.5t44 8.5l15 48 q-9 34 -14 71.5t-5 75.5q0 52 10 102t32 93v0zM446 684l-10 -24q-41 12 -82.5 24t-83.5 24q-13 4 -19 13.5t-6 19.5q0 14 9.5 25.5t24.5 11.5q5 0 9.5 -1.5t9.5 -4.5q18 -11 36.5 -22t37.5 -22t37.5 -22t36.5 -22v0z" />
<glyph unicode="&#xc1;" horiz-adv-x="662" d="M658 176q-2 -11 -5.5 -26.5t-8.5 -31.5q-10 -30 -27.5 -54.5t-45.5 -24.5q-25 0 -44.5 21t-32.5 47q-5 10 -9.5 20t-7.5 18l-30 -96q-31 -9 -65.5 -14t-69.5 -5h-9.5h-8.5q-92 4 -174.5 44.5t-118.5 126.5q-1 2 -1 4v4q5 32 10.5 64t11.5 64l12 64l12 64q0 2 1 3.5t2 2.5 q50 69 135 111.5t178 57.5q26 5 51.5 7t50.5 2q26 0 51.5 -2.5t48.5 -7.5q2 0 3.5 -0.5t3.5 -0.5q2 -1 3.5 -1.5t3.5 -0.5q-5 -26 -10.5 -52t-10.5 -52l-31 -9l19 -29q-6 -26 -10.5 -55.5t-5.5 -58.5v-10v-10v-5.5v-4.5q1 -54 15 -105.5t47 -90.5q1 -1 2 -1.5t2 -0.5h2h2 h1.5h1.5q7 1 14 7t11 13q1 3 2 5t1 4q1 6 4 8.5t7 3.5h1.5h1.5h1.5h0.5q5 -1 9 -4.5t3 -9.5v-1.5v-1.5v0zM485 534l-2 2q-36 2 -80.5 -1t-91.5 -11q-94 -19 -174.5 -68t-88.5 -141q-6 -69 51 -108.5t126 -56.5q35 -9 67.5 -13t57.5 -4q28 0 53 2.5t44 8.5l15 48 q-9 34 -14 71.5t-5 75.5q0 52 10 102t32 93v0zM490 710q-42 -12 -83.5 -24t-82.5 -24l-10 24q18 11 36.5 22t37.5 22t37.5 22t36.5 22q5 3 10.5 4.5t9.5 1.5q15 0 24 -12t9 -26q0 -10 -5.5 -19t-19.5 -13v0z" />
<glyph unicode="&#xc2;" horiz-adv-x="662" d="M658 176q-2 -11 -5.5 -26.5t-8.5 -31.5q-10 -30 -27.5 -54.5t-45.5 -24.5q-25 0 -44.5 21t-32.5 47q-5 10 -9.5 20t-7.5 18l-30 -96q-31 -9 -65.5 -14t-69.5 -5h-9.5h-8.5q-92 4 -174.5 44.5t-118.5 126.5q-1 2 -1 4v4q5 32 10.5 64t11.5 64l12 64l12 64q0 2 1 3.5t2 2.5 q50 69 135 111.5t178 57.5q26 5 51.5 7t50.5 2q26 0 51.5 -2.5t48.5 -7.5q2 0 3.5 -0.5t3.5 -0.5q2 -1 3.5 -1.5t3.5 -0.5q-5 -26 -10.5 -52t-10.5 -52l-31 -9l19 -29q-6 -26 -10.5 -55.5t-5.5 -58.5v-10v-10v-5.5v-4.5q1 -54 15 -105.5t47 -90.5q1 -1 2 -1.5t2 -0.5h2h2 h1.5h1.5q7 1 14 7t11 13q1 3 2 5t1 4q1 6 4 8.5t7 3.5h1.5h1.5h1.5h0.5q5 -1 9 -4.5t3 -9.5v-1.5v-1.5v0zM485 534l-2 2q-36 2 -80.5 -1t-91.5 -11q-94 -19 -174.5 -68t-88.5 -141q-6 -69 51 -108.5t126 -56.5q35 -9 67.5 -13t57.5 -4q28 0 53 2.5t44 8.5l15 48 q-9 34 -14 71.5t-5 75.5q0 52 10 102t32 93v0zM484 667l-2.5 -2.5t-2.5 -1.5l-3 -1.5t-3 -0.5q-1 0 -3.5 1.5t-5.5 3.5q-9 7 -17.5 13.5t-17.5 12.5t-17.5 12t-17.5 12h-10q-9 -6 -18.5 -12.5t-19.5 -12.5t-19.5 -12.5t-19.5 -12.5q-3 -2 -5 -3t-4 -1t-4.5 1.5t-5.5 5.5 q-2 2 -3 4.5t-1 4.5q0 3 1.5 5.5t4.5 4.5l21.5 21.5t20.5 21.5l21.5 21.5t20.5 21.5h30l20 -22t20 -21q9 -11 19 -22l20 -22q3 -3 4.5 -5.5t1.5 -4.5t-1.5 -4.5t-3.5 -5.5v0z" />
<glyph unicode="&#xc3;" horiz-adv-x="662" d="M658 176q-2 -11 -5.5 -26.5t-8.5 -31.5q-10 -30 -27.5 -54.5t-45.5 -24.5q-25 0 -44.5 21t-32.5 47q-5 10 -9.5 20t-7.5 18l-30 -96q-31 -9 -65.5 -14t-69.5 -5h-9.5h-8.5q-92 4 -174.5 44.5t-118.5 126.5q-1 2 -1 4v4q5 32 10.5 64t11.5 64l12 64l12 64q0 2 1 3.5t2 2.5 q50 69 135 111.5t178 57.5q26 5 51.5 7t50.5 2q26 0 51.5 -2.5t48.5 -7.5q2 0 3.5 -0.5t3.5 -0.5q2 -1 3.5 -1.5t3.5 -0.5q-5 -26 -10.5 -52t-10.5 -52l-31 -9l19 -29q-6 -26 -10.5 -55.5t-5.5 -58.5v-10v-10v-5.5v-4.5q1 -54 15 -105.5t47 -90.5q1 -1 2 -1.5t2 -0.5h2h2 h1.5h1.5q7 1 14 7t11 13q1 3 2 5t1 4q1 6 4 8.5t7 3.5h1.5h1.5h1.5h0.5q5 -1 9 -4.5t3 -9.5v-1.5v-1.5v0zM485 534l-2 2q-36 2 -80.5 -1t-91.5 -11q-94 -19 -174.5 -68t-88.5 -141q-6 -69 51 -108.5t126 -56.5q35 -9 67.5 -13t57.5 -4q28 0 53 2.5t44 8.5l15 48 q-9 34 -14 71.5t-5 75.5q0 52 10 102t32 93v0zM508 739q-1 -13 -6.5 -26t-15.5 -22q-11 -12 -28 -18t-35 -6q-15 0 -29 4.5t-25 13.5q-3 3 -7.5 6.5t-8.5 6.5l-10 8t-10 7q-3 1 -6.5 2.5t-6.5 1.5h-1.5h-2.5q-10 0 -17 -8.5t-11 -18.5q-1 -3 -2 -6.5t-1 -6.5q0 -5 -2 -9.5 t-13 -3.5q-8 0 -11 3.5t-2 7.5v0.5v1.5v1.5v0.5v2.5v2.5v0.5v1.5v3.5v3.5q1 29 21.5 49t49.5 20q20 0 34 -7.5t27 -18.5q3 -2 6 -4.5t6 -5.5q8 -7 17 -10.5t18 -3.5q18 0 30.5 12.5t13.5 30.5q0 5 2 9.5t12 3.5q8 -1 11 -4t3 -9v-3.5t-1 -4.5q1 -1 1 -3.5v-4.5v0z" />
<glyph unicode="&#xc4;" horiz-adv-x="662" d="M658 176q-2 -11 -5.5 -26.5t-8.5 -31.5q-10 -30 -27.5 -54.5t-45.5 -24.5q-25 0 -44.5 21t-32.5 47q-5 10 -9.5 20t-7.5 18l-30 -96q-31 -9 -65.5 -14t-69.5 -5h-9.5h-8.5q-92 4 -174.5 44.5t-118.5 126.5q-1 2 -1 4v4q5 32 10.5 64t11.5 64l12 64l12 64q0 2 1 3.5t2 2.5 q50 69 135 111.5t178 57.5q26 5 51.5 7t50.5 2q26 0 51.5 -2.5t48.5 -7.5q2 0 3.5 -0.5t3.5 -0.5q2 -1 3.5 -1.5t3.5 -0.5q-5 -26 -10.5 -52t-10.5 -52l-31 -9l19 -29q-6 -26 -10.5 -55.5t-5.5 -58.5v-10v-10v-5.5v-4.5q1 -54 15 -105.5t47 -90.5q1 -1 2 -1.5t2 -0.5h2h2 h1.5h1.5q7 1 14 7t11 13q1 3 2 5t1 4q1 6 4 8.5t7 3.5h1.5h1.5h1.5h0.5q5 -1 9 -4.5t3 -9.5v-1.5v-1.5v0zM485 534l-2 2q-36 2 -80.5 -1t-91.5 -11q-94 -19 -174.5 -68t-88.5 -141q-6 -69 51 -108.5t126 -56.5q35 -9 67.5 -13t57.5 -4q28 0 53 2.5t44 8.5l15 48 q-9 34 -14 71.5t-5 75.5q0 52 10 102t32 93v0zM379 695q0 -13 -10.5 -23.5t-24.5 -10.5q-13 0 -23.5 10.5t-10.5 23.5q0 14 10.5 24.5t23.5 10.5q14 0 24.5 -10.5t10.5 -24.5v0zM465 695q0 -13 -10.5 -23.5t-24.5 -10.5q-13 0 -23 10.5t-10 23.5q0 14 10 24.5t23 10.5 q14 0 24.5 -10.5t10.5 -24.5v0z" />
<glyph unicode="&#xc5;" horiz-adv-x="662" d="M658 176q-2 -11 -5.5 -26.5t-8.5 -31.5q-10 -30 -27.5 -54.5t-45.5 -24.5q-25 0 -44.5 21t-32.5 47q-5 10 -9.5 20t-7.5 18l-30 -96q-31 -9 -65.5 -14t-69.5 -5h-9.5h-8.5q-92 4 -174.5 44.5t-118.5 126.5q-1 2 -1 4v4q5 32 10.5 64t11.5 64l12 64l12 64q0 2 1 3.5t2 2.5 q50 69 135 111.5t178 57.5q26 5 51.5 7t50.5 2q26 0 51.5 -2.5t48.5 -7.5q2 0 3.5 -0.5t3.5 -0.5q2 -1 3.5 -1.5t3.5 -0.5q-5 -26 -10.5 -52t-10.5 -52l-31 -9l19 -29q-6 -26 -10.5 -55.5t-5.5 -58.5v-10v-10v-5.5v-4.5q1 -54 15 -105.5t47 -90.5q1 -1 2 -1.5t2 -0.5h2h2 h1.5h1.5q7 1 14 7t11 13q1 3 2 5t1 4q1 6 4 8.5t7 3.5h1.5h1.5h1.5h0.5q5 -1 9 -4.5t3 -9.5v-1.5v-1.5v0zM485 534l-2 2q-36 2 -80.5 -1t-91.5 -11q-94 -19 -174.5 -68t-88.5 -141q-6 -69 51 -108.5t126 -56.5q35 -9 67.5 -13t57.5 -4q28 0 53 2.5t44 8.5l15 48 q-9 34 -14 71.5t-5 75.5q0 52 10 102t32 93v0zM446 697q0 -18 -12.5 -31t-30.5 -13t-30.5 13t-12.5 31q0 17 12.5 30t30.5 13t30.5 -13t12.5 -30v0zM418 697q0 5 -4.5 9.5t-10.5 4.5t-10.5 -4.5t-4.5 -9.5q0 -6 4.5 -10t10.5 -4t10.5 4t4.5 10v0z" />
<glyph unicode="&#xc6;" horiz-adv-x="1096" d="M1089 200q-4 -8 -8 -16.5t-8 -16.5q-8 -17 -16 -33.5t-16 -32.5q-5 -11 -26.5 -21t-45.5 -19q-20 -6 -38.5 -11t-27.5 -7q-25 -5 -61.5 -9t-77.5 -4q-14 0 -28 0.5t-29 1.5q-75 6 -142 31.5t-89 81.5q0 -1 -0.5 -1.5l-0.5 -0.5v-1.5v-1.5l-29 -91q-31 -9 -65.5 -14 t-69.5 -5h-6.5h-7.5q-92 4 -175.5 44t-120.5 127q0 1 -0.5 2t-0.5 2v1v1v0.5v1.5q5 32 10.5 64t11.5 64q5 32 11.5 64t12.5 64q0 2 0.5 3.5t1.5 2.5q50 69 136.5 112t180.5 58q25 4 50 6t49 2q26 0 51.5 -2.5t48.5 -7.5q2 0 3.5 -0.5t3.5 -0.5q1 -1 3 -1.5t3 -0.5 q-4 -26 -9.5 -52t-10.5 -52l-32 -9l20 -29q-8 -33 -12.5 -69t-4.5 -73q1 -8 1 -16.5t1 -16.5q26 20 58 33t66 21q22 6 44.5 9t42.5 5q-46 15 -85 40.5t-50 82.5q-1 5 -1.5 10.5t-0.5 10.5q1 51 41 87t88 46q4 1 7.5 1.5t7.5 0.5q3 1 6.5 1h7.5t8.5 -0.5t8.5 -0.5 q38 -5 74 -23t63 -42q1 3 1.5 6t0.5 6q0 4 -1 7.5t-1 7.5q-1 4 -2 7.5t-1 7.5q-1 7 3 11.5t9 5.5h0.5h1.5q5 -1 9 -4t5 -10q2 -11 3 -20t1 -17q0 -7 -1.5 -14t-4.5 -16q24 -27 35.5 -56.5t11.5 -64.5v-11t-1 -12t-2.5 -13t-3.5 -15q-6 -17 -17 -31.5t-28 -14.5 q-4 0 -8.5 1.5t-9.5 3.5q-21 11 -29 32t-8 45v5.5v4.5q1 15 3.5 29.5t5.5 27.5q0 2 0.5 4.5t1.5 4.5q-26 21 -59.5 36.5t-68.5 22.5q-16 3 -31 4.5t-30 0.5q-28 -2 -48.5 -13t-19.5 -40v-4.5v-5.5q0 -1 0.5 -2.5t0.5 -2.5q9 -47 47 -69.5t81 -36.5q8 -3 15.5 -5t14.5 -5 q10 -3 19.5 -6t18.5 -7l16 -92q-29 3 -57.5 5.5t-57.5 2.5q-19 0 -39.5 -1.5t-40.5 -5.5q-13 -2 -29.5 -6.5t-34.5 -10.5q-33 -12 -60.5 -32t-27.5 -51v-2t1 -2v-2v-2q3 -17 17.5 -26.5t30.5 -14.5q8 -2 15.5 -4t13.5 -3q43 -10 85.5 -14.5t84.5 -4.5q89 0 174.5 20.5 t167.5 59.5v0zM484 534l-1 2q-36 2 -80.5 -1t-91.5 -11q-94 -19 -174.5 -68t-88.5 -141q-6 -69 50.5 -108t125.5 -57q34 -8 67 -12.5t58 -4.5q29 0 54 2.5t44 8.5l15 48q-9 35 -14 73t-5 77q0 51 9.5 100.5t31.5 91.5v0zM936 391q2 5 3.5 9t1.5 9q1 4 1.5 8.5t0.5 8.5 q0 19 -7.5 36.5t-21.5 33.5q0 -2 -0.5 -4.5t-1.5 -4.5q-1 -9 -2 -20t-1 -23q0 -20 5 -37t18 -17h0.5t1.5 1h1.5h0.5v0z" />
<glyph unicode="&#xc7;" horiz-adv-x="575" d="M369 -102q-13 -24 -37.5 -35t-51.5 -13q-9 -1 -18 -1.5t-17 -0.5t-17 1l-18 2q-14 3 -28.5 8t-27.5 13q-2 1 -4 2.5t-3 2.5l-1.5 3t-0.5 3t1 4.5t2 4.5q2 4 4.5 6t5.5 2q2 0 4.5 -1t4.5 -2q13 -7 32 -12.5t40 -6.5q3 -1 6 -1h6q20 0 37 6t26 23q3 5 5 11.5t2 13.5t-3 13 t-10 11q-8 5 -17 7t-18 2q-7 0 -14.5 -0.5t-14.5 -1.5q8 22 17 45l18 46q2 4 4 7t7 3q2 0 3.5 -0.5t3.5 -1.5q6 -2 8 -5t2 -6v-2t-1 -1q0 -1 -0.5 -2t-0.5 -2l-19 -51q37 0 64 -17.5t27 -46.5q-1 -7 -2.5 -14.5t-5.5 -14.5v-1zM569 155l-10 -67q-48 -26 -107 -41.5 t-121 -16.5h-6h-6q-91 0 -172 36t-121 118q-10 20 -15 42t-5 44q0 8 1 16l2 16q13 85 54 155t111 120q35 25 76 42t84 17h4h5q2 0 4 -0.5t4 -0.5q79 -8 118 -70t39 -135v-1.5v-1.5q0 -13 -1 -26.5t-4 -27.5q-6 -27 -15.5 -53.5t-20.5 -52.5q-2 2 -4 3.5t-3 3.5q-2 1 -4 3 t-4 3q-22 20 -31 42t-9 44q0 21 5.5 43t11.5 43q3 10 6 19.5t5 19.5l-1.5 1.5l-1.5 1.5q-13 11 -30 21t-36 17q-11 4 -21.5 6.5t-20.5 2.5q-41 2 -78 -14.5t-70 -39.5q-8 -5 -15.5 -11t-15.5 -12q-46 -37 -83 -89.5t-32 -112.5q2 -18 5.5 -34.5t10.5 -30.5q18 -36 57.5 -54 t88.5 -26q11 -1 21.5 -2.5t21.5 -1.5q10 -1 21 -1.5t21 -0.5t20.5 0.5t21.5 1.5q62 3 124 15t121 27v0z" />
<glyph unicode="&#xc8;" horiz-adv-x="634" d="M630 200q-4 -8 -8 -16.5t-8 -16.5q-2 -4 -4 -8.5t-4 -8.5q-6 -12 -12.5 -24.5t-12.5 -24.5q-5 -11 -26.5 -21t-45.5 -19q-20 -6 -38.5 -11t-27.5 -7q-25 -5 -62 -9t-78 -4q-14 0 -28.5 0.5t-28.5 1.5q-90 8 -164.5 43t-74.5 118v5.5v4.5t0.5 4.5t0.5 5.5q9 72 65.5 109 t122.5 52q22 5 44 8t42 5q-46 15 -85 40.5t-50 82.5q-1 5 -1.5 10.5t-0.5 10.5q0 49 38 85t84 47q2 0 3.5 0.5t2.5 0.5q4 1 7.5 1.5t7.5 0.5q3 1 6.5 1h7.5t8.5 -0.5t9.5 -0.5q37 -5 73 -23.5t64 -41.5q0 1 0.5 2.5t0.5 2.5v2.5v2.5q0 4 -0.5 8t-1.5 8v1.5v1.5 q-1 3 -1.5 6.5t-0.5 6.5v2v2q0 6 4.5 9.5t9.5 3.5h1.5t1.5 -1q4 -1 7 -4t4 -9q1 -9 2 -16.5t2 -14.5v-2.5v-2.5q0 -7 -1.5 -14.5t-5.5 -16.5q25 -27 36.5 -56.5t11.5 -64.5v-11t-1 -12t-2.5 -13t-3.5 -15q-6 -17 -17.5 -31.5t-27.5 -14.5q-4 0 -8.5 1.5t-9.5 3.5 q-22 11 -29.5 32t-7.5 46q0 17 3 34t6 32q0 2 0.5 4.5t1.5 4.5q-26 21 -59.5 36.5t-67.5 22.5q-16 3 -32 4.5t-31 0.5q-28 -2 -48 -13t-20 -39q0 -4 0.5 -7.5t1.5 -8.5q9 -47 47 -70t83 -37q7 -2 14 -4.5t14 -4.5q10 -3 19.5 -6t18.5 -7l16 -92q-15 2 -29.5 3t-28.5 3 q-14 1 -28.5 1.5t-29.5 0.5q-19 0 -39.5 -1.5t-40.5 -5.5q-13 -2 -29.5 -6.5t-33.5 -10.5q-34 -12 -61.5 -32t-27.5 -51v-2t1 -2v-2v-2q3 -17 17.5 -26.5t30.5 -14.5q8 -2 15.5 -4t13.5 -3q43 -10 85.5 -14.5t84.5 -4.5q89 0 175 20.5t168 59.5v0zM477 391q2 5 3.5 9t1.5 9 q1 4 1.5 8.5t0.5 8.5q0 19 -8 36.5t-22 33.5q0 -2 -0.5 -4.5t-1.5 -4.5q-1 -9 -2 -20t-1 -23q0 -20 5 -37t19 -17h0.5t1.5 1h1.5h0.5v0zM378 700l-10 -24q-41 12 -82.5 24t-83.5 24q-13 4 -19 13.5t-6 19.5q0 14 9.5 25.5t24.5 11.5q5 0 9.5 -1.5t9.5 -4.5q18 -11 36.5 -22 t37.5 -22t37.5 -22t36.5 -22v0z" />
<glyph unicode="&#xc9;" horiz-adv-x="634" d="M630 200q-4 -8 -8 -16.5t-8 -16.5q-2 -4 -4 -8.5t-4 -8.5q-6 -12 -12.5 -24.5t-12.5 -24.5q-5 -11 -26.5 -21t-45.5 -19q-20 -6 -38.5 -11t-27.5 -7q-25 -5 -62 -9t-78 -4q-14 0 -28.5 0.5t-28.5 1.5q-90 8 -164.5 43t-74.5 118v5.5v4.5t0.5 4.5t0.5 5.5q9 72 65.5 109 t122.5 52q22 5 44 8t42 5q-46 15 -85 40.5t-50 82.5q-1 5 -1.5 10.5t-0.5 10.5q0 49 38 85t84 47q2 0 3.5 0.5t2.5 0.5q4 1 7.5 1.5t7.5 0.5q3 1 6.5 1h7.5t8.5 -0.5t9.5 -0.5q37 -5 73 -23.5t64 -41.5q0 1 0.5 2.5t0.5 2.5v2.5v2.5q0 4 -0.5 8t-1.5 8v1.5v1.5 q-1 3 -1.5 6.5t-0.5 6.5v2v2q0 6 4.5 9.5t9.5 3.5h1.5t1.5 -1q4 -1 7 -4t4 -9q1 -9 2 -16.5t2 -14.5v-2.5v-2.5q0 -7 -1.5 -14.5t-5.5 -16.5q25 -27 36.5 -56.5t11.5 -64.5v-11t-1 -12t-2.5 -13t-3.5 -15q-6 -17 -17.5 -31.5t-27.5 -14.5q-4 0 -8.5 1.5t-9.5 3.5 q-22 11 -29.5 32t-7.5 46q0 17 3 34t6 32q0 2 0.5 4.5t1.5 4.5q-26 21 -59.5 36.5t-67.5 22.5q-16 3 -32 4.5t-31 0.5q-28 -2 -48 -13t-20 -39q0 -4 0.5 -7.5t1.5 -8.5q9 -47 47 -70t83 -37q7 -2 14 -4.5t14 -4.5q10 -3 19.5 -6t18.5 -7l16 -92q-15 2 -29.5 3t-28.5 3 q-14 1 -28.5 1.5t-29.5 0.5q-19 0 -39.5 -1.5t-40.5 -5.5q-13 -2 -29.5 -6.5t-33.5 -10.5q-34 -12 -61.5 -32t-27.5 -51v-2t1 -2v-2v-2q3 -17 17.5 -26.5t30.5 -14.5q8 -2 15.5 -4t13.5 -3q43 -10 85.5 -14.5t84.5 -4.5q89 0 175 20.5t168 59.5v0zM477 391q2 5 3.5 9t1.5 9 q1 4 1.5 8.5t0.5 8.5q0 19 -8 36.5t-22 33.5q0 -2 -0.5 -4.5t-1.5 -4.5q-1 -9 -2 -20t-1 -23q0 -20 5 -37t19 -17h0.5t1.5 1h1.5h0.5v0zM478 734q-42 -12 -83.5 -24t-82.5 -24l-10 24q18 11 36.5 22t37.5 22t37.5 22t36.5 22q5 3 10.5 4.5t9.5 1.5q15 0 24 -12t9 -26 q0 -10 -5.5 -19t-19.5 -13v0z" />
<glyph unicode="&#xca;" horiz-adv-x="634" d="M630 200q-4 -8 -8 -16.5t-8 -16.5q-2 -4 -4 -8.5t-4 -8.5q-6 -12 -12.5 -24.5t-12.5 -24.5q-5 -11 -26.5 -21t-45.5 -19q-20 -6 -38.5 -11t-27.5 -7q-25 -5 -62 -9t-78 -4q-14 0 -28.5 0.5t-28.5 1.5q-90 8 -164.5 43t-74.5 118v5.5v4.5t0.5 4.5t0.5 5.5q9 72 65.5 109 t122.5 52q22 5 44 8t42 5q-46 15 -85 40.5t-50 82.5q-1 5 -1.5 10.5t-0.5 10.5q0 49 38 85t84 47q2 0 3.5 0.5t2.5 0.5q4 1 7.5 1.5t7.5 0.5q3 1 6.5 1h7.5t8.5 -0.5t9.5 -0.5q37 -5 73 -23.5t64 -41.5q0 1 0.5 2.5t0.5 2.5v2.5v2.5q0 4 -0.5 8t-1.5 8v1.5v1.5 q-1 3 -1.5 6.5t-0.5 6.5v2v2q0 6 4.5 9.5t9.5 3.5h1.5t1.5 -1q4 -1 7 -4t4 -9q1 -9 2 -16.5t2 -14.5v-2.5v-2.5q0 -7 -1.5 -14.5t-5.5 -16.5q25 -27 36.5 -56.5t11.5 -64.5v-11t-1 -12t-2.5 -13t-3.5 -15q-6 -17 -17.5 -31.5t-27.5 -14.5q-4 0 -8.5 1.5t-9.5 3.5 q-22 11 -29.5 32t-7.5 46q0 17 3 34t6 32q0 2 0.5 4.5t1.5 4.5q-26 21 -59.5 36.5t-67.5 22.5q-16 3 -32 4.5t-31 0.5q-28 -2 -48 -13t-20 -39q0 -4 0.5 -7.5t1.5 -8.5q9 -47 47 -70t83 -37q7 -2 14 -4.5t14 -4.5q10 -3 19.5 -6t18.5 -7l16 -92q-15 2 -29.5 3t-28.5 3 q-14 1 -28.5 1.5t-29.5 0.5q-19 0 -39.5 -1.5t-40.5 -5.5q-13 -2 -29.5 -6.5t-33.5 -10.5q-34 -12 -61.5 -32t-27.5 -51v-2t1 -2v-2v-2q3 -17 17.5 -26.5t30.5 -14.5q8 -2 15.5 -4t13.5 -3q43 -10 85.5 -14.5t84.5 -4.5q89 0 175 20.5t168 59.5v0zM477 391q2 5 3.5 9t1.5 9 q1 4 1.5 8.5t0.5 8.5q0 19 -8 36.5t-22 33.5q0 -2 -0.5 -4.5t-1.5 -4.5q-1 -9 -2 -20t-1 -23q0 -20 5 -37t19 -17h0.5t1.5 1h1.5h0.5v0zM396 667l-2.5 -2.5t-2.5 -1.5l-3 -1.5t-3 -0.5q-1 0 -3.5 1.5t-5.5 3.5q-9 7 -17.5 13.5t-17.5 12.5t-17.5 12t-17.5 12h-10 q-9 -6 -18.5 -12.5t-19.5 -12.5t-19.5 -12.5t-19.5 -12.5q-3 -2 -5 -3t-4 -1t-4.5 1.5t-5.5 5.5q-2 2 -3 4.5t-1 4.5q0 3 1.5 5.5t4.5 4.5l21.5 21.5t20.5 21.5l21.5 21.5t20.5 21.5h30l20 -22t20 -21q9 -11 19 -22l20 -22q3 -3 4.5 -5.5t1.5 -4.5t-1.5 -4.5t-3.5 -5.5v0z " />
<glyph unicode="&#xcb;" horiz-adv-x="634" d="M630 200q-4 -8 -8 -16.5t-8 -16.5q-2 -4 -4 -8.5t-4 -8.5q-6 -12 -12.5 -24.5t-12.5 -24.5q-5 -11 -26.5 -21t-45.5 -19q-20 -6 -38.5 -11t-27.5 -7q-25 -5 -62 -9t-78 -4q-14 0 -28.5 0.5t-28.5 1.5q-90 8 -164.5 43t-74.5 118v5.5v4.5t0.5 4.5t0.5 5.5q9 72 65.5 109 t122.5 52q22 5 44 8t42 5q-46 15 -85 40.5t-50 82.5q-1 5 -1.5 10.5t-0.5 10.5q0 49 38 85t84 47q2 0 3.5 0.5t2.5 0.5q4 1 7.5 1.5t7.5 0.5q3 1 6.5 1h7.5t8.5 -0.5t9.5 -0.5q37 -5 73 -23.5t64 -41.5q0 1 0.5 2.5t0.5 2.5v2.5v2.5q0 4 -0.5 8t-1.5 8v1.5v1.5 q-1 3 -1.5 6.5t-0.5 6.5v2v2q0 6 4.5 9.5t9.5 3.5h1.5t1.5 -1q4 -1 7 -4t4 -9q1 -9 2 -16.5t2 -14.5v-2.5v-2.5q0 -7 -1.5 -14.5t-5.5 -16.5q25 -27 36.5 -56.5t11.5 -64.5v-11t-1 -12t-2.5 -13t-3.5 -15q-6 -17 -17.5 -31.5t-27.5 -14.5q-4 0 -8.5 1.5t-9.5 3.5 q-22 11 -29.5 32t-7.5 46q0 17 3 34t6 32q0 2 0.5 4.5t1.5 4.5q-26 21 -59.5 36.5t-67.5 22.5q-16 3 -32 4.5t-31 0.5q-28 -2 -48 -13t-20 -39q0 -4 0.5 -7.5t1.5 -8.5q9 -47 47 -70t83 -37q7 -2 14 -4.5t14 -4.5q10 -3 19.5 -6t18.5 -7l16 -92q-15 2 -29.5 3t-28.5 3 q-14 1 -28.5 1.5t-29.5 0.5q-19 0 -39.5 -1.5t-40.5 -5.5q-13 -2 -29.5 -6.5t-33.5 -10.5q-34 -12 -61.5 -32t-27.5 -51v-2t1 -2v-2v-2q3 -17 17.5 -26.5t30.5 -14.5q8 -2 15.5 -4t13.5 -3q43 -10 85.5 -14.5t84.5 -4.5q89 0 175 20.5t168 59.5v0zM477 391q2 5 3.5 9t1.5 9 q1 4 1.5 8.5t0.5 8.5q0 19 -8 36.5t-22 33.5q0 -2 -0.5 -4.5t-1.5 -4.5q-1 -9 -2 -20t-1 -23q0 -20 5 -37t19 -17h0.5t1.5 1h1.5h0.5v0zM285 715q0 -13 -10.5 -23.5t-24.5 -10.5q-13 0 -23.5 10.5t-10.5 23.5q0 14 10.5 24.5t23.5 10.5q14 0 24.5 -10.5t10.5 -24.5v0z M371 715q0 -13 -10.5 -23.5t-24.5 -10.5q-13 0 -23 10.5t-10 23.5q0 14 10 24.5t23 10.5q14 0 24.5 -10.5t10.5 -24.5v0z" />
<glyph unicode="&#xcc;" horiz-adv-x="632" d="M628 302q-19 -38 -42.5 -67.5t-72.5 -34.5q8 -22 15 -45t15 -45q7 -23 14.5 -45.5t14.5 -45.5q1 -2 1 -3.5v-3.5q0 -6 -4.5 -9t-9.5 -3h-1.5h-1.5q-3 0 -6 2.5t-4 7.5q-14 44 -28.5 87.5t-28.5 87.5q-23 -73 -89 -108.5t-142 -35.5h-2h-2q-76 1 -143 36t-93 102 q-4 10 -5.5 20.5t-1.5 21.5q0 36 21.5 66t62.5 28l82 -2l82 -2l82 -2l82 -2q-43 52 -77 112.5t-34 127.5q1 19 4 38t10 38q13 37 36.5 53.5t53.5 15.5q13 0 27 -3t29 -8l-2 -75q-7 -1 -13.5 -1.5t-13.5 -2.5q7 -75 18.5 -149t28.5 -147l138 -4v0zM442 201q-24 2 -48 3.5 t-48 3.5q-20 1 -40 2.5t-40 3.5q-45 3 -89 5.5t-88 3.5q-17 1 -31.5 -2.5t-14.5 -19.5q0 -2 1 -5.5t2 -7.5q9 -20 50.5 -37t96.5 -23q13 -1 26.5 -2t26.5 -1q9 0 17.5 0.5t17.5 0.5q47 4 90.5 21t70.5 54v0zM461 306q-16 71 -27 142.5t-19 143.5q-20 -11 -34 -31.5 t-19 -42.5q-1 -5 -2 -11t-1 -11q-1 -47 21.5 -83t49.5 -69q7 -9 14.5 -18.5t14.5 -19.5h2v0zM408 728l-10 -24q-41 12 -82.5 24t-83.5 24q-13 4 -19 13.5t-6 19.5q0 14 9.5 25.5t24.5 11.5q5 0 9.5 -1.5t9.5 -4.5q18 -11 36.5 -22t37.5 -22t37.5 -22t36.5 -22v0z" />
<glyph unicode="&#xcd;" horiz-adv-x="632" d="M628 302q-19 -38 -42.5 -67.5t-72.5 -34.5q8 -22 15 -45t15 -45q7 -23 14.5 -45.5t14.5 -45.5q1 -2 1 -3.5v-3.5q0 -6 -4.5 -9t-9.5 -3h-1.5h-1.5q-3 0 -6 2.5t-4 7.5q-14 44 -28.5 87.5t-28.5 87.5q-23 -73 -89 -108.5t-142 -35.5h-2h-2q-76 1 -143 36t-93 102 q-4 10 -5.5 20.5t-1.5 21.5q0 36 21.5 66t62.5 28l82 -2l82 -2l82 -2l82 -2q-43 52 -77 112.5t-34 127.5q1 19 4 38t10 38q13 37 36.5 53.5t53.5 15.5q13 0 27 -3t29 -8l-2 -75q-7 -1 -13.5 -1.5t-13.5 -2.5q7 -75 18.5 -149t28.5 -147l138 -4v0zM442 201q-24 2 -48 3.5 t-48 3.5q-20 1 -40 2.5t-40 3.5q-45 3 -89 5.5t-88 3.5q-17 1 -31.5 -2.5t-14.5 -19.5q0 -2 1 -5.5t2 -7.5q9 -20 50.5 -37t96.5 -23q13 -1 26.5 -2t26.5 -1q9 0 17.5 0.5t17.5 0.5q47 4 90.5 21t70.5 54v0zM461 306q-16 71 -27 142.5t-19 143.5q-20 -11 -34 -31.5 t-19 -42.5q-1 -5 -2 -11t-1 -11q-1 -47 21.5 -83t49.5 -69q7 -9 14.5 -18.5t14.5 -19.5h2v0zM518 752q-42 -12 -83.5 -24t-82.5 -24l-10 24q18 11 36.5 22t37.5 22t37.5 22t36.5 22q5 3 10.5 4.5t9.5 1.5q15 0 24 -12t9 -26q0 -10 -5.5 -19t-19.5 -13v0z" />
<glyph unicode="&#xce;" horiz-adv-x="632" d="M628 302q-19 -38 -42.5 -67.5t-72.5 -34.5q8 -22 15 -45t15 -45q7 -23 14.5 -45.5t14.5 -45.5q1 -2 1 -3.5v-3.5q0 -6 -4.5 -9t-9.5 -3h-1.5h-1.5q-3 0 -6 2.5t-4 7.5q-14 44 -28.5 87.5t-28.5 87.5q-23 -73 -89 -108.5t-142 -35.5h-2h-2q-76 1 -143 36t-93 102 q-4 10 -5.5 20.5t-1.5 21.5q0 36 21.5 66t62.5 28l82 -2l82 -2l82 -2l82 -2q-43 52 -77 112.5t-34 127.5q1 19 4 38t10 38q13 37 36.5 53.5t53.5 15.5q13 0 27 -3t29 -8l-2 -75q-7 -1 -13.5 -1.5t-13.5 -2.5q7 -75 18.5 -149t28.5 -147l138 -4v0zM442 201q-24 2 -48 3.5 t-48 3.5q-20 1 -40 2.5t-40 3.5q-45 3 -89 5.5t-88 3.5q-17 1 -31.5 -2.5t-14.5 -19.5q0 -2 1 -5.5t2 -7.5q9 -20 50.5 -37t96.5 -23q13 -1 26.5 -2t26.5 -1q9 0 17.5 0.5t17.5 0.5q47 4 90.5 21t70.5 54v0zM461 306q-16 71 -27 142.5t-19 143.5q-20 -11 -34 -31.5 t-19 -42.5q-1 -5 -2 -11t-1 -11q-1 -47 21.5 -83t49.5 -69q7 -9 14.5 -18.5t14.5 -19.5h2v0zM500 689l-2.5 -2.5t-2.5 -1.5l-3 -1.5t-3 -0.5q-1 0 -3.5 1.5t-5.5 3.5q-9 7 -17.5 13.5t-17.5 12.5t-17.5 12t-17.5 12h-10q-9 -6 -18.5 -12.5t-19.5 -12.5t-19.5 -12.5 t-19.5 -12.5q-3 -2 -5 -3t-4 -1t-4.5 1.5t-5.5 5.5q-2 2 -3 4.5t-1 4.5q0 3 1.5 5.5t4.5 4.5l21.5 21.5t20.5 21.5l21.5 21.5t20.5 21.5h30l20 -22t20 -21q9 -11 19 -22l20 -22q3 -3 4.5 -5.5t1.5 -4.5t-1.5 -4.5t-3.5 -5.5v0z" />
<glyph unicode="&#xcf;" horiz-adv-x="632" d="M628 302q-19 -38 -42.5 -67.5t-72.5 -34.5q8 -22 15 -45t15 -45q7 -23 14.5 -45.5t14.5 -45.5q1 -2 1 -3.5v-3.5q0 -6 -4.5 -9t-9.5 -3h-1.5h-1.5q-3 0 -6 2.5t-4 7.5q-14 44 -28.5 87.5t-28.5 87.5q-23 -73 -89 -108.5t-142 -35.5h-2h-2q-76 1 -143 36t-93 102 q-4 10 -5.5 20.5t-1.5 21.5q0 36 21.5 66t62.5 28l82 -2l82 -2l82 -2l82 -2q-43 52 -77 112.5t-34 127.5q1 19 4 38t10 38q13 37 36.5 53.5t53.5 15.5q13 0 27 -3t29 -8l-2 -75q-7 -1 -13.5 -1.5t-13.5 -2.5q7 -75 18.5 -149t28.5 -147l138 -4v0zM442 201q-24 2 -48 3.5 t-48 3.5q-20 1 -40 2.5t-40 3.5q-45 3 -89 5.5t-88 3.5q-17 1 -31.5 -2.5t-14.5 -19.5q0 -2 1 -5.5t2 -7.5q9 -20 50.5 -37t96.5 -23q13 -1 26.5 -2t26.5 -1q9 0 17.5 0.5t17.5 0.5q47 4 90.5 21t70.5 54v0zM461 306q-16 71 -27 142.5t-19 143.5q-20 -11 -34 -31.5 t-19 -42.5q-1 -5 -2 -11t-1 -11q-1 -47 21.5 -83t49.5 -69q7 -9 14.5 -18.5t14.5 -19.5h2v0zM393 741q0 -13 -10.5 -23.5t-24.5 -10.5q-13 0 -23.5 10.5t-10.5 23.5q0 14 10.5 24.5t23.5 10.5q14 0 24.5 -10.5t10.5 -24.5v0zM479 741q0 -13 -10.5 -23.5t-24.5 -10.5 q-13 0 -23 10.5t-10 23.5q0 14 10 24.5t23 10.5q14 0 24.5 -10.5t10.5 -24.5v0z" />
<glyph unicode="&#xd0;" horiz-adv-x="709" d="M685 321q1 -22 -4.5 -45.5t-15.5 -47.5q-19 -46 -52 -89t-69 -71q-10 -9 -20 -15.5t-20 -11.5t-22 -7.5t-26 -2.5q-17 0 -34.5 3.5t-36.5 8.5q-19 6 -39 14t-37 17q-19 9 -35 17.5t-28 14.5l-15 -75q-4 3 -8 5.5t-8 4.5q-57 37 -87 79t-55 108l73 77q24 -18 48 -35.5 t48 -34.5l5 26l-66 26q-4 2 -6.5 4.5t-2.5 5.5q-1 1 -1 2v2q0 5 3.5 9.5t9.5 4.5h2t2 -1l1 -0.5t2 -0.5l62 -24l3 16q-60 12 -114 38t-105 58q-19 12 -27.5 29t-8.5 36q0 4 0.5 8.5t1.5 8.5q4 25 19.5 49t34.5 39q50 40 108 61t118 23q11 1 21.5 1t20.5 -1q2 14 5 28.5 t6 27.5q2 7 6 10t9 3q5 -1 8.5 -4.5t3.5 -9.5v-2v-2l-10 -54q128 -16 226.5 -108t105.5 -223v0zM220 121q-26 15 -50 30t-47 29q15 -32 37 -57.5t51 -46.5l9 45v0zM600 278q-23 110 -93.5 172t-174.5 93l-28 -141q33 -4 66 -5.5t66 -3.5q-21 -43 -54 -68t-81 -25h-4h-4 q-3 0 -5 0.5t-4 0.5l-4 -22l114 -45q4 -2 6.5 -4.5t2.5 -5.5q1 -1 1 -2v-2q0 -5 -3.5 -9.5t-9.5 -4.5h-2t-1 1q-1 0 -2 0.5t-2 0.5l-110 43l-6 -33q47 -32 98 -59t105 -47q11 -4 20.5 -6t18.5 -2q43 0 67 38t27 84v6.5v6.5q0 11 -1 20.5t-3 18.5v0zM304 551q-5 1 -11 2.5 t-13 2.5q-18 3 -42 6t-49 4h-5.5h-5.5q-40 0 -74.5 -10t-46.5 -38q0 -1 -0.5 -2.5t-0.5 -2.5q-1 -1 -1 -2.5v-2.5q0 -23 36 -42t79 -33q33 -11 63 -18t43 -9l28 145v0z" />
<glyph unicode="&#xd1;" horiz-adv-x="645" d="M640 568l-37 -103q-9 6 -16 10.5t-13 4.5q-3 0 -5.5 -1t-4.5 -3t-4.5 -5t-5.5 -8q-3 -6 -5.5 -12.5t-4.5 -13.5q0 -3 -0.5 -6.5t-0.5 -6.5q-1 -41 -2 -81.5t-2 -81.5q-1 -40 -2 -80.5t-2 -81.5l17 -46l-70 -54l-206 458q1 -6 1.5 -11.5t0.5 -10.5q7 -56 12 -112t5 -113 q0 -64 -10.5 -128t-37.5 -125q-15 -35 -34 -51t-41 -16q-11 0 -23 5t-24 15q-8 6 -16 14.5t-16 19.5q-24 32 -43 69.5t-32 76.5l-8 24t-7 24l67 69q3 -8 6 -16.5t6 -16.5q23 -60 54 -116t83 -94q28 59 38.5 122.5t10.5 128.5q0 36 -2.5 73t-6.5 74q-2 18 -4 36.5t-4 37.5 q-5 40 -9.5 80t-6.5 79l72 70q2 -2 4.5 -4t4.5 -4q9 -8 16.5 -17t12.5 -22q21 -56 41.5 -112t40.5 -111q20 -56 40.5 -112t41.5 -112q2 71 3.5 142.5t3.5 142.5v1.5v1.5q2 48 18.5 88t54.5 39q11 0 23.5 -4.5t27.5 -13.5v0zM600 719q-1 -13 -6.5 -26t-15.5 -22 q-11 -12 -28 -18t-35 -6q-15 0 -29 4.5t-25 13.5q-3 3 -7.5 6.5t-8.5 6.5l-10 8t-10 7q-3 1 -6.5 2.5t-6.5 1.5h-1.5h-2.5q-10 0 -17 -8.5t-11 -18.5q-1 -3 -2 -6.5t-1 -6.5q0 -5 -2 -9.5t-13 -3.5q-8 0 -11 3.5t-2 7.5v0.5v1.5v1.5v0.5v2.5v2.5v0.5v1.5v3.5v3.5 q1 29 21.5 49t49.5 20q20 0 34 -7.5t27 -18.5q3 -2 6 -4.5t6 -5.5q8 -7 17 -10.5t18 -3.5q18 0 30.5 12.5t13.5 30.5q0 5 2 9.5t12 3.5q8 -1 11 -4t3 -9v-3.5t-1 -4.5q1 -1 1 -3.5v-4.5v0z" />
<glyph unicode="&#xd2;" horiz-adv-x="200" />
<glyph unicode="&#xd3;" horiz-adv-x="731" d="M718 428q2 -13 3 -25.5t1 -24.5q0 -128 -94 -226t-219 -119q-14 -2 -29 -3.5t-30 -1.5q-13 0 -26 1t-26 3q-113 15 -205.5 91t-85.5 199q8 115 90 162t179 52q19 1 38 0.5t37 -1.5q11 -1 23 -3t24 -5q22 -6 43.5 -14.5t39.5 -19.5q3 -1 4.5 -3.5t2.5 -4.5v-2v-2 q0 -6 -4 -10.5t-10 -3.5h-2h-2t-2 0.5t-2 1.5q-19 11 -41.5 20t-45.5 14q-7 1 -14.5 2t-15.5 2q-52 4 -103.5 -3t-96.5 -38q-31 -22 -45.5 -50t-14.5 -57q0 -4 0.5 -9t0.5 -9q5 -36 27 -70.5t53 -61.5q52 -44 116.5 -65t132.5 -23h10.5h11.5q69 1 128 28.5t68 106.5 q2 10 2 19.5v18.5q0 65 -29 119t-85 93q-46 32 -95 44t-100 12q-35 0 -71 -4.5t-73 -11.5l-13 23q41 45 99.5 66.5t122.5 20.5h10t10 -1q105 -5 195 -64t108 -163v0zM524 720q-42 -12 -83.5 -24t-82.5 -24l-10 24q18 11 36.5 22t37.5 22t37.5 22t36.5 22q5 3 10.5 4.5 t9.5 1.5q15 0 24 -12t9 -26q0 -10 -5.5 -19t-19.5 -13v0z" />
<glyph unicode="&#xd4;" horiz-adv-x="731" d="M718 428q2 -13 3 -25.5t1 -24.5q0 -128 -94 -226t-219 -119q-14 -2 -29 -3.5t-30 -1.5q-13 0 -26 1t-26 3q-113 15 -205.5 91t-85.5 199q8 115 90 162t179 52q19 1 38 0.5t37 -1.5q11 -1 23 -3t24 -5q22 -6 43.5 -14.5t39.5 -19.5q3 -1 4.5 -3.5t2.5 -4.5v-2v-2 q0 -6 -4 -10.5t-10 -3.5h-2h-2t-2 0.5t-2 1.5q-19 11 -41.5 20t-45.5 14q-7 1 -14.5 2t-15.5 2q-52 4 -103.5 -3t-96.5 -38q-31 -22 -45.5 -50t-14.5 -57q0 -4 0.5 -9t0.5 -9q5 -36 27 -70.5t53 -61.5q52 -44 116.5 -65t132.5 -23h10.5h11.5q69 1 128 28.5t68 106.5 q2 10 2 19.5v18.5q0 65 -29 119t-85 93q-46 32 -95 44t-100 12q-35 0 -71 -4.5t-73 -11.5l-13 23q41 45 99.5 66.5t122.5 20.5h10t10 -1q105 -5 195 -64t108 -163v0zM474 673l-2.5 -2.5t-2.5 -1.5l-3 -1.5t-3 -0.5q-1 0 -3.5 1.5t-5.5 3.5q-9 7 -17.5 13.5t-17.5 12.5 t-17.5 12t-17.5 12h-10q-9 -6 -18.5 -12.5t-19.5 -12.5t-19.5 -12.5t-19.5 -12.5q-3 -2 -5 -3t-4 -1t-4.5 1.5t-5.5 5.5q-2 2 -3 4.5t-1 4.5q0 3 1.5 5.5t4.5 4.5l21.5 21.5t20.5 21.5l21.5 21.5t20.5 21.5h30l20 -22t20 -21q9 -11 19 -22l20 -22q3 -3 4.5 -5.5t1.5 -4.5 t-1.5 -4.5t-3.5 -5.5v0z" />
<glyph unicode="&#xd5;" horiz-adv-x="731" d="M718 428q2 -13 3 -25.5t1 -24.5q0 -128 -94 -226t-219 -119q-14 -2 -29 -3.5t-30 -1.5q-13 0 -26 1t-26 3q-113 15 -205.5 91t-85.5 199q8 115 90 162t179 52q19 1 38 0.5t37 -1.5q11 -1 23 -3t24 -5q22 -6 43.5 -14.5t39.5 -19.5q3 -1 4.5 -3.5t2.5 -4.5v-2v-2 q0 -6 -4 -10.5t-10 -3.5h-2h-2t-2 0.5t-2 1.5q-19 11 -41.5 20t-45.5 14q-7 1 -14.5 2t-15.5 2q-52 4 -103.5 -3t-96.5 -38q-31 -22 -45.5 -50t-14.5 -57q0 -4 0.5 -9t0.5 -9q5 -36 27 -70.5t53 -61.5q52 -44 116.5 -65t132.5 -23h10.5h11.5q69 1 128 28.5t68 106.5 q2 10 2 19.5v18.5q0 65 -29 119t-85 93q-46 32 -95 44t-100 12q-35 0 -71 -4.5t-73 -11.5l-13 23q41 45 99.5 66.5t122.5 20.5h10t10 -1q105 -5 195 -64t108 -163v0zM508 745q-1 -13 -6.5 -26t-15.5 -22q-11 -12 -28 -18t-35 -6q-15 0 -29 4.5t-25 13.5q-3 3 -7.5 6.5 t-8.5 6.5l-10 8t-10 7q-3 1 -6.5 2.5t-6.5 1.5h-1.5h-2.5q-10 0 -17 -8.5t-11 -18.5q-1 -3 -2 -6.5t-1 -6.5q0 -5 -2 -9.5t-13 -3.5q-8 0 -11 3.5t-2 7.5v0.5v1.5v1.5v0.5v2.5v2.5v0.5v1.5v3.5v3.5q1 29 21.5 49t49.5 20q20 0 34 -7.5t27 -18.5q3 -2 6 -4.5t6 -5.5 q8 -7 17 -10.5t18 -3.5q18 0 30.5 12.5t13.5 30.5q0 5 2 9.5t12 3.5q8 -1 11 -4t3 -9v-3.5t-1 -4.5q1 -1 1 -3.5v-4.5v0z" />
<glyph unicode="&#xd6;" horiz-adv-x="731" d="M718 428q2 -13 3 -25.5t1 -24.5q0 -128 -94 -226t-219 -119q-14 -2 -29 -3.5t-30 -1.5q-13 0 -26 1t-26 3q-113 15 -205.5 91t-85.5 199q8 115 90 162t179 52q19 1 38 0.5t37 -1.5q11 -1 23 -3t24 -5q22 -6 43.5 -14.5t39.5 -19.5q3 -1 4.5 -3.5t2.5 -4.5v-2v-2 q0 -6 -4 -10.5t-10 -3.5h-2h-2t-2 0.5t-2 1.5q-19 11 -41.5 20t-45.5 14q-7 1 -14.5 2t-15.5 2q-52 4 -103.5 -3t-96.5 -38q-31 -22 -45.5 -50t-14.5 -57q0 -4 0.5 -9t0.5 -9q5 -36 27 -70.5t53 -61.5q52 -44 116.5 -65t132.5 -23h10.5h11.5q69 1 128 28.5t68 106.5 q2 10 2 19.5v18.5q0 65 -29 119t-85 93q-46 32 -95 44t-100 12q-35 0 -71 -4.5t-73 -11.5l-13 23q41 45 99.5 66.5t122.5 20.5h10t10 -1q105 -5 195 -64t108 -163v0zM369 705q0 -13 -10.5 -23.5t-24.5 -10.5q-13 0 -23.5 10.5t-10.5 23.5q0 14 10.5 24.5t23.5 10.5 q14 0 24.5 -10.5t10.5 -24.5v0zM455 705q0 -13 -10.5 -23.5t-24.5 -10.5q-13 0 -23 10.5t-10 23.5q0 14 10 24.5t23 10.5q14 0 24.5 -10.5t10.5 -24.5v0z" />
<glyph unicode="&#xd7;" />
<glyph unicode="&#xd8;" horiz-adv-x="751" d="M714 428q2 -13 3 -25.5t1 -24.5q0 -128 -94 -226t-219 -119q-14 -2 -28.5 -3.5t-29.5 -1.5q-13 0 -26.5 1t-26.5 3q-14 2 -27.5 4.5t-26.5 6.5l-26 -53l-4.5 -4.5t-5.5 -2.5q-1 -1 -2 -1h-2q-5 0 -9.5 3.5t-4.5 10.5q0 1 0.5 2.5t1.5 3.5l25 49q-90 32 -153 101.5 t-57 169.5q8 115 90 162t179 52q19 1 38 0.5t37 -1.5q10 -1 20.5 -2.5t20.5 -3.5q14 -3 27.5 -7.5t26.5 -10.5l15 28q-31 13 -64 18t-67 5q-35 0 -71 -4.5t-73 -11.5l-13 23q41 45 99.5 66t122.5 21q7 0 14.5 -0.5t14.5 -0.5q22 -2 44 -6t43 -10l20 40q2 3 4.5 5.5t5.5 2.5 q1 1 2 1h2q5 -1 9 -4.5t4 -10.5q0 -1 -0.5 -3t-1.5 -4l-18 -36q68 -27 117.5 -78t62.5 -124v0zM633 256q2 10 2 19.5v18.5q0 65 -29 119t-85 93q-9 6 -18.5 12t-19.5 10l-15 -30q1 -1 2 -1.5t3 -0.5q1 -1 2 -1.5t2 -1.5q3 -1 4.5 -3.5t2.5 -4.5v-2v-2q0 -6 -4 -10.5 t-10 -3.5h-2h-2t-2 0.5t-2 1.5q-1 0 -2 0.5t-1 1.5q-1 1 -2 1.5t-2 0.5l-165 -331q35 -11 72.5 -16.5t74.5 -4.5q69 1 128 28.5t68 106.5v0zM430 485q-12 5 -25 9.5t-26 7.5q-8 2 -17 3t-17 2t-16 1t-16 1q-44 0 -87 -8.5t-81 -34.5q-31 -22 -45.5 -50t-14.5 -57 q0 -4 0.5 -9t0.5 -9q5 -36 27 -70.5t53 -61.5q22 -18 46.5 -32t50.5 -25l167 333v0z" />
<glyph unicode="&#xd9;" horiz-adv-x="692" d="M687 161q-5 -5 -9.5 -11t-8.5 -11t-8 -10.5t-8 -10.5q-27 -35 -56.5 -64t-69.5 -29q-15 0 -31.5 5t-34.5 17q-35 23 -54.5 57.5t-27.5 73.5l-8 -14t-8 -15q-27 -45 -68 -82.5t-93 -37.5q-12 0 -24 2.5t-25 7.5q-54 22 -80 79t-30 121q-1 7 -1 14.5v14.5q0 37 6 70.5 t16 59.5l13.5 27t20.5 38q-18 11 -34 27t-31 33q-5 6 -9.5 11t-8.5 10l-5.5 5.5t-4.5 5.5q26 14 51.5 27.5t50.5 26.5q9 -18 18.5 -35t21.5 -34q6 8 14.5 19.5t18.5 23.5q16 18 36 34.5t41 22.5q4 1 8.5 1.5t8.5 0.5h5.5t5.5 -1t5.5 -1.5t5.5 -2.5q14 -7 19 -17.5t5 -23.5 v-6t-1 -5q-1 -9 -4 -17.5t-7 -15.5q-22 -44 -61.5 -76.5t-93.5 -29.5q-5 -25 -8.5 -53t-3.5 -57q0 -39 7 -77t23 -71q12 -24 30 -41t45 -22q5 -1 10 -1.5t9 -0.5q35 0 59 27t39 59q3 6 5.5 11.5t4.5 10.5q-4 62 5.5 123t21.5 122v2v2q3 16 6 31.5t6 30.5l127 72 q-4 -23 -8.5 -47t-9.5 -47q-6 -30 -12 -60.5t-10 -60.5q-4 -28 -6.5 -55t-2.5 -54q0 -16 1 -32t3 -32v-1.5v-1.5q6 -40 24.5 -74t54.5 -33q9 0 19 2.5t21 7.5q12 5 19 12t14 15q4 6 8.5 12.5t10.5 13.5q3 3 6 4.5t6 1.5q6 -1 10 -5t4 -10q0 -2 -1 -4.5t-3 -4.5v0zM258 586 q-3 1 -6 1.5t-6 0.5q-16 0 -30 -13.5t-25 -29.5q-5 -9 -9.5 -18l-7.5 -15q11 -8 20.5 -11.5t17.5 -3.5q18 1 31 14.5t19 30.5q3 6 4 12.5t1 11.5q0 8 -2 13.5t-7 6.5v0zM396 670l-10 -24q-41 12 -82.5 24t-83.5 24q-13 4 -19 13.5t-6 19.5q0 14 9.5 25.5t24.5 11.5 q5 0 9.5 -1.5t9.5 -4.5q18 -11 36.5 -22t37.5 -22t37.5 -22t36.5 -22v0z" />
<glyph unicode="&#xda;" horiz-adv-x="692" d="M687 161q-5 -5 -9.5 -11t-8.5 -11t-8 -10.5t-8 -10.5q-27 -35 -56.5 -64t-69.5 -29q-15 0 -31.5 5t-34.5 17q-35 23 -54.5 57.5t-27.5 73.5l-8 -14t-8 -15q-27 -45 -68 -82.5t-93 -37.5q-12 0 -24 2.5t-25 7.5q-54 22 -80 79t-30 121q-1 7 -1 14.5v14.5q0 37 6 70.5 t16 59.5l13.5 27t20.5 38q-18 11 -34 27t-31 33q-5 6 -9.5 11t-8.5 10l-5.5 5.5t-4.5 5.5q26 14 51.5 27.5t50.5 26.5q9 -18 18.5 -35t21.5 -34q6 8 14.5 19.5t18.5 23.5q16 18 36 34.5t41 22.5q4 1 8.5 1.5t8.5 0.5h5.5t5.5 -1t5.5 -1.5t5.5 -2.5q14 -7 19 -17.5t5 -23.5 v-6t-1 -5q-1 -9 -4 -17.5t-7 -15.5q-22 -44 -61.5 -76.5t-93.5 -29.5q-5 -25 -8.5 -53t-3.5 -57q0 -39 7 -77t23 -71q12 -24 30 -41t45 -22q5 -1 10 -1.5t9 -0.5q35 0 59 27t39 59q3 6 5.5 11.5t4.5 10.5q-4 62 5.5 123t21.5 122v2v2q3 16 6 31.5t6 30.5l127 72 q-4 -23 -8.5 -47t-9.5 -47q-6 -30 -12 -60.5t-10 -60.5q-4 -28 -6.5 -55t-2.5 -54q0 -16 1 -32t3 -32v-1.5v-1.5q6 -40 24.5 -74t54.5 -33q9 0 19 2.5t21 7.5q12 5 19 12t14 15q4 6 8.5 12.5t10.5 13.5q3 3 6 4.5t6 1.5q6 -1 10 -5t4 -10q0 -2 -1 -4.5t-3 -4.5v0zM258 586 q-3 1 -6 1.5t-6 0.5q-16 0 -30 -13.5t-25 -29.5q-5 -9 -9.5 -18l-7.5 -15q11 -8 20.5 -11.5t17.5 -3.5q18 1 31 14.5t19 30.5q3 6 4 12.5t1 11.5q0 8 -2 13.5t-7 6.5v0zM504 692q-42 -12 -83.5 -24t-82.5 -24l-10 24q18 11 36.5 22t37.5 22t37.5 22t36.5 22q5 3 10.5 4.5 t9.5 1.5q15 0 24 -12t9 -26q0 -10 -5.5 -19t-19.5 -13v0z" />
<glyph unicode="&#xdb;" horiz-adv-x="692" d="M687 161q-5 -5 -9.5 -11t-8.5 -11t-8 -10.5t-8 -10.5q-27 -35 -56.5 -64t-69.5 -29q-15 0 -31.5 5t-34.5 17q-35 23 -54.5 57.5t-27.5 73.5l-8 -14t-8 -15q-27 -45 -68 -82.5t-93 -37.5q-12 0 -24 2.5t-25 7.5q-54 22 -80 79t-30 121q-1 7 -1 14.5v14.5q0 37 6 70.5 t16 59.5l13.5 27t20.5 38q-18 11 -34 27t-31 33q-5 6 -9.5 11t-8.5 10l-5.5 5.5t-4.5 5.5q26 14 51.5 27.5t50.5 26.5q9 -18 18.5 -35t21.5 -34q6 8 14.5 19.5t18.5 23.5q16 18 36 34.5t41 22.5q4 1 8.5 1.5t8.5 0.5h5.5t5.5 -1t5.5 -1.5t5.5 -2.5q14 -7 19 -17.5t5 -23.5 v-6t-1 -5q-1 -9 -4 -17.5t-7 -15.5q-22 -44 -61.5 -76.5t-93.5 -29.5q-5 -25 -8.5 -53t-3.5 -57q0 -39 7 -77t23 -71q12 -24 30 -41t45 -22q5 -1 10 -1.5t9 -0.5q35 0 59 27t39 59q3 6 5.5 11.5t4.5 10.5q-4 62 5.5 123t21.5 122v2v2q3 16 6 31.5t6 30.5l127 72 q-4 -23 -8.5 -47t-9.5 -47q-6 -30 -12 -60.5t-10 -60.5q-4 -28 -6.5 -55t-2.5 -54q0 -16 1 -32t3 -32v-1.5v-1.5q6 -40 24.5 -74t54.5 -33q9 0 19 2.5t21 7.5q12 5 19 12t14 15q4 6 8.5 12.5t10.5 13.5q3 3 6 4.5t6 1.5q6 -1 10 -5t4 -10q0 -2 -1 -4.5t-3 -4.5v0zM258 586 q-3 1 -6 1.5t-6 0.5q-16 0 -30 -13.5t-25 -29.5q-5 -9 -9.5 -18l-7.5 -15q11 -8 20.5 -11.5t17.5 -3.5q18 1 31 14.5t19 30.5q3 6 4 12.5t1 11.5q0 8 -2 13.5t-7 6.5v0zM454 659l-2.5 -2.5t-2.5 -1.5l-3 -1.5t-3 -0.5q-1 0 -3.5 1.5t-5.5 3.5q-9 7 -17.5 13.5t-17.5 12.5 t-17.5 12t-17.5 12h-10q-9 -6 -18.5 -12.5t-19.5 -12.5t-19.5 -12.5t-19.5 -12.5q-3 -2 -5 -3t-4 -1t-4.5 1.5t-5.5 5.5q-2 2 -3 4.5t-1 4.5q0 3 1.5 5.5t4.5 4.5l21.5 21.5t20.5 21.5l21.5 21.5t20.5 21.5h30l20 -22t20 -21q9 -11 19 -22l20 -22q3 -3 4.5 -5.5t1.5 -4.5 t-1.5 -4.5t-3.5 -5.5v0z" />
<glyph unicode="&#xdc;" horiz-adv-x="692" d="M687 161q-5 -5 -9.5 -11t-8.5 -11t-8 -10.5t-8 -10.5q-27 -35 -56.5 -64t-69.5 -29q-15 0 -31.5 5t-34.5 17q-35 23 -54.5 57.5t-27.5 73.5l-8 -14t-8 -15q-27 -45 -68 -82.5t-93 -37.5q-12 0 -24 2.5t-25 7.5q-54 22 -80 79t-30 121q-1 7 -1 14.5v14.5q0 37 6 70.5 t16 59.5l13.5 27t20.5 38q-18 11 -34 27t-31 33q-5 6 -9.5 11t-8.5 10l-5.5 5.5t-4.5 5.5q26 14 51.5 27.5t50.5 26.5q9 -18 18.5 -35t21.5 -34q6 8 14.5 19.5t18.5 23.5q16 18 36 34.5t41 22.5q4 1 8.5 1.5t8.5 0.5h5.5t5.5 -1t5.5 -1.5t5.5 -2.5q14 -7 19 -17.5t5 -23.5 v-6t-1 -5q-1 -9 -4 -17.5t-7 -15.5q-22 -44 -61.5 -76.5t-93.5 -29.5q-5 -25 -8.5 -53t-3.5 -57q0 -39 7 -77t23 -71q12 -24 30 -41t45 -22q5 -1 10 -1.5t9 -0.5q35 0 59 27t39 59q3 6 5.5 11.5t4.5 10.5q-4 62 5.5 123t21.5 122v2v2q3 16 6 31.5t6 30.5l127 72 q-4 -23 -8.5 -47t-9.5 -47q-6 -30 -12 -60.5t-10 -60.5q-4 -28 -6.5 -55t-2.5 -54q0 -16 1 -32t3 -32v-1.5v-1.5q6 -40 24.5 -74t54.5 -33q9 0 19 2.5t21 7.5q12 5 19 12t14 15q4 6 8.5 12.5t10.5 13.5q3 3 6 4.5t6 1.5q6 -1 10 -5t4 -10q0 -2 -1 -4.5t-3 -4.5v0zM258 586 q-3 1 -6 1.5t-6 0.5q-16 0 -30 -13.5t-25 -29.5q-5 -9 -9.5 -18l-7.5 -15q11 -8 20.5 -11.5t17.5 -3.5q18 1 31 14.5t19 30.5q3 6 4 12.5t1 11.5q0 8 -2 13.5t-7 6.5v0zM401 641q0 -13 -10.5 -23.5t-24.5 -10.5q-13 0 -23.5 10.5t-10.5 23.5q0 14 10.5 24.5t23.5 10.5 q14 0 24.5 -10.5t10.5 -24.5v0zM487 641q0 -13 -10.5 -23.5t-24.5 -10.5q-13 0 -23 10.5t-10 23.5q0 14 10 24.5t23 10.5q14 0 24.5 -10.5t10.5 -24.5v0z" />
<glyph unicode="&#xdd;" horiz-adv-x="200" />
<glyph unicode="&#xde;" horiz-adv-x="881" d="M767 269q-59 -42 -128.5 -55.5t-140.5 -15.5q-15 -1 -30 -1.5t-30 -0.5q-11 0 -22 -0.5t-22 -0.5v-62.5v-62.5v-62v-62q0 -8 -4.5 -12t-10.5 -3h-1.5h-0.5q-4 1 -7.5 4.5t-3.5 10.5v16t1 13v23t-2 17q-3 8 -9.5 17.5t-18.5 25.5q-2 3 -4 5.5t-4 4.5t-4 4.5t-4 4.5 q-2 -7 -5 -20.5t-8 -29.5q-5 -20 -13 -36.5t-18 -16.5h-0.5h-0.5q-1 1 -1.5 1h-0.5q-4 1 -6.5 5.5t-2.5 9.5q0 10 4.5 22.5t10.5 26.5q0 2 1 4l2 4q6 15 11.5 29t5.5 22q0 2 -0.5 3t-1.5 2q-27 28 -56 54l-58 52l-2 2l-2 2q-35 31 -69.5 62.5t-66.5 66.5q-19 21 -28 42 t-9 40q0 34 24.5 61t67.5 42q48 16 98.5 27t101.5 17q20 2 39 3.5t38 2.5q3 32 5.5 63t3.5 62q1 8 5.5 11.5t9.5 2.5q5 0 9.5 -3.5t3.5 -11.5q-1 -31 -3.5 -61.5t-4.5 -60.5q30 1 60.5 1t60.5 -2q61 -3 121.5 -13t117.5 -28q50 -15 71.5 -45t20.5 -66q0 -9 -1.5 -18.5 t-3.5 -18.5q-9 -34 -31.5 -66t-53.5 -54v0zM366 120v160q-4 -27 -9.5 -53.5t-11.5 -52.5q4 -8 7.5 -17.5t7.5 -18.5q1 -4 3 -8.5t3 -9.5v0zM367 482q-15 0 -62 -2t-101 -8q-59 -6 -110 -16t-57 -26v-0.5v-0.5v-0.5v-0.5q0 -2 1.5 -4t3.5 -4q1 0 1.5 -0.5l0.5 -0.5 q22 -16 45 -30t47 -27q2 -1 4.5 -2.5t4.5 -2.5q51 -29 99 -62t80 -83q10 45 17.5 90t14.5 90q3 22 6 45t5 45v0zM806 408q-75 30 -155.5 47t-162.5 23q-23 2 -46.5 3t-46.5 1q-5 -46 -11 -91.5t-14 -91.5q21 1 42 1.5t42 1.5q12 0 23.5 0.5t22.5 0.5q78 2 153.5 15t140.5 59 q1 1 2.5 2t2.5 2q3 2 5.5 3.5t4.5 3.5q3 3 5 5.5t2 5.5q0 2 -2.5 4.5t-7.5 4.5v0z" />
<glyph unicode="&#xdf;" horiz-adv-x="392" d="M431 207q-15 -60 -70.5 -109.5t-119.5 -64.5q-12 -3 -23 -4.5t-22 -1.5q-37 0 -57 20t-20 44q0 20 14 38.5t42 25.5h1.5t1.5 1h0.5h1.5q7 -1 10.5 -5.5t3.5 -9.5q0 -4 -3 -7.5t-8 -5.5q-18 -5 -26 -14t-9 -19v-3v-2q0 -12 8.5 -21.5t21.5 -9.5q9 0 19.5 6t20.5 21 q9 12 14.5 27t7.5 30q1 5 1 9.5v8.5q0 20 -6 38.5t-19 33.5q-14 15 -32.5 25.5t-37.5 18.5q-5 3 -10.5 5t-10.5 4q29 47 52.5 99.5t38.5 105.5l2 8t2 9q2 7 3.5 15t2.5 17q0 4 0.5 8t0.5 8q0 19 -8 32.5t-29 13.5h-2.5h-3.5q-28 -3 -42.5 -31t-20.5 -61q-5 -22 -6 -42.5 t-1 -33.5q0 -73 0.5 -145.5t0.5 -144.5v-145v-145l-115 -25v150.5v150.5v150v150q0 13 1 26.5t4 26.5q9 52 37.5 99.5t74.5 71.5q19 10 37.5 14.5t37.5 4.5q61 -1 106 -41.5t44 -96.5q0 -22 -8 -44t-27 -45q-15 -18 -30 -35.5t-29 -35.5q-15 -18 -29.5 -35.5t-29.5 -35.5 q9 6 18.5 10t19.5 6q5 1 9.5 1.5t9.5 0.5q21 0 40 -10t32 -31q11 -16 15.5 -34.5t4.5 -38.5q0 -4 -0.5 -8t-0.5 -9q-3 -29 -13.5 -56.5t-26.5 -48.5q36 20 66 53.5t40 74.5q2 6 6 9t8 3q5 -1 9.5 -4.5t4.5 -10.5v-0.5v-1.5v-1.5v-0.5v0z" />
<glyph unicode="&#xe0;" horiz-adv-x="369" d="M397 190q-29 -32 -58.5 -64.5t-58.5 -65.5q-13 -15 -28 -24.5t-35 -9.5q-27 0 -46.5 17t-30.5 40q-1 -2 -2 -4.5t-3 -4.5q-10 -18 -27 -33.5t-38 -14.5h-0.5h-1.5h-1.5h-0.5q-28 3 -45.5 36.5t-17.5 82.5q0 8 0.5 15.5t1.5 14.5q1 12 4.5 28.5t9.5 33.5q12 31 31.5 57.5 t49.5 26.5h3.5h2.5q5 0 8.5 -1.5t7.5 -3.5q2 -1 4 -2.5t4 -2.5v11h128v-245l0.5 0.5l0.5 0.5v0.5v0.5q15 16 29.5 32.5t29.5 32.5q14 16 28.5 32.5t29.5 32.5q2 3 5 4.5t6 0.5q6 0 10 -4t4 -10v-2.5t-1 -2.5q0 -1 -1 -2.5t-2 -2.5v0zM131 139v126l-2 4t-2 5q-3 5 -7.5 10 t-10.5 5q-16 0 -23 -19.5t-7 -45.5v-6t1 -6q2 -30 12 -55.5t27 -24.5h2t2 1q2 1 4.5 2.5t3.5 3.5v0zM226 364l-10 -24q-41 12 -82.5 24t-83.5 24q-13 4 -19 13.5t-6 19.5q0 14 9.5 25.5t24.5 11.5q5 0 9.5 -1.5t9.5 -4.5q18 -11 36.5 -22t37.5 -22t37.5 -22t36.5 -22v0z" />
<glyph unicode="&#xe1;" horiz-adv-x="369" d="M397 190q-29 -32 -58.5 -64.5t-58.5 -65.5q-13 -15 -28 -24.5t-35 -9.5q-27 0 -46.5 17t-30.5 40q-1 -2 -2 -4.5t-3 -4.5q-10 -18 -27 -33.5t-38 -14.5h-0.5h-1.5h-1.5h-0.5q-28 3 -45.5 36.5t-17.5 82.5q0 8 0.5 15.5t1.5 14.5q1 12 4.5 28.5t9.5 33.5q12 31 31.5 57.5 t49.5 26.5h3.5h2.5q5 0 8.5 -1.5t7.5 -3.5q2 -1 4 -2.5t4 -2.5v11h128v-245l0.5 0.5l0.5 0.5v0.5v0.5q15 16 29.5 32.5t29.5 32.5q14 16 28.5 32.5t29.5 32.5q2 3 5 4.5t6 0.5q6 0 10 -4t4 -10v-2.5t-1 -2.5q0 -1 -1 -2.5t-2 -2.5v0zM131 139v126l-2 4t-2 5q-3 5 -7.5 10 t-10.5 5q-16 0 -23 -19.5t-7 -45.5v-6t1 -6q2 -30 12 -55.5t27 -24.5h2t2 1q2 1 4.5 2.5t3.5 3.5v0zM282 392q-42 -12 -83.5 -24t-82.5 -24l-10 24q18 11 36.5 22t37.5 22t37.5 22t36.5 22q5 3 10.5 4.5t9.5 1.5q15 0 24 -12t9 -26q0 -10 -5.5 -19t-19.5 -13v0z" />
<glyph unicode="&#xe2;" horiz-adv-x="369" d="M397 190q-29 -32 -58.5 -64.5t-58.5 -65.5q-13 -15 -28 -24.5t-35 -9.5q-27 0 -46.5 17t-30.5 40q-1 -2 -2 -4.5t-3 -4.5q-10 -18 -27 -33.5t-38 -14.5h-0.5h-1.5h-1.5h-0.5q-28 3 -45.5 36.5t-17.5 82.5q0 8 0.5 15.5t1.5 14.5q1 12 4.5 28.5t9.5 33.5q12 31 31.5 57.5 t49.5 26.5h3.5h2.5q5 0 8.5 -1.5t7.5 -3.5q2 -1 4 -2.5t4 -2.5v11h128v-245l0.5 0.5l0.5 0.5v0.5v0.5q15 16 29.5 32.5t29.5 32.5q14 16 28.5 32.5t29.5 32.5q2 3 5 4.5t6 0.5q6 0 10 -4t4 -10v-2.5t-1 -2.5q0 -1 -1 -2.5t-2 -2.5v0zM131 139v126l-2 4t-2 5q-3 5 -7.5 10 t-10.5 5q-16 0 -23 -19.5t-7 -45.5v-6t1 -6q2 -30 12 -55.5t27 -24.5h2t2 1q2 1 4.5 2.5t3.5 3.5v0zM256 339l-2.5 -2.5t-2.5 -1.5l-3 -1.5t-3 -0.5q-1 0 -3.5 1.5t-5.5 3.5q-9 7 -17.5 13.5t-17.5 12.5t-17.5 12t-17.5 12h-10q-9 -6 -18.5 -12.5t-19.5 -12.5t-19.5 -12.5 t-19.5 -12.5q-3 -2 -5 -3t-4 -1t-4.5 1.5t-5.5 5.5q-2 2 -3 4.5t-1 4.5q0 3 1.5 5.5t4.5 4.5l21.5 21.5t20.5 21.5l21.5 21.5t20.5 21.5h30l20 -22t20 -21q9 -11 19 -22l20 -22q3 -3 4.5 -5.5t1.5 -4.5t-1.5 -4.5t-3.5 -5.5v0z" />
<glyph unicode="&#xe3;" horiz-adv-x="369" d="M397 190q-29 -32 -58.5 -64.5t-58.5 -65.5q-13 -15 -28 -24.5t-35 -9.5q-27 0 -46.5 17t-30.5 40q-1 -2 -2 -4.5t-3 -4.5q-10 -18 -27 -33.5t-38 -14.5h-0.5h-1.5h-1.5h-0.5q-28 3 -45.5 36.5t-17.5 82.5q0 8 0.5 15.5t1.5 14.5q1 12 4.5 28.5t9.5 33.5q12 31 31.5 57.5 t49.5 26.5h3.5h2.5q5 0 8.5 -1.5t7.5 -3.5q2 -1 4 -2.5t4 -2.5v11h128v-245l0.5 0.5l0.5 0.5v0.5v0.5q15 16 29.5 32.5t29.5 32.5q14 16 28.5 32.5t29.5 32.5q2 3 5 4.5t6 0.5q6 0 10 -4t4 -10v-2.5t-1 -2.5q0 -1 -1 -2.5t-2 -2.5v0zM131 139v126l-2 4t-2 5q-3 5 -7.5 10 t-10.5 5q-16 0 -23 -19.5t-7 -45.5v-6t1 -6q2 -30 12 -55.5t27 -24.5h2t2 1q2 1 4.5 2.5t3.5 3.5v0zM280 415q-1 -13 -6.5 -26t-15.5 -22q-11 -12 -28 -18t-35 -6q-15 0 -29 4.5t-25 13.5q-3 3 -7.5 6.5t-8.5 6.5l-10 8t-10 7q-3 1 -6.5 2.5t-6.5 1.5h-1.5h-2.5 q-10 0 -17 -8.5t-11 -18.5q-1 -3 -2 -6.5t-1 -6.5q0 -5 -2 -9.5t-13 -3.5q-8 0 -11 3.5t-2 7.5v0.5v1.5v1.5v0.5v2.5v2.5v0.5v1.5v3.5v3.5q1 29 21.5 49t49.5 20q20 0 34 -7.5t27 -18.5q3 -2 6 -4.5t6 -5.5q8 -7 17 -10.5t18 -3.5q18 0 30.5 12.5t13.5 30.5q0 5 2 9.5 t12 3.5q8 -1 11 -4t3 -9v-3.5t-1 -4.5q1 -1 1 -3.5v-4.5v0z" />
<glyph unicode="&#xe4;" horiz-adv-x="369" d="M397 190q-29 -32 -58.5 -64.5t-58.5 -65.5q-13 -15 -28 -24.5t-35 -9.5q-27 0 -46.5 17t-30.5 40q-1 -2 -2 -4.5t-3 -4.5q-10 -18 -27 -33.5t-38 -14.5h-0.5h-1.5h-1.5h-0.5q-28 3 -45.5 36.5t-17.5 82.5q0 8 0.5 15.5t1.5 14.5q1 12 4.5 28.5t9.5 33.5q12 31 31.5 57.5 t49.5 26.5h3.5h2.5q5 0 8.5 -1.5t7.5 -3.5q2 -1 4 -2.5t4 -2.5v11h128v-245l0.5 0.5l0.5 0.5v0.5v0.5q15 16 29.5 32.5t29.5 32.5q14 16 28.5 32.5t29.5 32.5q2 3 5 4.5t6 0.5q6 0 10 -4t4 -10v-2.5t-1 -2.5q0 -1 -1 -2.5t-2 -2.5v0zM131 139v126l-2 4t-2 5q-3 5 -7.5 10 t-10.5 5q-16 0 -23 -19.5t-7 -45.5v-6t1 -6q2 -30 12 -55.5t27 -24.5h2t2 1q2 1 4.5 2.5t3.5 3.5v0zM159 373q0 -13 -10.5 -23.5t-24.5 -10.5q-13 0 -23.5 10.5t-10.5 23.5q0 14 10.5 24.5t23.5 10.5q14 0 24.5 -10.5t10.5 -24.5v0zM245 373q0 -13 -10.5 -23.5t-24.5 -10.5 q-13 0 -23 10.5t-10 23.5q0 14 10 24.5t23 10.5q14 0 24.5 -10.5t10.5 -24.5v0z" />
<glyph unicode="&#xe5;" horiz-adv-x="369" d="M397 190q-29 -32 -58.5 -64.5t-58.5 -65.5q-13 -15 -28 -24.5t-35 -9.5q-27 0 -46.5 17t-30.5 40q-1 -2 -2 -4.5t-3 -4.5q-10 -18 -27 -33.5t-38 -14.5h-0.5h-1.5h-1.5h-0.5q-28 3 -45.5 36.5t-17.5 82.5q0 8 0.5 15.5t1.5 14.5q1 12 4.5 28.5t9.5 33.5q12 31 31.5 57.5 t49.5 26.5h3.5h2.5q5 0 8.5 -1.5t7.5 -3.5q2 -1 4 -2.5t4 -2.5v11h128v-245l0.5 0.5l0.5 0.5v0.5v0.5q15 16 29.5 32.5t29.5 32.5q14 16 28.5 32.5t29.5 32.5q2 3 5 4.5t6 0.5q6 0 10 -4t4 -10v-2.5t-1 -2.5q0 -1 -1 -2.5t-2 -2.5v0zM131 139v126l-2 4t-2 5q-3 5 -7.5 10 t-10.5 5q-16 0 -23 -19.5t-7 -45.5v-6t1 -6q2 -30 12 -55.5t27 -24.5h2t2 1q2 1 4.5 2.5t3.5 3.5v0zM211 383q0 -18 -12.5 -31t-30.5 -13t-30.5 13t-12.5 31q0 17 12.5 30t30.5 13t30.5 -13t12.5 -30v0zM183 383q0 5 -4.5 9.5t-10.5 4.5t-10.5 -4.5t-4.5 -9.5q0 -6 4.5 -10 t10.5 -4t10.5 4t4.5 10v0z" />
<glyph unicode="&#xe6;" horiz-adv-x="463" d="M517 236q-1 -6 -2 -12.5t-2 -12.5q-18 -69 -77.5 -127t-132.5 -58h-3t-4 1h-3h-4q-7 1 -14.5 2.5t-14.5 4.5q-3 -1 -7 -2l-8 -2q-7 -2 -14 -3t-13 -1q-27 0 -47 17t-30 40q-1 -2 -2 -4.5t-3 -4.5q-11 -19 -28.5 -34.5t-41.5 -13.5q-28 3 -45 38t-17 84v13.5t1 13.5 q1 12 5 28.5t10 33.5q11 31 31 57.5t49 26.5h3.5h2.5q6 -1 10.5 -2.5t8.5 -3.5q2 -1 3.5 -2t2.5 -2v11h107l3.5 3.5t2.5 3.5q17 17 38.5 31.5t45.5 13.5h6t6 -1q25 -6 38 -26.5t16 -43.5q0 -4 0.5 -8.5t0.5 -8.5q0 -9 -1 -18.5t-3 -19.5q-7 -32 -25.5 -61t-45.5 -45 q14 -9 28 -13.5t29 -4.5q20 1 38.5 9t34.5 24q16 15 26 36t13 46q1 6 4 9.5t7 4.5h1.5h1.5q6 -1 10 -4t4 -11v-0.5v-0.5v-0.5v-0.5v0zM132 139l-1 126q-1 2 -1.5 4t-2.5 5q-2 5 -6.5 10t-10.5 5q-16 0 -23 -20t-7 -46v-5v-5q2 -31 12 -56.5t27 -24.5q4 0 7 2t6 5v0zM333 274 q0 3 -0.5 8t-1.5 10q-2 9 -7 16.5t-14 7.5q-20 0 -29 -13.5t-12 -30.5q-1 -5 -1.5 -10t-1.5 -9q-1 -23 5 -44t18 -38q16 16 27.5 38t14.5 45q1 5 1.5 10t0.5 10v0z" />
<glyph unicode="&#xe7;" horiz-adv-x="289" d="M186 -85q-11 -21 -32 -30.5t-44 -11.5q-8 -1 -16.5 -1.5t-16.5 -0.5q-6 0 -12 0.5t-11 1.5q-15 2 -29.5 6.5t-26.5 12.5q-4 2 -6 4.5t-2 6.5q0 1 0.5 3t1.5 4q2 4 4.5 5.5t3.5 1.5q2 0 4 -1l4 -2q11 -6 27.5 -11t33.5 -6q4 -1 7 -1h6q17 0 32.5 6t23.5 20q2 5 3.5 10.5 t1.5 11.5t-2.5 11.5t-8.5 9.5q-4 3 -9.5 5t-10.5 2q-2 1 -4.5 1h-5.5q-7 0 -13.5 -0.5t-12.5 -1.5q8 20 15.5 40t15.5 40v1.5t1 0.5q0 3 2 5t6 2q2 0 3.5 -0.5t3.5 -1.5q5 -2 7 -4.5t2 -4.5t-0.5 -3.5t-1.5 -3.5l-17 -44q32 0 56 -15.5t24 -41.5q0 -5 -1.5 -11.5t-5.5 -13.5 v-1zM314 204q-20 -27 -42 -53.5t-46 -50.5l-10.5 -10.5t-12.5 -11.5q-21 -19 -46.5 -35t-51.5 -17h-4h-4q-46 4 -71.5 53.5t-21.5 119.5q1 14 4 29t8 31q14 42 43.5 77t73.5 35q21 0 36.5 -9.5t29.5 -24.5l-28 -85q-2 2 -3.5 4t-3.5 5q-13 16 -28 30.5t-35 21.5 q-7 -15 -11.5 -31.5t-4.5 -33.5q0 -25 9 -49t27 -42q13 -13 28.5 -19.5t31.5 -6.5q15 0 29.5 6t27.5 18l7.5 7.5l7.5 7.5q13 14 22.5 28t16.5 23l3.5 3.5t3.5 1.5q1 1 3 1h3q5 0 9 -4t4 -10q0 -2 -1 -4.5t-3 -4.5v0z" />
<glyph unicode="&#xe8;" horiz-adv-x="281" d="M333 236q-1 -6 -2 -12.5t-2 -12.5q-18 -69 -77.5 -127t-132.5 -58h-3t-4 1h-3h-4q-46 4 -75 45.5t-28 102.5v6.5v6.5t0.5 6.5t0.5 6.5q3 34 16 63.5t31 51.5q2 2 4 4.5t4 4.5q17 19 39 34t47 15h6t6 -1q26 -6 39 -26.5t16 -43.5q0 -4 0.5 -8.5t0.5 -8.5q0 -9 -1 -18.5 t-3 -19.5q-7 -32 -25.5 -61t-46.5 -45q9 -6 18.5 -10t19.5 -6q5 -1 9.5 -1.5t9.5 -0.5q20 1 39 9t35 24q16 15 26 36t12 46q1 7 5.5 10.5t9.5 3.5q1 0 2 -0.5l1 -0.5q4 -1 7.5 -4t2.5 -9v-1.5v-1.5v0zM150 274q0 3 -0.5 8t-1.5 10q-3 9 -8 16.5t-14 7.5q-19 0 -28 -13.5 t-12 -30.5l-2 -10t-1 -9v-2.5v-3.5q-1 -1 -1 -2.5v-3.5q1 -19 7 -37t16 -33q17 16 28.5 38t14.5 45q1 5 1.5 10t0.5 10v0zM212 402l-10 -24q-41 12 -82.5 24t-83.5 24q-13 4 -19 13.5t-6 19.5q0 14 9.5 25.5t24.5 11.5q5 0 9.5 -1.5t9.5 -4.5q18 -11 36.5 -22t37.5 -22 t37.5 -22t36.5 -22v0z" />
<glyph unicode="&#xe9;" horiz-adv-x="281" d="M333 236q-1 -6 -2 -12.5t-2 -12.5q-18 -69 -77.5 -127t-132.5 -58h-3t-4 1h-3h-4q-46 4 -75 45.5t-28 102.5v6.5v6.5t0.5 6.5t0.5 6.5q3 34 16 63.5t31 51.5q2 2 4 4.5t4 4.5q17 19 39 34t47 15h6t6 -1q26 -6 39 -26.5t16 -43.5q0 -4 0.5 -8.5t0.5 -8.5q0 -9 -1 -18.5 t-3 -19.5q-7 -32 -25.5 -61t-46.5 -45q9 -6 18.5 -10t19.5 -6q5 -1 9.5 -1.5t9.5 -0.5q20 1 39 9t35 24q16 15 26 36t12 46q1 7 5.5 10.5t9.5 3.5q1 0 2 -0.5l1 -0.5q4 -1 7.5 -4t2.5 -9v-1.5v-1.5v0zM150 274q0 3 -0.5 8t-1.5 10q-3 9 -8 16.5t-14 7.5q-19 0 -28 -13.5 t-12 -30.5l-2 -10t-1 -9v-2.5v-3.5q-1 -1 -1 -2.5v-3.5q1 -19 7 -37t16 -33q17 16 28.5 38t14.5 45q1 5 1.5 10t0.5 10v0zM252 432q-42 -12 -83.5 -24t-82.5 -24l-10 24q18 11 36.5 22t37.5 22t37.5 22t36.5 22q5 3 10.5 4.5t9.5 1.5q15 0 24 -12t9 -26q0 -10 -5.5 -19 t-19.5 -13v0z" />
<glyph unicode="&#xea;" horiz-adv-x="281" d="M333 236q-1 -6 -2 -12.5t-2 -12.5q-18 -69 -77.5 -127t-132.5 -58h-3t-4 1h-3h-4q-46 4 -75 45.5t-28 102.5v6.5v6.5t0.5 6.5t0.5 6.5q3 34 16 63.5t31 51.5q2 2 4 4.5t4 4.5q17 19 39 34t47 15h6t6 -1q26 -6 39 -26.5t16 -43.5q0 -4 0.5 -8.5t0.5 -8.5q0 -9 -1 -18.5 t-3 -19.5q-7 -32 -25.5 -61t-46.5 -45q9 -6 18.5 -10t19.5 -6q5 -1 9.5 -1.5t9.5 -0.5q20 1 39 9t35 24q16 15 26 36t12 46q1 7 5.5 10.5t9.5 3.5q1 0 2 -0.5l1 -0.5q4 -1 7.5 -4t2.5 -9v-1.5v-1.5v0zM150 274q0 3 -0.5 8t-1.5 10q-3 9 -8 16.5t-14 7.5q-19 0 -28 -13.5 t-12 -30.5l-2 -10t-1 -9v-2.5v-3.5q-1 -1 -1 -2.5v-3.5q1 -19 7 -37t16 -33q17 16 28.5 38t14.5 45q1 5 1.5 10t0.5 10v0zM238 375l-2.5 -2.5t-2.5 -1.5l-3 -1.5t-3 -0.5q-1 0 -3.5 1.5t-5.5 3.5q-9 7 -17.5 13.5t-17.5 12.5t-17.5 12t-17.5 12h-10q-9 -6 -18.5 -12.5 t-19.5 -12.5t-19.5 -12.5t-19.5 -12.5q-3 -2 -5 -3t-4 -1t-4.5 1.5t-5.5 5.5q-2 2 -3 4.5t-1 4.5q0 3 1.5 5.5t4.5 4.5l21.5 21.5t20.5 21.5l21.5 21.5t20.5 21.5h30l20 -22t20 -21q9 -11 19 -22l20 -22q3 -3 4.5 -5.5t1.5 -4.5t-1.5 -4.5t-3.5 -5.5v0z" />
<glyph unicode="&#xeb;" horiz-adv-x="281" d="M333 236q-1 -6 -2 -12.5t-2 -12.5q-18 -69 -77.5 -127t-132.5 -58h-3t-4 1h-3h-4q-46 4 -75 45.5t-28 102.5v6.5v6.5t0.5 6.5t0.5 6.5q3 34 16 63.5t31 51.5q2 2 4 4.5t4 4.5q17 19 39 34t47 15h6t6 -1q26 -6 39 -26.5t16 -43.5q0 -4 0.5 -8.5t0.5 -8.5q0 -9 -1 -18.5 t-3 -19.5q-7 -32 -25.5 -61t-46.5 -45q9 -6 18.5 -10t19.5 -6q5 -1 9.5 -1.5t9.5 -0.5q20 1 39 9t35 24q16 15 26 36t12 46q1 7 5.5 10.5t9.5 3.5q1 0 2 -0.5l1 -0.5q4 -1 7.5 -4t2.5 -9v-1.5v-1.5v0zM150 274q0 3 -0.5 8t-1.5 10q-3 9 -8 16.5t-14 7.5q-19 0 -28 -13.5 t-12 -30.5l-2 -10t-1 -9v-2.5v-3.5q-1 -1 -1 -2.5v-3.5q1 -19 7 -37t16 -33q17 16 28.5 38t14.5 45q1 5 1.5 10t0.5 10v0zM129 421q0 -13 -10.5 -23.5t-24.5 -10.5q-13 0 -23.5 10.5t-10.5 23.5q0 14 10.5 24.5t23.5 10.5q14 0 24.5 -10.5t10.5 -24.5v0zM215 421 q0 -13 -10.5 -23.5t-24.5 -10.5q-13 0 -23 10.5t-10 23.5q0 14 10 24.5t23 10.5q14 0 24.5 -10.5t10.5 -24.5v0z" />
<glyph unicode="&#xec;" horiz-adv-x="181" d="M217 209q-28 -46 -57 -91.5t-58 -91.5h-77q-1 36 -2 71.5t-1 71.5q-1 35 -2 70.5t-2 71.5q29 14 57.5 28t56.5 27v-59.5v-59.5t0.5 -59.5t0.5 -59.5l30 48l30 48q2 4 5.5 5.5t7.5 1.5q6 0 10 -4t4 -10q0 -1 -0.5 -3.5t-2.5 -4.5v0zM120 400l-10 -24l-82 24t-83 24 q-14 4 -19.5 13.5t-5.5 19.5q0 14 9.5 25.5t24.5 11.5q4 0 9 -1.5t10 -4.5l36 -22t37 -22t37.5 -22t36.5 -22v0z" />
<glyph unicode="&#xed;" horiz-adv-x="181" d="M217 209q-28 -46 -57 -91.5t-58 -91.5h-77q-1 36 -2 71.5t-1 71.5q-1 35 -2 70.5t-2 71.5q29 14 57.5 28t56.5 27v-59.5v-59.5t0.5 -59.5t0.5 -59.5l30 48l30 48q2 4 5.5 5.5t7.5 1.5q6 0 10 -4t4 -10q0 -1 -0.5 -3.5t-2.5 -4.5v0zM232 426q-42 -12 -83.5 -24t-82.5 -24 l-10 24q18 11 36.5 22t37.5 22t37.5 22t36.5 22q5 3 10.5 4.5t9.5 1.5q15 0 24 -12t9 -26q0 -10 -5.5 -19t-19.5 -13v0z" />
<glyph unicode="&#xee;" horiz-adv-x="181" d="M217 209q-28 -46 -57 -91.5t-58 -91.5h-77q-1 36 -2 71.5t-1 71.5q-1 35 -2 70.5t-2 71.5q29 14 57.5 28t56.5 27v-59.5v-59.5t0.5 -59.5t0.5 -59.5l30 48l30 48q2 4 5.5 5.5t7.5 1.5q6 0 10 -4t4 -10q0 -1 -0.5 -3.5t-2.5 -4.5v0zM182 365l-2.5 -2.5t-2.5 -1.5l-3 -1.5 t-3 -0.5q-1 0 -3.5 1.5t-5.5 3.5q-9 7 -17.5 13.5t-17.5 12.5t-17.5 12t-17.5 12h-10q-9 -6 -18.5 -12.5t-19.5 -12.5t-19.5 -12.5t-19.5 -12.5q-3 -2 -5 -3t-3 -1q-2 0 -4.5 1.5t-5.5 5.5q-2 2 -3 4.5t-1 4.5q0 3 1.5 5.5t4.5 4.5q10 11 20.5 21.5t20.5 21.5l21.5 21.5 t20.5 21.5h30l20 -22t20 -21q9 -11 19 -22l20 -22q3 -3 4.5 -5.5t1.5 -4.5t-1.5 -4.5t-3.5 -5.5v0z" />
<glyph unicode="&#xef;" horiz-adv-x="181" d="M217 209q-28 -46 -57 -91.5t-58 -91.5h-77q-1 36 -2 71.5t-1 71.5q-1 35 -2 70.5t-2 71.5q29 14 57.5 28t56.5 27v-59.5v-59.5t0.5 -59.5t0.5 -59.5l30 48l30 48q2 4 5.5 5.5t7.5 1.5q6 0 10 -4t4 -10q0 -1 -0.5 -3.5t-2.5 -4.5v0zM73 413q0 -13 -10.5 -23.5t-24.5 -10.5 q-13 0 -23.5 10.5t-10.5 23.5q0 14 10.5 24.5t23.5 10.5q14 0 24.5 -10.5t10.5 -24.5v0zM159 413q0 -13 -10.5 -23.5t-24.5 -10.5q-13 0 -23 10.5t-10 23.5q0 14 10 24.5t23 10.5q14 0 24.5 -10.5t10.5 -24.5v0z" />
<glyph unicode="&#xf0;" horiz-adv-x="308" d="M298 538q-7 -4 -14.5 -8.5t-15.5 -8.5q-7 -4 -14.5 -8.5t-15.5 -8.5q11 -37 19 -78.5t12 -86.5q0 -4 0.5 -8.5t1.5 -9.5q1 -16 2 -35.5t1 -40.5q0 -14 -0.5 -28.5t-2.5 -28.5q-6 -66 -31 -121t-88 -55q-49 0 -87.5 47.5t-51.5 104.5q-3 12 -4.5 24t-1.5 24q0 17 3 31.5 t10 27.5q11 20 25 28t30 8q6 0 11.5 -1t10.5 -3q20 -6 39 -20.5t32 -30.5q2 26 3.5 52.5t2.5 53.5q0 27 -1 53.5t-3 52.5q-13 -7 -25 -13.5t-24 -14.5q-2 -1 -4 -1.5t-4 -0.5q-6 0 -10 4.5t-4 9.5q0 4 2 7.5t6 5.5l60 34q-8 61 -23.5 97.5t-36.5 37.5q-10 1 -13.5 -12.5 t-3.5 -32.5q0 -6 0.5 -11.5t0.5 -11.5q1 -10 2 -20.5t3 -18.5q1 -8 2 -13.5t2 -8.5v-0.5v-1.5v-1.5v-0.5q0 -7 -4.5 -10.5t-9.5 -2.5q-4 0 -8 3t-6 9q-1 3 -1.5 7t-1.5 9q-2 12 -3.5 27.5t-1.5 32.5q1 35 10.5 63.5t37.5 28.5q33 0 57 -27t40 -59q6 -13 11 -25t9 -22 q7 4 13.5 8t13.5 8l14 8l14 8q2 2 4.5 2h3.5q6 0 10 -4.5t4 -10.5v-2t-1 -2q-1 -2 -2.5 -4t-4.5 -4v0zM161 191q-1 2 -1.5 3.5t-1.5 3.5q-6 15 -18.5 27.5t-29.5 12.5q-21 0 -34 -16.5t-18 -35.5q-2 -7 -3 -13.5t-1 -12.5q0 -17 5 -32t13 -26q8 -10 18 -15.5t20 -5.5 q3 0 5.5 0.5t5.5 1.5q6 1 11.5 5t10.5 9q5 23 9.5 46.5t8.5 47.5v0z" />
<glyph unicode="&#xf1;" horiz-adv-x="420" d="M431 220q-14 -18 -27.5 -36.5t-27.5 -36.5q-14 -19 -27.5 -37.5t-27.5 -36.5q-13 -18 -31 -30.5t-37 -18.5q-7 -2 -13.5 -3t-13.5 -1q-24 0 -42 17t-20 55q-1 12 -1.5 24t-1.5 24q-1 11 -1.5 23t-1.5 24l-65 -137l-92 -23q1 34 1.5 67.5t1.5 67.5q0 34 0.5 67.5t1.5 67.5 l105 40l6 -169q7 14 13.5 28t13.5 28t13.5 28t12.5 28q8 15 17.5 24t19.5 13q5 2 10.5 3t10.5 1q21 -1 38 -14.5t18 -36.5q3 -46 6 -91.5t6 -91.5q20 24 38.5 49t36.5 51q2 3 4.5 6t4.5 6q7 10 14 19.5t14 18.5q3 4 6 5.5t6 0.5q6 0 10.5 -4t3.5 -10q0 -2 -0.5 -4.5 t-2.5 -4.5v0zM290 421q-1 -13 -6.5 -26t-15.5 -22q-11 -12 -28 -18t-35 -6q-15 0 -29 4.5t-25 13.5q-3 3 -7.5 6.5t-8.5 6.5l-10 8t-10 7q-3 1 -6.5 2.5t-6.5 1.5h-1.5h-2.5q-10 0 -17 -8.5t-11 -18.5q-1 -3 -2 -6.5t-1 -6.5q0 -5 -2 -9.5t-13 -3.5q-8 0 -11 3.5t-2 7.5v0.5 v1.5v1.5v0.5v2.5v2.5v0.5v1.5v3.5v3.5q1 29 21.5 49t49.5 20q20 0 34 -7.5t27 -18.5q3 -2 6 -4.5t6 -5.5q8 -7 17 -10.5t18 -3.5q18 0 30.5 12.5t13.5 30.5q0 5 2 9.5t12 3.5q8 -1 11 -4t3 -9v-3.5t-1 -4.5q1 -1 1 -3.5v-4.5v0z" />
<glyph unicode="&#xf2;" horiz-adv-x="335" d="M383 233q-2 -3 -3.5 -5.5t-3.5 -4.5q-22 -30 -56.5 -55t-72.5 -25h-2.5t-2.5 1h-3h-3q-7 -19 -16.5 -36t-22.5 -33q-17 -20 -38.5 -33t-43.5 -15q-3 -1 -5.5 -1h-5.5q-21 0 -41 11t-35 35q-13 20 -18.5 42t-5.5 46q0 5 0.5 10.5t0.5 10.5q4 36 18 69.5t36 57.5 q20 23 44 35.5t50 12.5q47 0 70 -35t27 -76v-5.5v-5.5v-15t-1 -16q0 -8 -1.5 -15.5t-3.5 -15.5h2.5h2.5q27 0 52.5 17.5t42.5 38.5q5 5 8.5 10t6.5 10q2 4 5.5 5.5t7.5 1.5q6 0 10 -4t4 -10q0 -1 -0.5 -3.5t-2.5 -4.5v0zM202 146q5 4 7 10t2 13q0 6 -1 12t-3 13l-6 14l-6 14 q-4 6 -7 11t-5 8q-3 4 -8 10t-12 12q-6 6 -13 11.5t-14 9.5q-6 3 -12 5t-11 2q-4 -1 -7.5 -2t-6.5 -3q-5 -4 -7.5 -10t-1.5 -14q0 -5 1 -10.5t2 -11.5q3 -8 6 -16.5t7 -15.5q3 -6 6 -10.5l5 -7.5q3 -4 8.5 -10t11.5 -12q7 -6 14.5 -11.5t15.5 -9.5q5 -3 10.5 -4.5t10.5 -1.5 q4 1 7.5 2t6.5 3v0zM206 390l-10 -24q-41 12 -82.5 24t-83.5 24q-13 4 -19 13.5t-6 19.5q0 14 9.5 25.5t24.5 11.5q5 0 9.5 -1.5t9.5 -4.5q18 -11 36.5 -22t37.5 -22t37.5 -22t36.5 -22v0z" />
<glyph unicode="&#xf3;" horiz-adv-x="335" d="M383 233q-2 -3 -3.5 -5.5t-3.5 -4.5q-22 -30 -56.5 -55t-72.5 -25h-2.5t-2.5 1h-3h-3q-7 -19 -16.5 -36t-22.5 -33q-17 -20 -38.5 -33t-43.5 -15q-3 -1 -5.5 -1h-5.5q-21 0 -41 11t-35 35q-13 20 -18.5 42t-5.5 46q0 5 0.5 10.5t0.5 10.5q4 36 18 69.5t36 57.5 q20 23 44 35.5t50 12.5q47 0 70 -35t27 -76v-5.5v-5.5v-15t-1 -16q0 -8 -1.5 -15.5t-3.5 -15.5h2.5h2.5q27 0 52.5 17.5t42.5 38.5q5 5 8.5 10t6.5 10q2 4 5.5 5.5t7.5 1.5q6 0 10 -4t4 -10q0 -1 -0.5 -3.5t-2.5 -4.5v0zM202 146q5 4 7 10t2 13q0 6 -1 12t-3 13l-6 14l-6 14 q-4 6 -7 11t-5 8q-3 4 -8 10t-12 12q-6 6 -13 11.5t-14 9.5q-6 3 -12 5t-11 2q-4 -1 -7.5 -2t-6.5 -3q-5 -4 -7.5 -10t-1.5 -14q0 -5 1 -10.5t2 -11.5q3 -8 6 -16.5t7 -15.5q3 -6 6 -10.5l5 -7.5q3 -4 8.5 -10t11.5 -12q7 -6 14.5 -11.5t15.5 -9.5q5 -3 10.5 -4.5t10.5 -1.5 q4 1 7.5 2t6.5 3v0zM278 418q-42 -12 -83.5 -24t-82.5 -24l-10 24q18 11 36.5 22t37.5 22t37.5 22t36.5 22q5 3 10.5 4.5t9.5 1.5q15 0 24 -12t9 -26q0 -10 -5.5 -19t-19.5 -13v0z" />
<glyph unicode="&#xf4;" horiz-adv-x="335" d="M383 233q-2 -3 -3.5 -5.5t-3.5 -4.5q-22 -30 -56.5 -55t-72.5 -25h-2.5t-2.5 1h-3h-3q-7 -19 -16.5 -36t-22.5 -33q-17 -20 -38.5 -33t-43.5 -15q-3 -1 -5.5 -1h-5.5q-21 0 -41 11t-35 35q-13 20 -18.5 42t-5.5 46q0 5 0.5 10.5t0.5 10.5q4 36 18 69.5t36 57.5 q20 23 44 35.5t50 12.5q47 0 70 -35t27 -76v-5.5v-5.5v-15t-1 -16q0 -8 -1.5 -15.5t-3.5 -15.5h2.5h2.5q27 0 52.5 17.5t42.5 38.5q5 5 8.5 10t6.5 10q2 4 5.5 5.5t7.5 1.5q6 0 10 -4t4 -10q0 -1 -0.5 -3.5t-2.5 -4.5v0zM202 146q5 4 7 10t2 13q0 6 -1 12t-3 13l-6 14l-6 14 q-4 6 -7 11t-5 8q-3 4 -8 10t-12 12q-6 6 -13 11.5t-14 9.5q-6 3 -12 5t-11 2q-4 -1 -7.5 -2t-6.5 -3q-5 -4 -7.5 -10t-1.5 -14q0 -5 1 -10.5t2 -11.5q3 -8 6 -16.5t7 -15.5q3 -6 6 -10.5l5 -7.5q3 -4 8.5 -10t11.5 -12q7 -6 14.5 -11.5t15.5 -9.5q5 -3 10.5 -4.5t10.5 -1.5 q4 1 7.5 2t6.5 3v0zM242 353l-2.5 -2.5t-2.5 -1.5l-3 -1.5t-3 -0.5q-1 0 -3.5 1.5t-5.5 3.5q-9 7 -17.5 13.5t-17.5 12.5t-17.5 12t-17.5 12h-10q-9 -6 -18.5 -12.5t-19.5 -12.5t-19.5 -12.5t-19.5 -12.5q-3 -2 -5 -3t-4 -1t-4.5 1.5t-5.5 5.5q-2 2 -3 4.5t-1 4.5 q0 3 1.5 5.5t4.5 4.5l21.5 21.5t20.5 21.5l21.5 21.5t20.5 21.5h30l20 -22t20 -21q9 -11 19 -22l20 -22q3 -3 4.5 -5.5t1.5 -4.5t-1.5 -4.5t-3.5 -5.5v0z" />
<glyph unicode="&#xf5;" horiz-adv-x="335" d="M383 233q-2 -3 -3.5 -5.5t-3.5 -4.5q-22 -30 -56.5 -55t-72.5 -25h-2.5t-2.5 1h-3h-3q-7 -19 -16.5 -36t-22.5 -33q-17 -20 -38.5 -33t-43.5 -15q-3 -1 -5.5 -1h-5.5q-21 0 -41 11t-35 35q-13 20 -18.5 42t-5.5 46q0 5 0.5 10.5t0.5 10.5q4 36 18 69.5t36 57.5 q20 23 44 35.5t50 12.5q47 0 70 -35t27 -76v-5.5v-5.5v-15t-1 -16q0 -8 -1.5 -15.5t-3.5 -15.5h2.5h2.5q27 0 52.5 17.5t42.5 38.5q5 5 8.5 10t6.5 10q2 4 5.5 5.5t7.5 1.5q6 0 10 -4t4 -10q0 -1 -0.5 -3.5t-2.5 -4.5v0zM202 146q5 4 7 10t2 13q0 6 -1 12t-3 13l-6 14l-6 14 q-4 6 -7 11t-5 8q-3 4 -8 10t-12 12q-6 6 -13 11.5t-14 9.5q-6 3 -12 5t-11 2q-4 -1 -7.5 -2t-6.5 -3q-5 -4 -7.5 -10t-1.5 -14q0 -5 1 -10.5t2 -11.5q3 -8 6 -16.5t7 -15.5q3 -6 6 -10.5l5 -7.5q3 -4 8.5 -10t11.5 -12q7 -6 14.5 -11.5t15.5 -9.5q5 -3 10.5 -4.5t10.5 -1.5 q4 1 7.5 2t6.5 3v0zM276 443q-1 -13 -6.5 -26t-15.5 -22q-11 -12 -28 -18t-35 -6q-15 0 -29 4.5t-25 13.5q-3 3 -7.5 6.5t-8.5 6.5l-10 8t-10 7q-3 1 -6.5 2.5t-6.5 1.5h-1.5h-2.5q-10 0 -17 -8.5t-11 -18.5q-1 -3 -2 -6.5t-1 -6.5q0 -5 -2 -9.5t-13 -3.5q-8 0 -11 3.5 t-2 7.5v0.5v1.5v1.5v0.5v2.5v2.5v0.5v1.5v3.5v3.5q1 29 21.5 49t49.5 20q20 0 34 -7.5t27 -18.5q3 -2 6 -4.5t6 -5.5q8 -7 17 -10.5t18 -3.5q18 0 30.5 12.5t13.5 30.5q0 5 2 9.5t12 3.5q8 -1 11 -4t3 -9v-3.5t-1 -4.5q1 -1 1 -3.5v-4.5v0z" />
<glyph unicode="&#xf6;" horiz-adv-x="335" d="M383 233q-2 -3 -3.5 -5.5t-3.5 -4.5q-22 -30 -56.5 -55t-72.5 -25h-2.5t-2.5 1h-3h-3q-7 -19 -16.5 -36t-22.5 -33q-17 -20 -38.5 -33t-43.5 -15q-3 -1 -5.5 -1h-5.5q-21 0 -41 11t-35 35q-13 20 -18.5 42t-5.5 46q0 5 0.5 10.5t0.5 10.5q4 36 18 69.5t36 57.5 q20 23 44 35.5t50 12.5q47 0 70 -35t27 -76v-5.5v-5.5v-15t-1 -16q0 -8 -1.5 -15.5t-3.5 -15.5h2.5h2.5q27 0 52.5 17.5t42.5 38.5q5 5 8.5 10t6.5 10q2 4 5.5 5.5t7.5 1.5q6 0 10 -4t4 -10q0 -1 -0.5 -3.5t-2.5 -4.5v0zM202 146q5 4 7 10t2 13q0 6 -1 12t-3 13l-6 14l-6 14 q-4 6 -7 11t-5 8q-3 4 -8 10t-12 12q-6 6 -13 11.5t-14 9.5q-6 3 -12 5t-11 2q-4 -1 -7.5 -2t-6.5 -3q-5 -4 -7.5 -10t-1.5 -14q0 -5 1 -10.5t2 -11.5q3 -8 6 -16.5t7 -15.5q3 -6 6 -10.5l5 -7.5q3 -4 8.5 -10t11.5 -12q7 -6 14.5 -11.5t15.5 -9.5q5 -3 10.5 -4.5t10.5 -1.5 q4 1 7.5 2t6.5 3v0zM139 401q0 -13 -10.5 -23.5t-24.5 -10.5q-13 0 -23.5 10.5t-10.5 23.5q0 14 10.5 24.5t23.5 10.5q14 0 24.5 -10.5t10.5 -24.5v0zM225 401q0 -13 -10.5 -23.5t-24.5 -10.5q-13 0 -23 10.5t-10 23.5q0 14 10 24.5t23 10.5q14 0 24.5 -10.5t10.5 -24.5v0z " />
<glyph unicode="&#xf7;" />
<glyph unicode="&#xf8;" horiz-adv-x="339" d="M358 207q6 -1 9 -5t3 -9q-1 -5 -4 -9.5t-10 -4.5h-1.5t-0.5 1h-1.5h-1.5q-25 6 -50.5 12.5t-51.5 13.5q-4 -35 -17 -69t-36 -62q-17 -20 -38.5 -33t-43.5 -15q-3 -1 -5.5 -1h-4.5q-8 0 -16 1.5t-16 5.5l-30 -60l-4.5 -4.5t-5.5 -2.5q-1 -1 -2 -1h-2q-5 0 -9.5 3.5 t-4.5 10.5q0 1 0.5 3t1.5 4l32 62q-6 5 -11 11t-10 13q-13 20 -18.5 42t-5.5 46q0 5 0.5 10.5t0.5 10.5q4 36 18 69.5t36 57.5q20 23 44.5 35.5t50.5 12.5q13 0 23.5 -3t19.5 -8l31 61q2 5 5.5 7t7.5 2q5 -1 9.5 -5t4.5 -10q0 -1 -0.5 -3t-1.5 -4l-34 -67q16 -18 23.5 -42 t8.5 -50q27 -7 54 -13.5t54 -13.5v0zM201 146q5 4 7 10t2 13q0 6 -1 12t-3 13l-6 14l-6 14q-4 6 -7 11t-5 8l-1.5 3t-1.5 2l-40 -79q7 -7 15 -13t17 -9q4 -2 8 -3t8 -1t7.5 1.5t6.5 3.5v0zM157 267q-6 6 -13 11t-14 8q-5 2 -9.5 3t-9.5 1h-3t-3 -1q-2 0 -3.5 -1t-3.5 -2 q-5 -4 -7 -10t-2 -13q0 -5 1 -11t3 -12q2 -8 5.5 -16t6.5 -15q4 -6 7 -11t5 -8v-0.5v-0.5l0.5 -0.5l0.5 -0.5l39 79v0z" />
<glyph unicode="&#xf9;" horiz-adv-x="417" d="M437 220q-14 -18 -27.5 -36.5t-27.5 -36.5t-27.5 -36.5t-27.5 -36.5q-13 -18 -31 -30.5t-37 -18.5q-7 -2 -13.5 -3t-13.5 -1q-24 0 -42 17t-20 55q0 9 -0.5 17.5t-1.5 17.5t-1.5 17.5t-0.5 17.5q-4 -10 -11 -25.5t-17 -32.5q-14 -26 -33.5 -47.5t-42.5 -21.5q-4 0 -8 1.5 t-9 2.5q-16 6 -24 20.5t-11 30.5q-1 6 -1.5 12t-0.5 12q-1 46 -2.5 91.5t-3.5 91.5l115 39l7 -197q20 40 33.5 81.5t25.5 83.5l107 25q3 -61 6 -121.5t6 -120.5q22 27 43 55t41 56q7 10 14 19.5t14 18.5q3 4 6 5.5t6 0.5q6 0 10.5 -4t3.5 -10q0 -2 -0.5 -4.5t-2.5 -4.5v0z M238 366l-10 -24q-41 12 -82.5 24t-83.5 24q-13 4 -19 13.5t-6 19.5q0 14 9.5 25.5t24.5 11.5q5 0 9.5 -1.5t9.5 -4.5q18 -11 36.5 -22t37.5 -22t37.5 -22t36.5 -22v0z" />
<glyph unicode="&#xfa;" horiz-adv-x="417" d="M437 220q-14 -18 -27.5 -36.5t-27.5 -36.5t-27.5 -36.5t-27.5 -36.5q-13 -18 -31 -30.5t-37 -18.5q-7 -2 -13.5 -3t-13.5 -1q-24 0 -42 17t-20 55q0 9 -0.5 17.5t-1.5 17.5t-1.5 17.5t-0.5 17.5q-4 -10 -11 -25.5t-17 -32.5q-14 -26 -33.5 -47.5t-42.5 -21.5q-4 0 -8 1.5 t-9 2.5q-16 6 -24 20.5t-11 30.5q-1 6 -1.5 12t-0.5 12q-1 46 -2.5 91.5t-3.5 91.5l115 39l7 -197q20 40 33.5 81.5t25.5 83.5l107 25q3 -61 6 -121.5t6 -120.5q22 27 43 55t41 56q7 10 14 19.5t14 18.5q3 4 6 5.5t6 0.5q6 0 10.5 -4t3.5 -10q0 -2 -0.5 -4.5t-2.5 -4.5v0z M280 402q-42 -12 -83.5 -24t-82.5 -24l-10 24q18 11 36.5 22t37.5 22t37.5 22t36.5 22q5 3 10.5 4.5t9.5 1.5q15 0 24 -12t9 -26q0 -10 -5.5 -19t-19.5 -13v0z" />
<glyph unicode="&#xfb;" horiz-adv-x="417" d="M437 220q-14 -18 -27.5 -36.5t-27.5 -36.5t-27.5 -36.5t-27.5 -36.5q-13 -18 -31 -30.5t-37 -18.5q-7 -2 -13.5 -3t-13.5 -1q-24 0 -42 17t-20 55q0 9 -0.5 17.5t-1.5 17.5t-1.5 17.5t-0.5 17.5q-4 -10 -11 -25.5t-17 -32.5q-14 -26 -33.5 -47.5t-42.5 -21.5q-4 0 -8 1.5 t-9 2.5q-16 6 -24 20.5t-11 30.5q-1 6 -1.5 12t-0.5 12q-1 46 -2.5 91.5t-3.5 91.5l115 39l7 -197q20 40 33.5 81.5t25.5 83.5l107 25q3 -61 6 -121.5t6 -120.5q22 27 43 55t41 56q7 10 14 19.5t14 18.5q3 4 6 5.5t6 0.5q6 0 10.5 -4t3.5 -10q0 -2 -0.5 -4.5t-2.5 -4.5v0z M250 347l-2.5 -2.5t-2.5 -1.5l-3 -1.5t-3 -0.5q-1 0 -3.5 1.5t-5.5 3.5q-9 7 -17.5 13.5t-17.5 12.5t-17.5 12t-17.5 12h-10q-9 -6 -18.5 -12.5t-19.5 -12.5t-19.5 -12.5t-19.5 -12.5q-3 -2 -5 -3t-4 -1t-4.5 1.5t-5.5 5.5q-2 2 -3 4.5t-1 4.5q0 3 1.5 5.5t4.5 4.5 l21.5 21.5t20.5 21.5l21.5 21.5t20.5 21.5h30l20 -22t20 -21q9 -11 19 -22l20 -22q3 -3 4.5 -5.5t1.5 -4.5t-1.5 -4.5t-3.5 -5.5v0z" />
<glyph unicode="&#xfc;" horiz-adv-x="417" d="M437 220q-14 -18 -27.5 -36.5t-27.5 -36.5t-27.5 -36.5t-27.5 -36.5q-13 -18 -31 -30.5t-37 -18.5q-7 -2 -13.5 -3t-13.5 -1q-24 0 -42 17t-20 55q0 9 -0.5 17.5t-1.5 17.5t-1.5 17.5t-0.5 17.5q-4 -10 -11 -25.5t-17 -32.5q-14 -26 -33.5 -47.5t-42.5 -21.5q-4 0 -8 1.5 t-9 2.5q-16 6 -24 20.5t-11 30.5q-1 6 -1.5 12t-0.5 12q-1 46 -2.5 91.5t-3.5 91.5l115 39l7 -197q20 40 33.5 81.5t25.5 83.5l107 25q3 -61 6 -121.5t6 -120.5q22 27 43 55t41 56q7 10 14 19.5t14 18.5q3 4 6 5.5t6 0.5q6 0 10.5 -4t3.5 -10q0 -2 -0.5 -4.5t-2.5 -4.5v0z M145 381q0 -13 -10.5 -23.5t-24.5 -10.5q-13 0 -23.5 10.5t-10.5 23.5q0 14 10.5 24.5t23.5 10.5q14 0 24.5 -10.5t10.5 -24.5v0zM231 381q0 -13 -10.5 -23.5t-24.5 -10.5q-13 0 -23 10.5t-10 23.5q0 14 10 24.5t23 10.5q14 0 24.5 -10.5t10.5 -24.5v0z" />
<glyph unicode="&#xfd;" horiz-adv-x="200" />
<glyph unicode="&#xfe;" horiz-adv-x="378" d="M388 204q-22 -16 -44 -31.5t-43 -30.5q-22 -16 -44 -31.5t-44 -31.5q-1 -1 -2 -1.5l-1 -0.5q-15 -11 -32.5 -20t-36.5 -13q-7 -1 -13.5 -1.5t-12.5 -0.5q-1 -29 -2 -57.5t-2 -57.5q-2 -29 -3 -58l-2 -58l-103 -22q1 67 2 151.5t3 173.5q1 89 2 174t2 151l114 46l-3 -202 l134 72q21 -26 31.5 -57t10.5 -63q0 -16 -3 -33.5t-9 -34.5q11 8 21.5 15.5t21.5 14.5q10 8 21 15.5t21 14.5q1 1 1.5 1t1.5 1q2 0 3.5 0.5t2.5 0.5q6 0 10 -4.5t4 -9.5q0 -3 -1.5 -6t-5.5 -6v0zM175 100q22 2 31.5 22t9.5 45v7.5t-1 6.5q-3 31 -18 56.5t-40 25.5 q-23 0 -30.5 -19t-7.5 -42q-1 -7 -0.5 -14t0.5 -14v-11v-9q1 -4 2.5 -8t4.5 -8q7 -15 19.5 -27t29.5 -11v0z" />
<glyph unicode="&#xff;" horiz-adv-x="378" d="M422 201q-33 -28 -66 -57t-67 -58v-21v-22q0 -20 -4.5 -45t-13.5 -52q-19 -55 -56.5 -101t-91.5 -43q-29 0 -45 22t-17 50v9.5v9.5q5 51 39.5 97t77.5 69l4 150q-5 -13 -12.5 -34.5t-18.5 -44.5q-17 -35 -39.5 -64.5t-50.5 -29.5q-4 0 -8 1.5t-9 2.5q-7 2 -13.5 8 t-11.5 15t-8 22t-4 30q-1 23 -1.5 45.5t-1.5 45.5t-1.5 45.5t-1.5 45.5l116 51l7 -207q19 39 32.5 80.5t25.5 83.5l109 31l-1 -212q29 25 57.5 49.5t56.5 49.5q2 1 3 2t3 1q1 1 2.5 1h2.5q5 0 9 -4t4 -10q0 -3 -1.5 -6t-4.5 -6v0zM177 26q-26 -18 -45 -42t-31 -49 q0 -3 -1 -5l-2 -4q0 -2 -1 -3.5t-1 -3.5q-2 -7 -4 -16.5t-3 -18.5v-3.5v-3.5q0 -14 5 -26.5t18 -17.5q3 -1 6 -1.5t6 -0.5q17 1 28.5 15.5t17.5 32.5q2 7 3 13.5t1 12.5q0 15 0.5 30.5t1.5 30.5q0 15 0.5 30t0.5 30v0zM155 391q0 -13 -10.5 -23.5t-24.5 -10.5 q-13 0 -23.5 10.5t-10.5 23.5q0 14 10.5 24.5t23.5 10.5q14 0 24.5 -10.5t10.5 -24.5v0zM241 391q0 -13 -10.5 -23.5t-24.5 -10.5q-13 0 -23 10.5t-10 23.5q0 14 10 24.5t23 10.5q14 0 24.5 -10.5t10.5 -24.5v0z" />
<glyph unicode="&#x152;" horiz-adv-x="1145" d="M1147 200q-4 -8 -8 -16.5t-8 -16.5q-8 -17 -16 -33.5t-16 -32.5q-5 -11 -26.5 -21t-45.5 -19q-20 -6 -38.5 -11t-27.5 -7q-25 -5 -62 -9t-78 -4q-13 0 -26 0.5t-26 1.5q-60 4 -115.5 19.5t-89.5 48.5q-35 -25 -75.5 -42t-83.5 -25q-14 -2 -29 -3.5t-30 -1.5 q-12 0 -24.5 1t-25.5 2q-114 15 -207.5 91t-85.5 200q8 114 89.5 161t177.5 53q19 1 38 0.5t38 -1.5q10 -1 20 -2.5t21 -3.5q24 -6 47 -15t42 -21q3 -1 4.5 -3.5t2.5 -4.5v-2v-2q0 -6 -4 -10.5t-10 -3.5h-2h-2t-2 0.5t-2 1.5q-18 11 -40 19.5t-44 13.5q-9 2 -17 3l-16 2 q-7 1 -14.5 1h-15.5q-44 1 -87.5 -7.5t-81.5 -34.5q-32 -22 -46 -50t-14 -57q0 -4 0.5 -9t0.5 -9q5 -36 27 -70.5t53 -61.5q54 -45 121 -66t137 -22h6h6h7.5h7.5q23 1 45 5t41 11q-6 12 -9 26t-3 30v5.5v4.5t0.5 4.5t0.5 5.5q6 49 35 81t69 51q-10 48 -37 89t-72 72 q-46 32 -95.5 44t-100.5 12q-35 0 -71 -4.5t-72 -11.5l-13 23q41 45 99.5 66.5t122.5 21.5h6.5h7.5q74 -4 144 -33.5t114 -84.5q3 46 40.5 79.5t81.5 44.5q1 0 3 0.5t3 0.5q4 1 7.5 1.5t7.5 0.5q3 1 6.5 1h7.5t8.5 -0.5t8.5 -0.5q38 -5 74 -23t63 -42q1 3 1.5 6t0.5 6 q0 4 -1 7.5t-1 7.5q-1 4 -2 7.5t-1 7.5q-1 7 3 11.5t9 5.5h0.5h1.5q5 -1 9 -4t5 -10q2 -11 3 -20t1 -17q0 -7 -1.5 -14t-4.5 -16q24 -27 35.5 -56.5t11.5 -64.5v-11t-1 -12t-2.5 -13t-3.5 -15q-6 -17 -17 -31.5t-28 -14.5q-4 0 -8.5 1.5t-9.5 3.5q-21 11 -29 32t-8 45v5.5 v4.5q1 15 3.5 29.5t5.5 27.5q0 2 0.5 4.5t1.5 4.5q-26 21 -59.5 36.5t-68.5 22.5q-16 3 -31 4.5t-30 0.5q-28 -2 -48.5 -13t-19.5 -40v-4.5v-5.5q0 -1 0.5 -2.5t0.5 -2.5q9 -47 47 -69.5t81 -36.5q8 -3 15.5 -5t14.5 -5q10 -3 19.5 -6t18.5 -7l16 -92q-29 3 -57.5 5.5 t-57.5 2.5q-19 0 -39.5 -1.5t-40.5 -5.5h-0.5h-1.5q-1 -1 -1.5 -1h-0.5q-12 -43 -35 -81t-55 -70q5 -1 10.5 -2t9.5 -2q43 -10 85.5 -14.5t84.5 -4.5q89 0 174.5 20.5t167.5 59.5v0zM634 274q-30 -13 -53.5 -32t-23.5 -47v-2t1 -2v-2v-2q2 -9 7.5 -16.5t12.5 -12.5 q22 16 36.5 40t18.5 58q1 5 1 9.5v8.5v0zM799 387q-23 8 -45.5 17.5t-40.5 24.5v-1q2 -13 3 -26.5t1 -27.5q22 5 42.5 8t39.5 5v0zM994 391q2 5 3.5 9t1.5 9q1 4 1.5 8.5t0.5 8.5q0 19 -7.5 36.5t-21.5 33.5q0 -2 -0.5 -4.5t-1.5 -4.5q-1 -9 -2 -20t-1 -23q0 -20 5 -37 t18 -17h0.5t1.5 1h1.5h0.5v0z" />
<glyph unicode="&#x153;" horiz-adv-x="496" d="M547 236q-1 -6 -2 -12.5t-2 -12.5q-18 -69 -77.5 -127t-132.5 -58h-3t-4 1h-3h-4q-34 3 -59.5 28t-36.5 63q-6 -11 -13 -22t-15 -21q-17 -20 -38.5 -33t-43.5 -15q-3 -1 -5.5 -1h-5.5q-21 0 -41 11t-35 35q-13 20 -18.5 42t-5.5 46q0 5 0.5 10.5t0.5 10.5q4 36 18 69.5 t36 57.5q20 23 44.5 35.5t50.5 12.5q36 0 57.5 -21.5t31.5 -52.5q5 9 10.5 18t11.5 16q2 2 4 4.5t4 4.5q17 19 39.5 34t47.5 15h6t6 -1q25 -6 38 -26.5t16 -43.5q0 -4 0.5 -8.5t0.5 -8.5q0 -9 -1 -18.5t-3 -19.5q-7 -32 -25.5 -61t-45.5 -45q14 -9 28 -13.5t29 -4.5 q20 1 38.5 9t34.5 24q16 15 26 36t13 46q1 6 4 9.5t7 4.5h1.5h1.5q6 -1 10 -4t4 -11v-0.5v-0.5v-0.5v-0.5v0zM200 146q5 4 7 10t2 13q0 6 -1 12t-3 13l-6 14l-6 14q-4 6 -7 11t-5 8q-3 4 -8 10t-11 12t-13.5 11.5t-14.5 9.5q-6 3 -12 5t-11 2q-4 -1 -7.5 -2t-6.5 -3 q-5 -4 -7.5 -10t-1.5 -14q0 -5 1 -10.5t2 -11.5q3 -8 6 -16.5t7 -15.5q3 -6 6 -10.5l5 -7.5q3 -4 8.5 -10t11.5 -12q7 -6 14.5 -11.5t15.5 -9.5q5 -3 10.5 -4.5t10.5 -1.5q4 1 7.5 2t6.5 3v0zM363 274q0 3 -0.5 8t-1.5 10q-2 9 -7 16.5t-14 7.5q-19 0 -28 -13.5t-13 -30.5 q-1 -5 -1.5 -10t-1.5 -9q-1 -23 5 -44t18 -38q16 16 27.5 38t14.5 45q1 5 1.5 10t0.5 10v0z" />
<glyph unicode="&#x178;" horiz-adv-x="609" d="M609 60l-36 -90q-19 -2 -39 -3.5t-40 -2.5q-1 -13 -4 -31t-8 -36q-9 -35 -27 -63t-48 -28h-5t-6 1q-27 6 -55.5 12.5t-56.5 14.5q-69 19 -135.5 47.5t-120.5 71.5l39 84l397 17q-1 23 -1.5 45t-1.5 44q-25 -22 -56.5 -32.5t-64.5 -10.5h-5.5h-4.5q-33 2 -64.5 14.5 t-55.5 35.5q-40 38 -55.5 83.5t-14.5 94.5q0 23 2.5 46t5.5 47q2 15 5 30t5 30q4 23 8 46.5t7 45.5v1.5v1.5q1 4 1 10.5v13.5q-1 9 -3 17t-7 12q-49 -14 -66 -53.5t-20 -83.5q-1 -11 -1.5 -22t-0.5 -22l-68 -9q-1 14 -2.5 28.5t-1.5 29.5q0 48 17 91.5t65 66.5q9 5 20 7 t23 2q6 0 12.5 -0.5t12.5 -1.5q31 -5 58 -21.5t38 -40.5q13 -28 18 -57.5t5 -60.5q0 -26 -3 -52.5t-8 -53.5q-2 -13 -4 -25.5t-4 -25.5q-6 -33 -11.5 -65t-7.5 -62q-2 -28 10.5 -39.5t33.5 -10.5q7 0 14.5 1t14.5 2q59 11 91.5 56t49.5 97q5 14 7 41.5t3 60.5q0 5 0.5 9.5 t0.5 9.5q0 7 0.5 13.5t0.5 13.5q3 61 13 111.5t39 50.5h1.5h1.5q1 -1 1.5 -1h1.5q18 -4 25.5 -21.5t7.5 -43.5q0 -20 -4 -43.5t-10 -47.5q-5 -19 -10.5 -38t-11.5 -36q-10 -27 -18.5 -47.5t-13.5 -29.5q1 -31 2 -62.5t2 -62.5q1 -32 2.5 -63t2.5 -63l116 5v0zM466 -38 q-25 1 -51 2.5t-53 3.5q-7 0 -14.5 0.5t-14.5 1.5q-44 3 -86 2.5t-80 -9.5q10 -7 24.5 -14.5t32.5 -16.5q19 -8 40.5 -16.5t43.5 -15.5q23 -7 46 -11.5t43 -4.5q17 0 30 3t22 11q8 6 11 16.5t5 21.5q0 5 0.5 10.5t0.5 10.5v2.5v3.5v-1zM513 554h-1.5h-0.5q-12 0 -17.5 -27 t-7.5 -59q-2 -26 -2 -49v-33v-3.5v-1.5l4 10.5t9 23.5q4 12 7.5 22t4.5 11q1 3 2.5 8t3.5 12t3.5 15t2.5 16q2 7 2.5 14.5t0.5 13.5q0 11 -2.5 18.5t-8.5 8.5v0zM362 613q0 -13 -10.5 -23.5t-24.5 -10.5q-13 0 -23.5 10.5t-10.5 23.5q0 14 10.5 24.5t23.5 10.5 q14 0 24.5 -10.5t10.5 -24.5v0zM448 613q0 -13 -10.5 -23.5t-24.5 -10.5q-13 0 -23 10.5t-10 23.5q0 14 10 24.5t23 10.5q14 0 24.5 -10.5t10.5 -24.5v0z" />
<glyph unicode="&#x2c6;" horiz-adv-x="276" d="M264 767q-1 -13 -6.5 -26t-15.5 -22q-11 -12 -28 -18t-35 -6q-15 0 -29 4.5t-25 13.5q-3 3 -7.5 6.5t-8.5 6.5l-10 8t-10 7q-3 1 -6.5 2.5t-6.5 1.5h-1.5h-2.5q-10 0 -17 -8.5t-11 -18.5q-1 -3 -2 -6.5t-1 -6.5q0 -5 -2 -9.5t-13 -3.5q-8 0 -11 3.5t-2 7.5v0.5v1.5v1.5 v0.5v2.5v2.5v0.5v1.5v3.5v3.5q1 29 21.5 49t49.5 20q20 0 34 -7.5t27 -18.5q3 -2 6 -4.5t6 -5.5q8 -7 17 -10.5t18 -3.5q18 0 30.5 12.5t13.5 30.5q0 5 2 9.5t12 3.5q8 -1 11 -4t3 -9v-3.5t-1 -4.5q1 -1 1 -3.5v-4.5v0z" />
<glyph unicode="&#x2dc;" horiz-adv-x="276" d="M236 713l-2.5 -2.5t-2.5 -1.5l-3 -1.5t-3 -0.5q-1 0 -3.5 1.5t-5.5 3.5q-9 7 -17.5 13.5t-17.5 12.5t-17.5 12t-17.5 12h-10q-9 -6 -18.5 -12.5t-19.5 -12.5t-19.5 -12.5t-19.5 -12.5q-3 -2 -5 -3t-4 -1t-4.5 1.5t-5.5 5.5q-2 2 -3 4.5t-1 4.5q0 3 1.5 5.5t4.5 4.5 l21.5 21.5t20.5 21.5l21.5 21.5t20.5 21.5h30l20 -22t20 -21q9 -11 19 -22l20 -22q3 -3 4.5 -5.5t1.5 -4.5t-1.5 -4.5t-3.5 -5.5v0z" />
<glyph unicode="&#x2000;" horiz-adv-x="411" />
<glyph unicode="&#x2001;" horiz-adv-x="822" />
<glyph unicode="&#x2002;" horiz-adv-x="411" />
<glyph unicode="&#x2003;" horiz-adv-x="822" />
<glyph unicode="&#x2004;" horiz-adv-x="274" />
<glyph unicode="&#x2005;" horiz-adv-x="205" />
<glyph unicode="&#x2006;" horiz-adv-x="137" />
<glyph unicode="&#x2007;" horiz-adv-x="137" />
<glyph unicode="&#x2008;" horiz-adv-x="102" />
<glyph unicode="&#x2009;" horiz-adv-x="164" />
<glyph unicode="&#x200a;" horiz-adv-x="45" />
<glyph unicode="&#x2010;" horiz-adv-x="135" d="M114 262h-105v36h105v-36v0z" />
<glyph unicode="&#x2011;" horiz-adv-x="135" d="M114 262h-105v36h105v-36v0z" />
<glyph unicode="&#x2012;" horiz-adv-x="135" d="M114 262h-105v36h105v-36v0z" />
<glyph unicode="&#x2013;" horiz-adv-x="330" d="M322 262h-310v36h310v-36v0z" />
<glyph unicode="&#x2014;" horiz-adv-x="455" d="M463 262h-465v36h465v-36v0z" />
<glyph unicode="&#x2018;" horiz-adv-x="103" d="M108 681l-69 -120l-31 18l69 120l31 -18v0z" />
<glyph unicode="&#x2019;" horiz-adv-x="103" d="M108 681l-69 -120l-31 18l69 120l31 -18v0z" />
<glyph unicode="&#x201a;" horiz-adv-x="111" d="M97 77q5 -8 7 -16.5t2 -16.5q0 -22 -12.5 -43t-27.5 -36q-10 -9 -20.5 -18t-23.5 -16l-14 23q1 1 6.5 5t12.5 9l1.5 1.5t1.5 0.5q6 5 11.5 9.5t4.5 5.5q5 5 8.5 11.5t4.5 14.5q1 2 1 3.5v3.5q0 8 -3 15.5t-8 14.5l-28 -20l-16 24l70 48q1 -1 2.5 -2t2.5 -2q5 -4 9.5 -9 t7.5 -10v0z" />
<glyph unicode="&#x201c;" horiz-adv-x="184" d="M178 671l-69 -120l-31 18l69 120l31 -18v0zM108 681l-69 -120l-31 18l69 120l31 -18v0z" />
<glyph unicode="&#x201d;" horiz-adv-x="184" d="M178 671l-69 -120l-31 18l69 120l31 -18v0zM108 681l-69 -120l-31 18l69 120l31 -18v0z" />
<glyph unicode="&#x201e;" horiz-adv-x="189" d="M177 77q5 -8 7 -16.5t2 -16.5q0 -22 -12.5 -43t-27.5 -36q-10 -9 -20.5 -18t-23.5 -16l-14 23q1 1 6.5 5t12.5 9l1.5 1.5t1.5 0.5q6 5 11.5 9.5t4.5 5.5q5 5 8.5 11.5t4.5 14.5q1 2 1 3.5v3.5q0 8 -3 15.5t-8 14.5l-24 -17q-4 -19 -15 -36t-24 -30q-10 -9 -20.5 -18 t-23.5 -16l-14 23q1 1 6.5 5t12.5 9l1.5 1.5t1.5 0.5q6 5 11.5 9.5t4.5 5.5q5 5 8.5 11.5t4.5 14.5q1 2 1 3.5v3.5q0 8 -3 15.5t-8 14.5l-28 -20l-16 24l70 48q1 -1 2.5 -2t2.5 -2q5 -4 9.5 -9t7.5 -10q2 -3 3.5 -6t2.5 -7l52 36q1 -1 2.5 -2t2.5 -2q5 -4 9.5 -9t7.5 -10v0z " />
<glyph unicode="&#x2022;" horiz-adv-x="230" d="M192 310q0 -31 -22.5 -54t-54.5 -23t-55 23t-23 54q0 32 23 55t55 23t54.5 -23t22.5 -55v0z" />
<glyph unicode="&#x2026;" horiz-adv-x="368" d="M116 71q0 -19 -13 -32t-32 -13t-32 13t-13 32t13 32.5t32 13.5t32 -13.5t13 -32.5v0zM236 71q0 -19 -13 -32t-32 -13t-32 13t-13 32t13 32.5t32 13.5t32 -13.5t13 -32.5v0zM346 71q0 -19 -13 -32t-32 -13t-32 13t-13 32t13 32.5t32 13.5t32 -13.5t13 -32.5v0z" />
<glyph unicode="&#x202f;" horiz-adv-x="164" />
<glyph unicode="&#x2039;" horiz-adv-x="173" d="M161 514q-19 -32 -38.5 -65t-39.5 -66q17 -31 33.5 -63.5t33.5 -64.5q0 -1 0.5 -1.5t0.5 -1.5q1 -1 1.5 -2.5t0.5 -3.5t-2 -4.5t-7 -5.5q-3 -1 -5 -1.5t-4 -0.5h-0.5h-0.5h-0.5h-0.5h-0.5h-1.5q0 -1 -0.5 -1h-1.5q-2 0 -4 1.5t-4 3.5q0 1 -0.5 1.5l-0.5 0.5l-56 72 l-56 72l131 147q2 4 4.5 5.5t5.5 1.5q1 0 2.5 -0.5t3.5 -1.5q1 -1 1.5 -1t1.5 -1q5 -3 6.5 -5.5t1.5 -4.5q-1 -2 -2 -4.5t-3 -5.5v0z" />
<glyph unicode="&#x203a;" horiz-adv-x="173" d="M11 514q-2 3 -3.5 5.5t-1.5 4.5t2 4.5t6 5.5q3 2 5.5 3t4.5 1t4.5 -1.5t4.5 -5.5l131 -147q-28 -36 -55.5 -72t-56.5 -72l-0.5 -0.5l-1.5 -1.5v0v0l-3.5 -3.5t-4.5 -1.5q-1 1 -1.5 1h-1.5h-0.5h-0.5h-0.5h-0.5q-2 0 -4.5 0.5t-4.5 1.5q-5 3 -7 6t-2 5q0 1 0.5 2t0.5 2 l0.5 0.5l0.5 0.5q0 1 0.5 1.5t0.5 1.5q17 32 34 64.5t33 63.5q-19 33 -38.5 66t-39.5 65v0z" />
<glyph unicode="&#x205f;" horiz-adv-x="205" />
<glyph unicode="&#x2122;" />
<glyph unicode="&#xe000;" horiz-adv-x="360" d="M0 360h360v-360h-360v360z" />
</font>
</defs>
</svg>
